G04 ================== begin FILE IDENTIFICATION RECORD ==================*
G04 Layout Name:  G:/huangwei/complete/202012/Santa Cruz IoT/Santa Cruz IoT v0.7.brd*
G04 Film Name:    L5_PWR*
G04 File Format:  Gerber RS274X*
G04 File Origin:  Cadence Allegro 17.2-061*
G04 Origin Date:  Tue Dec 22 10:05:31 2020*
G04 *
G04 Layer:  VIA CLASS/LYR5_GND*
G04 Layer:  PIN/LYR5_GND*
G04 Layer:  ETCH/LYR5_GND*
G04 Layer:  BOARD GEOMETRY/OUTLINE*
G04 *
G04 Offset:    (0.00 0.00)*
G04 Mirror:    No*
G04 Mode:      Positive*
G04 Rotation:  0*
G04 FullContactRelief:  No*
G04 UndefLineWidth:     6.00*
G04 ================== end FILE IDENTIFICATION RECORD ====================*
%FSLAX25Y25*MOIN*%
%IR0*IPPOS*OFA0.00000B0.00000*MIA0B0*SFA1.00000B1.00000*%
%ADD21C,.024*%
%ADD16O,.05118X.11024*%
%ADD11C,.016*%
%ADD17C,.02362*%
%ADD10C,.08661*%
%ADD19C,.09843*%
%ADD12R,.08661X.08661*%
%ADD13C,.125*%
%ADD15O,.04724X.08661*%
%ADD20O,.05118X.09843*%
%ADD18O,.09843X.05118*%
%ADD14C,.19685*%
%ADD22C,.01475*%
%ADD23C,.005*%
%ADD24C,.00475*%
%ADD32C,.03204*%
%ADD31C,.02404*%
%ADD25O,.0592X.11826*%
%ADD26C,.06196*%
%ADD27C,.05848*%
%ADD28C,.13504*%
%ADD29C,.20488*%
%ADD30C,.34836*%
G75*
%LPD*%
G75*
G36*
G01X837900Y810326D02*
G02X837500Y810726I0J400D01*
G01Y827620D01*
X840660Y830780D01*
Y837040D01*
X832800Y844900D01*
X832700Y845100D01*
X832600Y845400D01*
X832500Y845600D01*
Y1067400D01*
X832800Y1067700D01*
X834700Y1070200D01*
X836900Y1072200D01*
X839200Y1074500D01*
X840600Y1076600D01*
X840800Y1079100D01*
X840500Y1082300D01*
X838800Y1083900D01*
X837900Y1084600D01*
X837300Y1085600D01*
X837088Y1086300D01*
Y1102000D01*
X837200Y1102200D01*
Y1102900D01*
X837500Y1104900D01*
X838500Y1107300D01*
X839700Y1109100D01*
X842100Y1111200D01*
X844100Y1112200D01*
X845700Y1112700D01*
X847300Y1112900D01*
X848000Y1113000D01*
X848200D01*
X848281Y1113018D01*
X926000D01*
Y1113000D01*
X953316D01*
G02X953716Y1112600I0J-400D01*
G03X953969Y1112228I400J0D01*
G02X964228Y1101954I-6661J-16910D01*
G03X964600Y1101700I372J146D01*
G02X965000Y1101300I0J-400D01*
G01Y1086450D01*
X964900Y1086100D01*
X964400Y1084900D01*
X963600Y1084100D01*
X962900Y1083600D01*
X962200Y1082800D01*
X961700Y1081600D01*
X961300Y1080200D01*
Y1077500D01*
X961800Y1075800D01*
X962800Y1074600D01*
X965000Y1072500D01*
X968900Y1068600D01*
X969300Y1068100D01*
X969500Y1067700D01*
Y845000D01*
X963700Y839200D01*
X962200Y837800D01*
X961400Y836100D01*
Y832900D01*
X961500Y831900D01*
X961900Y830900D01*
X962600Y829900D01*
X963400Y829100D01*
X964500Y828100D01*
X965000Y826700D01*
Y811800D01*
X964900Y810700D01*
X964700Y808900D01*
X964200Y807000D01*
X963000Y804800D01*
X962300Y803900D01*
X961100Y802600D01*
X958600Y801100D01*
X957800Y800800D01*
X957100Y800500D01*
X882500D01*
X882000Y801000D01*
Y801674D01*
X882274D01*
X882330Y801626D01*
G03X886884Y803730I1791J2105D01*
G01Y807668D01*
G03X882618Y809986I-2763J-1D01*
G02X882000Y810322I-218J336D01*
G01Y817612D01*
G02X882618Y817948I400J0D01*
G03X886299Y818566I1503J2319D01*
G02X886897Y818603I315J-246D01*
G01X891500Y814000D01*
X910500D01*
X915159Y818659D01*
G02X915763Y818615I283J-283D01*
G03X920742Y820266I2216J1652D01*
G01Y824242D01*
X922000Y825500D01*
X929000D01*
X940000Y836500D01*
X958000D01*
X965034Y843534D01*
X965096Y843545D01*
G03X965420Y843869I-71J395D01*
G01X965431Y843931D01*
X966000Y844500D01*
Y1067000D01*
X958000Y1075000D01*
X935000D01*
X913500Y1096500D01*
X906905D01*
G02X906525Y1097023I1J400D01*
G03X895571I-5477J1766D01*
G02X895191Y1096500I-381J-123D01*
G01X888224D01*
G02X888017Y1097242I0J400D01*
G03X889442Y1099773I-1535J2531D01*
G01Y1105679D01*
G03X883520I-2961J0D01*
G01Y1099773D01*
G03X884945Y1097242I2960J0D01*
G02X884738Y1096500I-207J-342D01*
G01X881500D01*
X863000Y1078000D01*
X845000D01*
X836400Y1069400D01*
Y845100D01*
X842000Y839500D01*
X863500D01*
X869500Y833500D01*
X873500D01*
X881618Y825382D01*
X881567Y825259D01*
G03X881358Y824204I2554J-1054D01*
G01Y820266D01*
G03X881614Y819104I2763J0D01*
G01Y808830D01*
G03X881358Y807668I2507J-1162D01*
G01Y803730D01*
G03X881597Y802606I2763J0D01*
G01X881614Y802567D01*
Y801000D01*
X881114Y800500D01*
X847692D01*
G02X847292Y800900I0J400D01*
G03X847062Y801262I-400J0D01*
G02X838263Y810094I7726J16497D01*
G03X837900Y810326I-363J-168D01*
G37*
G36*
G01X905769Y1095498D02*
X913085D01*
X928201Y1080383D01*
G02X927939Y1079700I-283J-283D01*
G03X926798Y1078500I61J-1200D01*
G03X928000Y1077298I1202J0D01*
G03X929200Y1078439I0J1202D01*
G02X929883Y1078701I400J-21D01*
G01X933280Y1075304D01*
G02X933123Y1074641I-283J-283D01*
G03X932298Y1073500I377J-1141D01*
G03X934702I1202J0D01*
G03X934700Y1073574I-1202J5D01*
G02X935099Y1073998I399J24D01*
G01X957585D01*
X961378Y1070206D01*
G02X961063Y1069525I-283J-282D01*
G03X960694Y1069539I-364J-4718D01*
G03Y1060075I0J-4732D01*
G03X964294Y1061736I0J4732D01*
G02X964998Y1061477I304J-260D01*
G01Y1048452D01*
G02X964294Y1048193I-400J1D01*
G03X960694Y1049854I-3600J-3071D01*
G03Y1040390I0J-4732D01*
G03X964294Y1042051I0J4732D01*
G02X964998Y1041792I304J-260D01*
G01Y1028767D01*
G02X964294Y1028508I-400J1D01*
G03X960694Y1030169I-3600J-3071D01*
G03Y1020705I0J-4732D01*
G03X964294Y1022366I0J4732D01*
G02X964998Y1022107I304J-260D01*
G01Y1009082D01*
G02X964294Y1008823I-400J1D01*
G03X960694Y1010484I-3600J-3071D01*
G03Y1001020I0J-4732D01*
G03X964294Y1002681I0J4732D01*
G02X964998Y1002422I304J-260D01*
G01Y989397D01*
G02X964294Y989138I-400J1D01*
G03X960694Y990799I-3600J-3071D01*
G03Y981335I0J-4732D01*
G03X964294Y982996I0J4732D01*
G02X964998Y982737I304J-260D01*
G01Y969712D01*
G02X964294Y969453I-400J1D01*
G03X960694Y971114I-3600J-3071D01*
G03Y961650I0J-4732D01*
G03X964294Y963311I0J4732D01*
G02X964998Y963052I304J-260D01*
G01Y950026D01*
G02X964294Y949767I-400J1D01*
G03X960694Y951428I-3600J-3071D01*
G03Y941964I0J-4732D01*
G03X964294Y943625I0J4732D01*
G02X964998Y943366I304J-260D01*
G01Y930341D01*
G02X964294Y930082I-400J1D01*
G03X960694Y931743I-3600J-3071D01*
G03Y922279I0J-4732D01*
G03X964294Y923940I0J4732D01*
G02X964998Y923681I304J-260D01*
G01Y910656D01*
G02X964294Y910397I-400J1D01*
G03X960694Y912058I-3600J-3071D01*
G03Y902594I0J-4732D01*
G03X964294Y904255I0J4732D01*
G02X964998Y903996I304J-260D01*
G01Y890971D01*
G02X964294Y890712I-400J1D01*
G03X960694Y892373I-3600J-3071D01*
G03Y882909I0J-4732D01*
G03X964294Y884570I0J4732D01*
G02X964998Y884311I304J-260D01*
G01Y871286D01*
G02X964294Y871027I-400J1D01*
G03X960694Y872688I-3600J-3071D01*
G03Y863224I0J-4732D01*
G03X964294Y864885I0J4732D01*
G02X964998Y864626I304J-260D01*
G01Y853003D01*
X956364D01*
G03X955962Y852602I0J-402D01*
G01Y843940D01*
G03X956364Y843539I401J1D01*
G01X962657D01*
G02X962940Y842856I0J-400D01*
G01X957585Y837502D01*
X939585D01*
X928585Y826502D01*
X921585D01*
X920839Y825755D01*
G02X920230Y825806I-283J283D01*
G03X915216Y824204I-2251J-1603D01*
G01Y823970D01*
X886884D01*
Y824204D01*
G03X882213Y826203I-2763J0D01*
G01X873915Y834502D01*
X869915D01*
X863915Y840502D01*
X842415D01*
X839919Y842998D01*
G02X840295Y843669I283J282D01*
G03X841402Y843538I1106J4601D01*
G03Y853002I0J4732D01*
G03X838082Y851642I0J-4732D01*
G02X837402Y851927I-280J285D01*
G01Y864298D01*
G02X838082Y864583I400J0D01*
G03X841402Y863223I3320J3372D01*
G03Y872687I0J4732D01*
G03X838082Y871327I0J-4732D01*
G02X837402Y871612I-280J285D01*
G01Y883983D01*
G02X838082Y884268I400J0D01*
G03X841402Y882908I3320J3372D01*
G03Y892372I0J4732D01*
G03X838082Y891012I0J-4732D01*
G02X837402Y891297I-280J285D01*
G01Y903668D01*
G02X838082Y903953I400J0D01*
G03X841402Y902593I3320J3372D01*
G03Y912057I0J4732D01*
G03X838082Y910697I0J-4732D01*
G02X837402Y910982I-280J285D01*
G01Y923353D01*
G02X838082Y923638I400J0D01*
G03X841402Y922278I3320J3372D01*
G03Y931742I0J4732D01*
G03X838082Y930382I0J-4732D01*
G02X837402Y930667I-280J285D01*
G01Y943038D01*
G02X838082Y943323I400J0D01*
G03X841402Y941963I3320J3372D01*
G03Y951427I0J4732D01*
G03X838082Y950067I0J-4732D01*
G02X837402Y950352I-280J285D01*
G01Y962724D01*
G02X838082Y963009I400J0D01*
G03X841402Y961649I3320J3372D01*
G03Y971113I0J4732D01*
G03X838082Y969753I0J-4732D01*
G02X837402Y970038I-280J285D01*
G01Y982409D01*
G02X838082Y982694I400J0D01*
G03X841402Y981334I3320J3372D01*
G03Y990798I0J4732D01*
G03X838082Y989438I0J-4732D01*
G02X837402Y989723I-280J285D01*
G01Y1002094D01*
G02X838082Y1002379I400J0D01*
G03X841402Y1001019I3320J3372D01*
G03Y1010483I0J4732D01*
G03X838082Y1009123I0J-4732D01*
G02X837402Y1009408I-280J285D01*
G01Y1021779D01*
G02X838082Y1022064I400J0D01*
G03X841402Y1020704I3320J3372D01*
G03Y1030168I0J4732D01*
G03X838082Y1028808I0J-4732D01*
G02X837402Y1029093I-280J285D01*
G01Y1041464D01*
G02X838082Y1041749I400J0D01*
G03X841402Y1040389I3320J3372D01*
G03Y1049853I0J4732D01*
G03X838082Y1048493I0J-4732D01*
G02X837402Y1048778I-280J285D01*
G01Y1060074D01*
X845732D01*
G03X846134Y1060476I1J401D01*
G01Y1069136D01*
G03X845732Y1069538I-401J0D01*
G01X838920D01*
G02X838637Y1070221I0J400D01*
G01X845415Y1076998D01*
X863415D01*
X881915Y1095498D01*
X896327D01*
G03X905769I4721J3291D01*
G37*
%LPC*%
G75*
G36*
G01X915216Y803730D02*
Y807668D01*
G02X920742I2763J-1D01*
G01Y803730D01*
G02X915216I-2763J1D01*
G37*
G36*
G01X898686Y1073206D02*
X903410D01*
G02Y1067286I0J-2960D01*
G01X898686D01*
G02Y1073206I0J2960D01*
G37*
G36*
G01X918560Y1071624D02*
Y1076348D01*
G02X924480I2960J0D01*
G01Y1071624D01*
G02X918560I-2960J0D01*
G37*
G36*
G01X910292D02*
Y1076348D01*
G02X916214I2961J1D01*
G01Y1071624D01*
G02X910292I-2961J-1D01*
G37*
G36*
G01X911973Y829420D02*
G03X911473Y829295I-176J-360D01*
G02X910500Y828798I-973J704D01*
G02Y831202I0J1202D01*
G02X911027Y831080I-1J-1202D01*
G03X911527Y831205I176J360D01*
G02X912500Y831702I973J-704D01*
G02Y829298I0J-1202D01*
G02X911973Y829420I1J1202D01*
G37*
G36*
G01X887250Y831561D02*
G03X886750I-250J-313D01*
G02X886000Y831298I-750J938D01*
G02Y833702I0J1202D01*
G02X886750Y833439I0J-1201D01*
G03X887250I250J313D01*
G02X888000Y833702I750J-938D01*
G02Y831298I0J-1202D01*
G02X887250Y831561I0J1201D01*
G37*
G36*
G01X897731Y863680D02*
G03X898205Y864029I77J392D01*
G02X899400Y865102I1195J-129D01*
G02X900602Y863900I0J-1202D01*
G02X900305Y863109I-1202J0D01*
G03X900355Y862535I302J-263D01*
G02X900802Y861600I-754J-935D01*
G02X899600Y860398I-1202J0D01*
G02X898480Y861163I0J1202D01*
G03X897956Y861388I-373J-145D01*
G02X897500Y861298I-456J1112D01*
G02Y863702I0J1202D01*
G02X897731Y863680I2J-1202D01*
G37*
G36*
G01X869561Y882750D02*
G03Y883250I-313J250D01*
G02X869298Y884000I938J750D01*
G02X871702I1202J0D01*
G02X871439Y883250I-1201J0D01*
G03Y882750I313J-250D01*
G02X871702Y882000I-938J-750D01*
G02X869298I-1202J0D01*
G02X869561Y882750I1201J0D01*
G37*
G36*
G01X904813Y887815D02*
G03X904573Y888306I-382J117D01*
G02X903798Y889430I428J1124D01*
G02X906202I1202J0D01*
G02X906149Y889077I-1202J0D01*
G03X906389Y888586I382J-117D01*
G02X907164Y887462I-428J-1124D01*
G02X906384Y886337I-1201J0D01*
G03X906142Y885845I141J-375D01*
G02X906195Y885493I-1149J-353D01*
G02X903791I-1202J0D01*
G02X904571Y886618I1201J0D01*
G03X904813Y887110I-141J375D01*
G02X904760Y887462I1149J353D01*
G02X904813Y887815I1202J0D01*
G37*
G36*
G01X877378Y928121D02*
G03X878002Y928171I292J273D01*
G02X879000Y928702I998J-672D01*
G02X880202Y927500I0J-1202D01*
G02X879395Y926365I-1202J0D01*
G03X879145Y925865I131J-378D01*
G02X879202Y925500I-1145J-366D01*
G02X876798I-1202J0D01*
G02X876807Y925650I1202J3D01*
G03X876433Y926100I-397J51D01*
G02X875298Y927300I67J1200D01*
G02X876500Y928502I1202J0D01*
G02X877378Y928121I0J-1202D01*
G37*
G36*
G01X862561Y933250D02*
G03Y933750I-313J250D01*
G02X862298Y934500I938J750D01*
G02X864702I1202J0D01*
G02X864683Y934285I-1202J-2D01*
G03X865207Y933836I393J-71D01*
G02X865600Y933902I393J-1137D01*
G02Y931498I0J-1202D01*
G02X864898Y931724I0J1203D01*
G03X864374Y931674I-233J-324D01*
G02X863500Y931298I-873J826D01*
G02X862298Y932500I0J1202D01*
G02X862561Y933250I1201J0D01*
G37*
G36*
G01X855061Y987750D02*
G03Y988250I-313J250D01*
G02X854798Y989000I938J750D01*
G02X856000Y990202I1202J0D01*
G02X856750Y989939I0J-1201D01*
G03X857250I250J313D01*
G02X858000Y990202I750J-938D01*
G02X859202Y989000I0J-1202D01*
G02X858939Y988250I-1201J0D01*
G03Y987750I313J-250D01*
G02X859202Y987000I-938J-750D01*
G02X858000Y985798I-1202J0D01*
G02X857250Y986061I0J1201D01*
G03X856750I-250J-313D01*
G02X856000Y985798I-750J938D01*
G02X854798Y987000I0J1202D01*
G02X855061Y987750I1201J0D01*
G37*
G36*
G01X920061Y989750D02*
G03Y990250I-313J250D01*
G02X919798Y991000I938J750D01*
G02X921000Y992202I1202J0D01*
G02X921750Y991939I0J-1201D01*
G03X922250I250J313D01*
G02X923000Y992202I750J-938D01*
G02X924202Y991000I0J-1202D01*
G02X923939Y990250I-1201J0D01*
G03Y989750I313J-250D01*
G02X924202Y989000I-938J-750D01*
G02X923000Y987798I-1202J0D01*
G02X922250Y988061I0J1201D01*
G03X921750I-250J-313D01*
G02X921000Y987798I-750J938D01*
G02X919798Y989000I0J1202D01*
G02X920061Y989750I1201J0D01*
G37*
G36*
G01X863061Y1002250D02*
G03Y1002750I-313J250D01*
G02X862798Y1003500I938J750D01*
G02X865202I1202J0D01*
G02X864939Y1002750I-1201J0D01*
G03Y1002250I313J-250D01*
G02X865202Y1001500I-938J-750D01*
G02X862798I-1202J0D01*
G02X863061Y1002250I1201J0D01*
G37*
G36*
G01X850561Y1010750D02*
G03Y1011250I-313J250D01*
G02X850298Y1012000I938J750D01*
G02X851500Y1013202I1202J0D01*
G02X852250Y1012939I0J-1201D01*
G03X852750I250J313D01*
G02X853500Y1013202I750J-938D01*
G02X854702Y1012000I0J-1202D01*
G02X854439Y1011250I-1201J0D01*
G03Y1010750I313J-250D01*
G02X854702Y1010000I-938J-750D01*
G02X853500Y1008798I-1202J0D01*
G02X852750Y1009061I0J1201D01*
G03X852250I-250J-313D01*
G02X851500Y1008798I-750J938D01*
G02X850298Y1010000I0J1202D01*
G02X850561Y1010750I1201J0D01*
G37*
G36*
G01X886178Y1042172D02*
G03Y1042428I-153J128D01*
G02X885898Y1043200I922J771D01*
G02X888302I1202J0D01*
G02X888022Y1042428I-1202J-1D01*
G03Y1042172I153J-128D01*
G02X888302Y1041400I-922J-771D01*
G02X888039Y1040650I-1201J0D01*
G03Y1040150I313J-250D01*
G02X888302Y1039400I-938J-750D01*
G02X888025Y1038632I-1203J0D01*
G03X888039Y1038361I154J-128D01*
G02X888402Y1037500I-840J-861D01*
G02X885998I-1202J0D01*
G02X886275Y1038268I1203J0D01*
G03X886261Y1038539I-154J128D01*
G02X885898Y1039400I840J861D01*
G02X886161Y1040150I1201J0D01*
G03Y1040650I-313J250D01*
G02X885898Y1041400I938J750D01*
G02X886178Y1042172I1202J1D01*
G37*
G36*
G01X916561Y1048250D02*
G03Y1048750I-313J250D01*
G02X916298Y1049500I938J750D01*
G02X917500Y1050702I1202J0D01*
G02X918250Y1050439I0J-1201D01*
G03X918750I250J313D01*
G02X919500Y1050702I750J-938D01*
G02X920702Y1049500I0J-1202D01*
G02X920439Y1048750I-1201J0D01*
G03Y1048250I313J-250D01*
G02X920702Y1047500I-938J-750D01*
G02X919500Y1046298I-1202J0D01*
G02X918750Y1046561I0J1201D01*
G03X918250I-250J-313D01*
G02X917500Y1046298I-750J938D01*
G02X916298Y1047500I0J1202D01*
G02X916561Y1048250I1201J0D01*
G37*
G36*
G01X945061Y1051250D02*
G03Y1051750I-313J250D01*
G02X944798Y1052500I938J750D01*
G02X946000Y1053702I1202J0D01*
G02X946750Y1053439I0J-1201D01*
G03X947250I250J313D01*
G02X948000Y1053702I750J-938D01*
G02X949202Y1052500I0J-1202D01*
G02X948939Y1051750I-1201J0D01*
G03Y1051250I313J-250D01*
G02X949202Y1050500I-938J-750D01*
G02X948000Y1049298I-1202J0D01*
G02X947250Y1049561I0J1201D01*
G03X946750I-250J-313D01*
G02X946000Y1049298I-750J938D01*
G02X944798Y1050500I0J1202D01*
G02X945061Y1051250I1201J0D01*
G37*
G36*
G01X859561Y1058250D02*
G03Y1058750I-313J250D01*
G02X859298Y1059500I938J750D01*
G02X860500Y1060702I1202J0D01*
G02X861250Y1060439I0J-1201D01*
G03X861750I250J313D01*
G02X862500Y1060702I750J-938D01*
G02X863702Y1059500I0J-1202D01*
G02X863439Y1058750I-1201J0D01*
G03Y1058250I313J-250D01*
G02X863702Y1057500I-938J-750D01*
G02X862500Y1056298I-1202J0D01*
G02X861750Y1056561I0J1201D01*
G03X861250I-250J-313D01*
G02X860500Y1056298I-750J938D01*
G02X859298Y1057500I0J1202D01*
G02X859561Y1058250I1201J0D01*
G37*
G36*
G01X863250Y1072439D02*
G03X863750I250J313D01*
G02X864500Y1072702I750J-938D01*
G02X865702Y1071500I0J-1202D01*
G02X865645Y1071135I-1202J1D01*
G03X865895Y1070635I381J-122D01*
G02X866702Y1069500I-395J-1135D01*
G02X865500Y1068298I-1202J0D01*
G02X864562Y1068748I0J1203D01*
G03X863938I-312J-250D01*
G02X863000Y1068298I-938J753D01*
G02X861798Y1069500I0J1202D01*
G02X861920Y1070027I1202J-1D01*
G03X861795Y1070527I-360J176D01*
G02X861298Y1071500I704J973D01*
G02X862500Y1072702I1202J0D01*
G02X863250Y1072439I0J-1201D01*
G37*
G36*
G01X900799Y831039D02*
G02X902000Y832202I1201J-39D01*
G02Y829798I0J-1202D01*
G02X901701Y829836I1J1202D01*
G03X901201Y829461I-100J-387D01*
G02X900000Y828298I-1201J39D01*
G02Y830702I0J1202D01*
G02X900299Y830664I-1J-1202D01*
G03X900799Y831039I100J387D01*
G37*
G36*
G01X878888Y850844D02*
G02X878798Y851300I1112J456D01*
G02X880000Y852502I1202J0D01*
G02X880748Y852241I0J-1202D01*
G03X881372Y852416I249J313D01*
G02X882500Y853202I1128J-416D01*
G02Y850798I0J-1202D01*
G02X881752Y851059I0J1202D01*
G03X881128Y850884I-249J-313D01*
G02X880512Y850213I-1127J417D01*
G03X880412Y849956I85J-181D01*
G02X880502Y849500I-1112J-456D01*
G02X878098I-1202J0D01*
G02X878788Y850587I1201J0D01*
G03X878888Y850844I-85J181D01*
G37*
G36*
G01X857020Y872304D02*
G02X856798Y873000I980J696D01*
G02X859202I1202J0D01*
G02X858230Y871820I-1202J0D01*
G03X857980Y871196I76J-393D01*
G02X858202Y870500I-980J-696D01*
G02X855798I-1202J0D01*
G02X856770Y871680I1202J0D01*
G03X857020Y872304I-76J393D01*
G37*
G36*
G01X905979Y878841D02*
G02X907169Y879871I1190J-172D01*
G02X908371Y878669I0J-1202D01*
G02X907515Y877518I-1202J0D01*
G03X907348Y876852I116J-383D01*
G02X907702Y876000I-848J-852D01*
G02X906550Y874799I-1202J0D01*
G03X906185Y874278I16J-400D01*
G02X906241Y873915I-1146J-363D01*
G02X903837I-1202J0D01*
G02X904989Y875116I1202J0D01*
G03X905354Y875637I-16J400D01*
G02X905298Y876000I1146J363D01*
G01Y876031D01*
G03X904829Y876435I-400J10D01*
G02X904619Y876417I-207J1184D01*
G02Y878821I0J1202D01*
G02X905343Y878579I1J-1202D01*
G03X905979Y878841I240J319D01*
G37*
G36*
G01X886961Y897299D02*
G02X885798Y898500I39J1201D01*
G02X888202I1202J0D01*
G02X888164Y898201I-1202J1D01*
G03X888539Y897701I387J-100D01*
G02X889702Y896500I-39J-1201D01*
G02X887298I-1202J0D01*
G02X887336Y896799I1202J-1D01*
G03X886961Y897299I-387J100D01*
G37*
G36*
G01X928550Y1010416D02*
G02X927500Y1009798I-1050J583D01*
G02Y1012202I0J1202D01*
G02X928550Y1011584I0J-1201D01*
G03X929250I350J195D01*
G02X930300Y1012202I1050J-583D01*
G02Y1009798I0J-1202D01*
G02X929250Y1010416I0J1201D01*
G03X928550I-350J-195D01*
G37*
G54D32*
X933000Y962000D03*
X920700Y953700D03*
G54D31*
X943400Y858600D03*
X884000Y897000D03*
X891803Y898697D03*
X888500Y1033000D03*
X894051Y854051D03*
X871000Y1023000D03*
X897500Y846500D03*
X880500Y864480D03*
X897000Y831000D03*
X905000Y829500D03*
X900434Y897000D03*
X910000Y834500D03*
X872745Y869745D03*
X909175Y843000D03*
X904500Y846500D03*
X873000Y879588D03*
X872292Y873154D03*
Y876179D03*
X870000Y896963D03*
X907500Y853027D03*
X894491Y897005D03*
X914000Y865000D03*
X862537Y1036537D03*
X870000Y871500D03*
X902000Y859500D03*
X894500Y857000D03*
X914000Y873000D03*
X901000Y1005000D03*
X923718Y840500D03*
X905000Y881979D03*
X905500Y896000D03*
X863500Y1023000D03*
X868331Y1030331D03*
X868335Y1054134D03*
X862500Y904500D03*
X895000Y903000D03*
X918000Y836000D03*
X892279Y926969D03*
X857500Y898000D03*
X883500Y862000D03*
X893000Y860008D03*
X858000Y877000D03*
X905500Y903500D03*
X870500Y864000D03*
X922000Y838000D03*
X861500Y870500D03*
X920500Y843000D03*
X885925Y863575D03*
X905500Y923500D03*
X878000Y863000D03*
X900500Y902000D03*
X918416Y876554D03*
X924000Y860000D03*
X912500Y842000D03*
X907661Y906766D03*
X876664Y1023164D03*
X868500Y960500D03*
X921664Y846664D03*
X922000Y852500D03*
X933500Y839500D03*
X887500Y1005000D03*
X867500Y1001500D03*
X890500Y1001000D03*
X866059Y971500D03*
X858500D03*
X884336Y1023164D03*
X904500Y852000D03*
X891500Y837000D03*
X864500Y857000D03*
X870500Y889000D03*
X890000Y910847D03*
X875500Y1001500D03*
X895321Y1003179D03*
X889000Y1025500D03*
X940500Y1061000D03*
X933000Y1066000D03*
X934251Y1055500D03*
X860000Y960500D03*
X859500Y883500D03*
X907000Y933500D03*
X897425Y907075D03*
X901065Y905940D03*
X894500Y907000D03*
X889973Y919848D03*
X902500Y923500D03*
X881300Y901000D03*
X924500Y835000D03*
X871583Y905443D03*
X884400Y911100D03*
X859900Y907186D03*
X858000Y979000D03*
X882000Y908500D03*
X905000Y1008000D03*
X933444Y908444D03*
X883000Y832500D03*
X913940Y904500D03*
X857500Y863000D03*
X913000Y928000D03*
X874500Y908500D03*
X859500Y903500D03*
X872500Y927000D03*
X859701Y851500D03*
X930963Y867037D03*
X888957Y937543D03*
X879500Y913500D03*
X915500Y934000D03*
X855826Y939000D03*
X884500Y926000D03*
X857000Y950500D03*
X882500Y928500D03*
X929560Y883940D03*
X930500Y915500D03*
X872000Y954000D03*
X941000Y862000D03*
X931000Y873000D03*
X863000Y917500D03*
X925500Y932000D03*
X881352Y948648D03*
X923500Y871000D03*
X861186Y920400D03*
X880426Y981926D03*
X935500Y923000D03*
X925810Y887310D03*
X869106Y971394D03*
X937000Y999000D03*
X933500Y881000D03*
X931500Y942500D03*
X887263Y985237D03*
X917500Y922500D03*
X902000Y866500D03*
X876980Y971480D03*
X923500Y867000D03*
X925594Y894594D03*
X922500Y942500D03*
X920000Y914000D03*
X882000Y1059500D03*
X898500Y995000D03*
X935500Y1033500D03*
X942000Y943500D03*
Y959500D03*
X911000Y878669D03*
X936000Y1025000D03*
X931000Y863000D03*
X877500Y997000D03*
X937000Y974000D03*
X894000Y978500D03*
X888843Y979157D03*
X888000Y1065000D03*
X937321Y880679D03*
X894649Y982851D03*
X923000Y909000D03*
X870408Y1039000D03*
X940000Y845000D03*
X923000Y900767D03*
X860500Y894896D03*
X938000Y1039500D03*
X921500Y1034500D03*
X886500Y844000D03*
X915500Y1039500D03*
X923474Y875500D03*
X877963Y1085500D03*
X880100Y854400D03*
G54D25*
X925064Y1102726D03*
G54D26*
X854788Y833508D03*
G54D27*
X947307Y1079571D03*
G54D28*
X854787Y817759D03*
X947307Y1095318D03*
G54D29*
X854788D03*
X947308Y817759D03*
G54D30*
X901048Y956539D03*
%LPD*%
G75*
G54D10*
X841402Y848270D03*
Y867955D03*
Y887640D03*
Y907325D03*
Y927010D03*
Y946695D03*
Y966381D03*
Y986066D03*
Y1005751D03*
Y1025436D03*
Y1045121D03*
X960694Y867956D03*
Y887641D03*
Y907326D03*
Y927011D03*
Y946696D03*
Y966382D03*
Y986067D03*
Y1005752D03*
Y1025437D03*
Y1045122D03*
Y1064807D03*
G54D20*
X913253Y1073986D03*
X921520D03*
G54D11*
X835000Y845300D03*
X834900Y870000D03*
Y859500D03*
X834800Y879600D03*
Y899600D03*
Y889100D03*
X835000Y919300D03*
Y910300D03*
Y929800D03*
Y949800D03*
Y939800D03*
Y957800D03*
Y978200D03*
Y969700D03*
X835100Y997800D03*
X835000Y989700D03*
X835100Y1016800D03*
Y1007800D03*
Y1027800D03*
X835200Y1046200D03*
Y1038200D03*
Y1063200D03*
Y1055200D03*
X841000Y838500D03*
X850500Y838000D03*
X839180Y854260D03*
X843920Y842610D03*
X852200Y851800D03*
X839230Y862610D03*
X850700Y860400D03*
X838540Y882270D03*
Y873270D03*
X849100Y872400D03*
X838700Y902280D03*
X839200Y893280D03*
X839230Y914200D03*
X850400Y907500D03*
X839200Y932600D03*
X839230Y921200D03*
X849900Y922300D03*
X851300Y933100D03*
X839200Y941100D03*
X839220Y959790D03*
X839720Y952790D03*
X850900Y954000D03*
X851100Y963000D03*
X839000Y979580D03*
X839500Y973080D03*
X849000Y975500D03*
Y981700D03*
X839030Y999660D03*
Y995160D03*
X842720Y992790D03*
X851500Y1012000D03*
X853500D03*
Y1010000D03*
X851500D03*
X844770Y1014870D03*
X838780Y1012590D03*
X848500Y1075000D03*
X842500Y1071500D03*
X867500Y802000D03*
X863000Y838000D03*
X868500Y833000D03*
X859701Y851500D03*
X865000Y852000D03*
X865500Y845500D03*
X870500Y864000D03*
X864500Y857000D03*
X870000Y871500D03*
X857000Y870500D03*
X862500Y866000D03*
X868000Y862000D03*
X862000Y855500D03*
X857500Y863000D03*
X861500Y870500D03*
X858000Y873000D03*
Y877000D03*
X870500Y882000D03*
Y884000D03*
X859500Y883500D03*
X863000Y885000D03*
X861906Y886594D03*
X859500Y903500D03*
X860500Y894896D03*
X870500Y889000D03*
X857500Y898000D03*
X870000Y896963D03*
X864000Y899000D03*
X862500Y904500D03*
X863000Y917500D03*
X859900Y907186D03*
X861186Y920400D03*
X871583Y905443D03*
X862000Y909200D03*
X865600Y932700D03*
X863500Y932500D03*
Y934500D03*
X863331Y929331D03*
X862000Y936000D03*
X855826Y939000D03*
X857000Y950500D03*
X863000Y949000D03*
X868500Y960500D03*
X872000Y954000D03*
X860000Y960500D03*
X862500Y964500D03*
X865000Y960500D03*
X866059Y971500D03*
X858500D03*
X869106Y971394D03*
X858000Y979000D03*
Y989000D03*
X856000D03*
Y987000D03*
X858000D03*
X867500Y1001500D03*
X864000D03*
X859000Y1003500D03*
X861461Y1003265D03*
X859000Y1008500D03*
X864000Y1003500D03*
X862500Y1028500D03*
X863038Y1032473D03*
X871000Y1023000D03*
X868331Y1030331D03*
X863500Y1023000D03*
X862537Y1036537D03*
X862500Y1041500D03*
X870408Y1039000D03*
X868335Y1054134D03*
X862500Y1059500D03*
X860500D03*
Y1057500D03*
X862500D03*
X862000Y1067000D03*
X865500Y1069500D03*
X863000D03*
X862500Y1071500D03*
X864500D03*
X862000Y1075000D03*
X860500Y1076000D03*
X859500Y1074500D03*
X868500Y1111500D03*
X874500Y802500D03*
X877000Y813500D03*
X879000Y807000D03*
X886000Y832500D03*
X883000D03*
X886500Y828500D03*
X884500D03*
X882500D03*
X875000Y827500D03*
X880100Y854400D03*
X886500Y844000D03*
X882500Y852000D03*
X880000Y851300D03*
X879300Y849500D03*
X885925Y863575D03*
X883500Y862000D03*
X876527Y855500D03*
X872500Y861500D03*
X872745Y869745D03*
X880500Y864480D03*
X878000Y863000D03*
X872292Y876179D03*
X873000Y879588D03*
X872292Y873154D03*
X884500Y885500D03*
X885000Y877000D03*
X880321D03*
X884500Y872000D03*
X880000Y885500D03*
X884000Y897000D03*
X887000Y898500D03*
X884000Y901000D03*
X876000Y896000D03*
Y902000D03*
X881300Y901000D03*
X884400Y911100D03*
X879500Y913500D03*
X874500Y908500D03*
X881700Y904500D03*
X882000Y908500D03*
X872500Y927000D03*
X883500Y922500D03*
X887000Y928500D03*
X882500D03*
X884500Y926000D03*
X876500Y927300D03*
X879000Y927500D03*
X878000Y925500D03*
X881352Y948648D03*
X876980Y971480D03*
X887263Y985237D03*
X880426Y981926D03*
X877500Y997000D03*
X875500Y1001500D03*
X877000Y992500D03*
X879500Y993000D03*
X886000D03*
Y989000D03*
X877000Y1016000D03*
X881000D03*
X871500Y1007000D03*
X879000Y1027500D03*
X881000Y1028500D03*
X885500Y1025000D03*
X884336Y1023164D03*
X876664D03*
X887200Y1037500D03*
X887100Y1039400D03*
Y1041400D03*
Y1043200D03*
X873500Y1038500D03*
Y1043000D03*
Y1046000D03*
X881500Y1066000D03*
X884500D03*
X877000Y1058500D03*
X882000Y1059500D03*
X881500Y1068000D03*
X884500D03*
X883000Y1082000D03*
Y1074500D03*
X884000Y1091000D03*
X875500Y1094000D03*
X877963Y1085500D03*
X880500Y1111500D03*
X876500Y1105000D03*
X890000Y805500D03*
X901000D03*
X887500Y814000D03*
X901000Y812000D03*
X900000Y829500D03*
X888000Y832500D03*
X895185Y835815D03*
X888500Y828000D03*
X891500Y837000D03*
X902000Y831000D03*
X897000D03*
X904500Y846500D03*
X897500D03*
X894000Y849000D03*
X892000Y850000D03*
X892500Y847500D03*
X894500Y846000D03*
X894051Y854051D03*
X899600Y861600D03*
X897500Y862500D03*
X887894Y864606D03*
X893000Y860008D03*
X894500Y857000D03*
X902000Y859500D03*
X899400Y863900D03*
X902000Y866500D03*
X888878Y880572D03*
X893500Y880500D03*
X889000Y885500D03*
X893500D03*
X890500Y876500D03*
X896000D03*
X897500Y885500D03*
X895000Y903000D03*
X900434Y897000D03*
X900500Y902000D03*
X888500Y896500D03*
X894491Y897005D03*
X891803Y898697D03*
X901065Y905940D03*
X900066Y914077D03*
X896500Y917000D03*
X896491Y914009D03*
X900000Y917000D03*
X887600Y906953D03*
X892500Y913500D03*
X897425Y907075D03*
X894500Y907000D03*
X889973Y919848D03*
X890000Y910847D03*
X902500Y923500D03*
X895000Y923000D03*
X892549Y932451D03*
X889000Y934500D03*
X896500Y935500D03*
X892279Y926969D03*
X891500Y940000D03*
X888957Y937543D03*
X894000Y978500D03*
X898000Y983500D03*
X896500Y978500D03*
X902000Y975000D03*
X888843Y979157D03*
X894649Y982851D03*
X895000Y992000D03*
X897000Y989500D03*
X895000Y987000D03*
X898500Y995000D03*
X890500Y1001000D03*
X895321Y1003179D03*
X887500Y1005000D03*
X901000D03*
X888500Y1033000D03*
X889000Y1025500D03*
X902500Y1047500D03*
X900000Y1060000D03*
X903000Y1060264D03*
X902500Y1056000D03*
X888000Y1065000D03*
X893000Y1091500D03*
X891500Y1099000D03*
X893000Y1111500D03*
X898500Y1106000D03*
X913500Y805500D03*
X919000Y813500D03*
X912000Y812000D03*
X918000Y836000D03*
X905000Y829500D03*
X910500Y830000D03*
X912500Y830500D03*
X906000Y836000D03*
X916000Y828000D03*
Y830500D03*
X918000D03*
Y828000D03*
X910000Y834500D03*
X920500Y843000D03*
X904500Y852000D03*
X907000Y845000D03*
X914500Y851641D03*
X907500Y853027D03*
X909175Y843000D03*
X912500Y842000D03*
X914000Y865000D03*
X919000D03*
X916000Y859500D03*
X911500D03*
X907500Y860000D03*
X904993Y885493D03*
X905962Y887462D03*
X914000Y873000D03*
X919500Y871500D03*
X918416Y876554D03*
X904619Y877619D03*
X907169Y878669D03*
X911000D03*
X905000Y881979D03*
X906500Y876000D03*
X905039Y873915D03*
X905000Y889430D03*
X905500Y896000D03*
Y903500D03*
X913940Y904500D03*
X907500Y917000D03*
Y914000D03*
X904500Y917000D03*
Y914000D03*
X913500Y919500D03*
X920000Y914000D03*
X907661Y906766D03*
X917500Y922500D03*
X906000Y926545D03*
X909424Y927000D03*
X915500Y934000D03*
X913000Y928000D03*
X905500Y923500D03*
X907000Y933500D03*
X911500Y939500D03*
X906000Y939000D03*
X909500Y974500D03*
X913000Y972500D03*
X918500Y974500D03*
X905000Y1008000D03*
X917500Y1049500D03*
X919500D03*
X917500Y1047500D03*
X919500D03*
X915500Y1039500D03*
X915000Y1065000D03*
X912500Y1060000D03*
X919000Y1059500D03*
X913000Y1056000D03*
X904000Y1091500D03*
X912500D03*
X919000Y1111500D03*
X906500D03*
X919000Y1100500D03*
X909000D03*
X932000Y804000D03*
X927500Y814000D03*
X922000Y827000D03*
X928500Y829000D03*
X924500Y835000D03*
X922000Y838000D03*
X935500Y829500D03*
X928000Y824000D03*
X933500Y839500D03*
X921664Y846664D03*
X923718Y840500D03*
X922000Y852500D03*
X931000Y863000D03*
X930963Y867037D03*
X935500Y869000D03*
X924000Y860000D03*
X923500Y867000D03*
Y871000D03*
X931000Y873000D03*
X929560Y883940D03*
X925810Y887310D03*
X923474Y875500D03*
X933500Y881000D03*
X925594Y894594D03*
X923000Y900767D03*
X930500Y915500D03*
X933444Y908444D03*
X923000Y909000D03*
X935500Y923000D03*
X925500Y932000D03*
X923500Y934000D03*
X922500Y942500D03*
X931500D03*
X937000Y974000D03*
X922500Y980000D03*
X937000Y999000D03*
X923000Y989000D03*
X921000D03*
Y991000D03*
X923000D03*
X927500Y1011000D03*
X930300D03*
X936000Y1025000D03*
X935500Y1033500D03*
X921500Y1034500D03*
X924000Y1026000D03*
X922037Y1041537D03*
X927500Y1041500D03*
X924356Y1042856D03*
X933000Y1066000D03*
X928314Y1065686D03*
X936303Y1065697D03*
X926000Y1056500D03*
X925500Y1060000D03*
X927000Y1058500D03*
X934251Y1055500D03*
X928000Y1078500D03*
X933500Y1073500D03*
Y1079000D03*
X922500Y1092000D03*
X927500Y1085500D03*
X928000Y1111500D03*
X948500Y803000D03*
X936500Y836000D03*
X942500Y838000D03*
X944500Y833500D03*
X940000Y845000D03*
X941000Y862000D03*
X943400Y858600D03*
X937321Y880679D03*
X947500Y901900D03*
X948000Y894900D03*
X938000Y898000D03*
X948200Y915300D03*
X947500Y931200D03*
X947600Y920800D03*
X947000Y942300D03*
X947100Y937300D03*
X938500Y949500D03*
X938000Y940000D03*
X942000Y943500D03*
Y959500D03*
X947700Y962400D03*
X947900Y954000D03*
X937500Y963000D03*
X938000Y954500D03*
X949200Y976000D03*
X947100Y970600D03*
X942900Y1000300D03*
X950200Y989300D03*
X944500Y986500D03*
X948900Y1010200D03*
Y1029400D03*
Y1021300D03*
X946000Y1050500D03*
X948000D03*
X938000Y1039500D03*
X951900Y1044200D03*
X949300Y1038100D03*
X946000Y1052500D03*
X948000D03*
X940500Y1061000D03*
X938500Y1076000D03*
X945500D03*
X937000Y1112000D03*
X962000Y815000D03*
X958000Y834500D03*
X961000Y825500D03*
X955000Y841000D03*
X967100Y851200D03*
Y847200D03*
X962900Y839500D03*
X967100Y861200D03*
X967200Y882200D03*
X967100Y871700D03*
X967200Y903700D03*
Y892700D03*
X967100Y912500D03*
Y933500D03*
Y924000D03*
Y952500D03*
Y944000D03*
X967000Y961300D03*
Y980800D03*
Y970800D03*
Y991300D03*
X967300Y1014500D03*
X967000Y1002800D03*
X967300Y1031500D03*
Y1021000D03*
X967200Y1047400D03*
Y1039900D03*
Y1063400D03*
Y1054900D03*
X953500Y1076000D03*
X960000D03*
X966500Y1069500D03*
G54D12*
X841402Y1064806D03*
X960694Y848271D03*
G54D21*
X920700Y953700D03*
X933000Y962000D03*
G54D22*
G01X841402Y981133D02*
Y986066D01*
G01Y1000818D02*
Y1005751D01*
G01Y986066D02*
Y990999D01*
G01Y986066D02*
X846335D01*
G01X841402Y1005751D02*
Y1010684D01*
G01Y1005751D02*
X846335D01*
G01X844343Y1095318D02*
X854788D01*
G01Y1084873D02*
Y1095318D01*
G01D02*
Y1105763D01*
G01Y1095318D02*
X865233D01*
G01X884121Y805699D02*
Y810632D01*
G01X881157Y805699D02*
X884121D01*
G01D02*
X887085D01*
G01X884121Y817302D02*
Y822235D01*
G01X881157D02*
X884121D01*
G01X886481Y1102726D02*
Y1108840D01*
G01X883320Y1102726D02*
X886481D01*
G01D02*
X889642D01*
G01X917979Y805699D02*
Y810632D01*
G01X915015Y805699D02*
X917979D01*
G01D02*
X920943D01*
G01X917979Y817302D02*
Y822235D01*
G01D02*
X920943D01*
G01X918359Y1073986D02*
X921520D01*
G01Y1068462D02*
Y1073986D01*
G01D02*
Y1079510D01*
G01Y1073986D02*
X924681D01*
G01X925064Y1096612D02*
Y1102726D01*
G01D02*
Y1108840D01*
G01X921903Y1102726D02*
X925064D01*
G01D02*
X928225D01*
G01X947308Y807314D02*
Y817759D01*
G01D02*
Y828204D01*
G01X936863Y817759D02*
X947308D01*
G01D02*
X957753D01*
G01X960694Y922078D02*
Y927011D01*
G01D02*
Y931944D01*
G01X955761Y927011D02*
X960694D01*
G54D13*
X854787Y817759D03*
X947307Y1095318D03*
G54D23*
G01X836087Y810870D02*
G03X847898Y799059I11811J0D01*
G01X836087Y826637D02*
Y810870D01*
G01X839631Y833213D02*
G02X837859Y829925I-3937J0D01*
G01D02*
G03X836087Y826637I2165J-3288D01*
G01X832150Y1067507D02*
Y845571D01*
G01D02*
G03X833303Y842787I3937J0D01*
G01D02*
X838478Y837613D01*
G01Y1075465D02*
X833303Y1070290D01*
G01D02*
G03X832150Y1067507I2783J-2783D01*
G01X836087Y1102208D02*
Y1086440D01*
G01D02*
G03X837859Y1083152I3937J0D01*
G01D02*
G02X839631Y1079864I-2165J-3288D01*
G01X847898Y1114019D02*
G03X836087Y1102208I0J-11811D01*
G01X847898Y799059D02*
X954198D01*
G01X857051Y833508D02*
G03I-2263J0D01*
G01X838478Y837613D02*
G02X839631Y834829I-2784J-2784D01*
G01D02*
Y833213D01*
G01Y1079864D02*
Y1078248D01*
G01D02*
G02X838478Y1075465I-3936J0D01*
G01X954198Y1114019D02*
X847898D01*
G01X949571Y1079571D02*
G03I-2264J0D01*
G01X954198Y799059D02*
G03X966009Y810870I0J11811D01*
G01D02*
Y826637D01*
G01D02*
G03X964237Y829925I-3937J0D01*
G01D02*
G02X962465Y833213I2165J3288D01*
G01D02*
Y834829D01*
G01D02*
G02X963618Y837613I3937J0D01*
G01D02*
X968792Y842787D01*
G01X963618Y1075465D02*
G02X962465Y1078248I2783J2783D01*
G01D02*
Y1079864D01*
G01D02*
G02X964237Y1083152I3937J0D01*
G01X968792Y1070290D02*
X963618Y1075465D01*
G01X964237Y1083152D02*
G03X966009Y1086440I-2165J3288D01*
G01D02*
Y1102208D01*
G01D02*
G03X954198Y1114019I-11811J0D01*
G01X968792Y842787D02*
G03X969946Y845571I-2784J2785D01*
G01D02*
Y1067507D01*
G01D02*
G03X968792Y1070290I-3936J-2D01*
G54D14*
X854788Y1095318D03*
X947308Y817759D03*
G54D24*
G01X917048Y956539D02*
G03I-16000J0D01*
G54D15*
X884121Y805699D03*
Y822235D03*
X917979Y805699D03*
Y822235D03*
G54D16*
X886481Y1102726D03*
X925064D03*
G54D17*
X889672Y820069D03*
X912428D03*
G54D18*
X901048Y1070246D03*
G54D19*
Y1098789D03*
M02*
