G04 ================== begin FILE IDENTIFICATION RECORD ==================*
G04 Layout Name:  G:/huangwei/complete/202012/Santa Cruz IoT/Santa Cruz IoT v0.7.brd*
G04 Film Name:    L6_bottom*
G04 File Format:  Gerber RS274X*
G04 File Origin:  Cadence Allegro 17.2-061*
G04 Origin Date:  Tue Dec 22 10:05:33 2020*
G04 *
G04 Layer:  VIA CLASS/BOTTOM*
G04 Layer:  PIN/BOTTOM*
G04 Layer:  ETCH/BOTTOM*
G04 Layer:  BOARD GEOMETRY/OUTLINE*
G04 *
G04 Offset:    (0.00 0.00)*
G04 Mirror:    No*
G04 Mode:      Positive*
G04 Rotation:  0*
G04 FullContactRelief:  No*
G04 UndefLineWidth:     6.00*
G04 ================== end FILE IDENTIFICATION RECORD ====================*
%FSLAX25Y25*MOIN*%
%IR0*IPPOS*OFA0.00000B0.00000*MIA0B0*SFA1.00000B1.00000*%
%AMMACRO23*
4,1,44,-.03149,-.01574,
-.03149,.01574,
-.031436,.016424,
-.031259,.017088,
-.03097,.017711,
-.030576,.018274,
-.030091,.01876,
-.029529,.019155,
-.028907,.019446,
-.028244,.019624,
-.02756,.019685,
-.02755,.01968,
.02755,.01968,
.028234,.019626,
.028898,.019449,
.029521,.01916,
.030084,.018766,
.03057,.018281,
.030965,.017719,
.031256,.017097,
.031434,.016434,
.031495,.01575,
.03149,.01574,
.03149,-.01574,
.031436,-.016424,
.031259,-.017088,
.03097,-.017711,
.030576,-.018274,
.030091,-.01876,
.029529,-.019155,
.028907,-.019446,
.028244,-.019624,
.02756,-.019685,
.02755,-.01968,
-.02755,-.01968,
-.028234,-.019626,
-.028898,-.019449,
-.029521,-.01916,
-.030084,-.018766,
-.03057,-.018281,
-.030965,-.017719,
-.031256,-.017097,
-.031434,-.016434,
-.031495,-.01575,
-.03149,-.01574,
0.0*
%
%ADD23MACRO23*%
%AMMACRO29*
4,1,44,-.00984,-.00787,
-.00984,.00787,
-.009816,.008212,
-.009728,.008544,
-.009584,.008856,
-.009387,.009137,
-.009145,.009381,
-.008864,.009579,
-.008553,.009724,
-.008222,.009814,
-.00788,.009845,
-.00787,.00984,
.00787,.00984,
.008212,.009816,
.008544,.009728,
.008856,.009584,
.009137,.009387,
.009381,.009145,
.009579,.008864,
.009724,.008553,
.009814,.008222,
.009845,.00788,
.00984,.00787,
.00984,-.00787,
.009816,-.008212,
.009728,-.008544,
.009584,-.008856,
.009387,-.009137,
.009145,-.009381,
.008864,-.009579,
.008553,-.009724,
.008222,-.009814,
.00788,-.009845,
.00787,-.00984,
-.00787,-.00984,
-.008212,-.009816,
-.008544,-.009728,
-.008856,-.009584,
-.009137,-.009387,
-.009381,-.009145,
-.009579,-.008864,
-.009724,-.008553,
-.009814,-.008222,
-.009845,-.00788,
-.00984,-.00787,
0.0*
%
%ADD29MACRO29*%
%AMMACRO15*
4,1,44,-.00787,.00984,
.00787,.00984,
.008212,.009816,
.008544,.009728,
.008856,.009584,
.009137,.009387,
.009381,.009145,
.009579,.008864,
.009724,.008553,
.009814,.008222,
.009845,.00788,
.00984,.00787,
.00984,-.00787,
.009816,-.008212,
.009728,-.008544,
.009584,-.008856,
.009387,-.009137,
.009145,-.009381,
.008864,-.009579,
.008553,-.009724,
.008222,-.009814,
.00788,-.009845,
.00787,-.00984,
-.00787,-.00984,
-.008212,-.009816,
-.008544,-.009728,
-.008856,-.009584,
-.009137,-.009387,
-.009381,-.009145,
-.009579,-.008864,
-.009724,-.008553,
-.009814,-.008222,
-.009845,-.00788,
-.00984,-.00787,
-.00984,.00787,
-.009816,.008212,
-.009728,.008544,
-.009584,.008856,
-.009387,.009137,
-.009145,.009381,
-.008864,.009579,
-.008553,.009724,
-.008222,.009814,
-.00788,.009845,
-.00787,.00984,
0.0*
%
%ADD15MACRO15*%
%AMMACRO30*
4,1,40,.015,.00856,
.015,-.00856,
.01494,-.009244,
.014762,-.009908,
.014472,-.01053,
.014078,-.011093,
.013593,-.011578,
.01303,-.011972,
.012408,-.012262,
.011744,-.01244,
.01106,-.0125,
-.01106,-.0125,
-.011744,-.01244,
-.012408,-.012262,
-.01303,-.011972,
-.013593,-.011578,
-.014078,-.011093,
-.014472,-.01053,
-.014762,-.009908,
-.01494,-.009244,
-.015,-.00856,
-.015,.00856,
-.01494,.009244,
-.014762,.009908,
-.014472,.01053,
-.014078,.011093,
-.013593,.011578,
-.01303,.011972,
-.012408,.012262,
-.011744,.01244,
-.01106,.0125,
.01106,.0125,
.011744,.01244,
.012408,.012262,
.01303,.011972,
.013593,.011578,
.014078,.011093,
.014472,.01053,
.014762,.009908,
.01494,.009244,
.015,.00856,
0.0*
%
%ADD30MACRO30*%
%ADD16C,.03*%
%ADD37C,.04*%
%ADD39C,.024*%
%ADD32O,.05118X.11024*%
%AMMACRO18*
4,1,40,.0225,.01606,
.0225,-.01606,
.02244,-.016744,
.022262,-.017408,
.021972,-.01803,
.021578,-.018593,
.021093,-.019078,
.02053,-.019472,
.019908,-.019762,
.019244,-.01994,
.01856,-.02,
-.01856,-.02,
-.019244,-.01994,
-.019908,-.019762,
-.02053,-.019472,
-.021093,-.019078,
-.021578,-.018593,
-.021972,-.01803,
-.022262,-.017408,
-.02244,-.016744,
-.0225,-.01606,
-.0225,.01606,
-.02244,.016744,
-.022262,.017408,
-.021972,.01803,
-.021578,.018593,
-.021093,.019078,
-.02053,.019472,
-.019908,.019762,
-.019244,.01994,
-.01856,.02,
.01856,.02,
.019244,.01994,
.019908,.019762,
.02053,.019472,
.021093,.019078,
.021578,.018593,
.021972,.01803,
.022262,.017408,
.02244,.016744,
.0225,.01606,
0.0*
%
%ADD18MACRO18*%
%ADD11C,.016*%
%ADD33C,.02362*%
%AMMACRO40*
4,1,40,.03213,-.045,
-.03213,-.045,
-.033497,-.04488,
-.034822,-.044525,
-.036065,-.043946,
-.037189,-.043159,
-.038159,-.042189,
-.038946,-.041065,
-.039525,-.039822,
-.03988,-.038497,
-.04,-.03713,
-.04,.03713,
-.03988,.038497,
-.039525,.039822,
-.038946,.041065,
-.038159,.042189,
-.037189,.043159,
-.036065,.043946,
-.034822,.044525,
-.033497,.04488,
-.03213,.045,
.03213,.045,
.033497,.04488,
.034822,.044525,
.036065,.043946,
.037189,.043159,
.038159,.042189,
.038946,.041065,
.039525,.039822,
.03988,.038497,
.04,.03713,
.04,-.03713,
.03988,-.038497,
.039525,-.039822,
.038946,-.041065,
.038159,-.042189,
.037189,-.043159,
.036065,-.043946,
.034822,-.044525,
.033497,-.04488,
.03213,-.045,
0.0*
%
%ADD40MACRO40*%
%ADD10C,.08661*%
%ADD36C,.09843*%
%ADD12R,.08661X.08661*%
%ADD34P,.002176X8X22.5*%
%AMMACRO28*
4,1,44,.00984,.00787,
.00984,-.00787,
.009816,-.008212,
.009728,-.008544,
.009584,-.008856,
.009387,-.009137,
.009145,-.009381,
.008864,-.009579,
.008553,-.009724,
.008222,-.009814,
.00788,-.009845,
.00787,-.00984,
-.00787,-.00984,
-.008212,-.009816,
-.008544,-.009728,
-.008856,-.009584,
-.009137,-.009387,
-.009381,-.009145,
-.009579,-.008864,
-.009724,-.008553,
-.009814,-.008222,
-.009845,-.00788,
-.00984,-.00787,
-.00984,.00787,
-.009816,.008212,
-.009728,.008544,
-.009584,.008856,
-.009387,.009137,
-.009145,.009381,
-.008864,.009579,
-.008553,.009724,
-.008222,.009814,
-.00788,.009845,
-.00787,.00984,
.00787,.00984,
.008212,.009816,
.008544,.009728,
.008856,.009584,
.009137,.009387,
.009381,.009145,
.009579,.008864,
.009724,.008553,
.009814,.008222,
.009845,.00788,
.00984,.00787,
0.0*
%
%ADD28MACRO28*%
%AMMACRO19*
4,1,44,.00787,-.00984,
-.00787,-.00984,
-.008212,-.009816,
-.008544,-.009728,
-.008856,-.009584,
-.009137,-.009387,
-.009381,-.009145,
-.009579,-.008864,
-.009724,-.008553,
-.009814,-.008222,
-.009845,-.00788,
-.00984,-.00787,
-.00984,.00787,
-.009816,.008212,
-.009728,.008544,
-.009584,.008856,
-.009387,.009137,
-.009145,.009381,
-.008864,.009579,
-.008553,.009724,
-.008222,.009814,
-.00788,.009845,
-.00787,.00984,
.00787,.00984,
.008212,.009816,
.008544,.009728,
.008856,.009584,
.009137,.009387,
.009381,.009145,
.009579,.008864,
.009724,.008553,
.009814,.008222,
.009845,.00788,
.00984,.00787,
.00984,-.00787,
.009816,-.008212,
.009728,-.008544,
.009584,-.008856,
.009387,-.009137,
.009145,-.009381,
.008864,-.009579,
.008553,-.009724,
.008222,-.009814,
.00788,-.009845,
.00787,-.00984,
0.0*
%
%ADD19MACRO19*%
%ADD20R,.012X.0374*%
%ADD13C,.125*%
%ADD17R,.0374X.012*%
%ADD26R,.064X.055*%
%AMMACRO22*
4,1,40,-.0275,-.01606,
-.0275,.01606,
-.02744,.016744,
-.027262,.017408,
-.026972,.01803,
-.026578,.018593,
-.026093,.019078,
-.02553,.019472,
-.024908,.019762,
-.024244,.01994,
-.02356,.02,
.02356,.02,
.024244,.01994,
.024908,.019762,
.02553,.019472,
.026093,.019078,
.026578,.018593,
.026972,.01803,
.027262,.017408,
.02744,.016744,
.0275,.01606,
.0275,-.01606,
.02744,-.016744,
.027262,-.017408,
.026972,-.01803,
.026578,-.018593,
.026093,-.019078,
.02553,-.019472,
.024908,-.019762,
.024244,-.01994,
.02356,-.02,
-.02356,-.02,
-.024244,-.01994,
-.024908,-.019762,
-.02553,-.019472,
-.026093,-.019078,
-.026578,-.018593,
-.026972,-.01803,
-.027262,-.017408,
-.02744,-.016744,
-.0275,-.01606,
0.0*
%
%ADD22MACRO22*%
%AMMACRO21*
4,1,40,-.01606,.0225,
.01606,.0225,
.016744,.02244,
.017408,.022262,
.01803,.021972,
.018593,.021578,
.019078,.021093,
.019472,.02053,
.019762,.019908,
.01994,.019244,
.02,.01856,
.02,-.01856,
.01994,-.019244,
.019762,-.019908,
.019472,-.02053,
.019078,-.021093,
.018593,-.021578,
.01803,-.021972,
.017408,-.022262,
.016744,-.02244,
.01606,-.0225,
-.01606,-.0225,
-.016744,-.02244,
-.017408,-.022262,
-.01803,-.021972,
-.018593,-.021578,
-.019078,-.021093,
-.019472,-.02053,
-.019762,-.019908,
-.01994,-.019244,
-.02,-.01856,
-.02,.01856,
-.01994,.019244,
-.019762,.019908,
-.019472,.02053,
-.019078,.021093,
-.018593,.021578,
-.01803,.021972,
-.017408,.022262,
-.016744,.02244,
-.01606,.0225,
0.0*
%
%ADD21MACRO21*%
%AMMACRO31*
4,1,40,-.01606,.0275,
.01606,.0275,
.016744,.02744,
.017408,.027262,
.01803,.026972,
.018593,.026578,
.019078,.026093,
.019472,.02553,
.019762,.024908,
.01994,.024244,
.02,.02356,
.02,-.02356,
.01994,-.024244,
.019762,-.024908,
.019472,-.02553,
.019078,-.026093,
.018593,-.026578,
.01803,-.026972,
.017408,-.027262,
.016744,-.02744,
.01606,-.0275,
-.01606,-.0275,
-.016744,-.02744,
-.017408,-.027262,
-.01803,-.026972,
-.018593,-.026578,
-.019078,-.026093,
-.019472,-.02553,
-.019762,-.024908,
-.01994,-.024244,
-.02,-.02356,
-.02,.02356,
-.01994,.024244,
-.019762,.024908,
-.019472,.02553,
-.019078,.026093,
-.018593,.026578,
-.01803,.026972,
-.017408,.027262,
-.016744,.02744,
-.01606,.0275,
0.0*
%
%ADD31MACRO31*%
%AMMACRO25*
4,1,40,-.03213,.045,
.03213,.045,
.033497,.04488,
.034822,.044525,
.036065,.043946,
.037189,.043159,
.038159,.042189,
.038946,.041065,
.039525,.039822,
.03988,.038497,
.04,.03713,
.04,-.03713,
.03988,-.038497,
.039525,-.039822,
.038946,-.041065,
.038159,-.042189,
.037189,-.043159,
.036065,-.043946,
.034822,-.044525,
.033497,-.04488,
.03213,-.045,
-.03213,-.045,
-.033497,-.04488,
-.034822,-.044525,
-.036065,-.043946,
-.037189,-.043159,
-.038159,-.042189,
-.038946,-.041065,
-.039525,-.039822,
-.03988,-.038497,
-.04,-.03713,
-.04,.03713,
-.03988,.038497,
-.039525,.039822,
-.038946,.041065,
-.038159,.042189,
-.037189,.043159,
-.036065,.043946,
-.034822,.044525,
-.033497,.04488,
-.03213,.045,
0.0*
%
%ADD25MACRO25*%
%AMMACRO24*
4,1,44,-.00393,.01181,
.00393,.01181,
.004272,.011781,
.004604,.011693,
.004916,.011549,
.005197,.011352,
.005441,.01111,
.005639,.010829,
.005784,.010518,
.005874,.010187,
.005905,.009845,
.0059,.00984,
.0059,-.00984,
.005875,-.010182,
.005786,-.010514,
.005641,-.010825,
.005444,-.011106,
.005201,-.011349,
.00492,-.011546,
.004609,-.011691,
.004277,-.01178,
.003935,-.01181,
.00393,-.01181,
-.00393,-.01181,
-.004272,-.011781,
-.004604,-.011693,
-.004916,-.011549,
-.005197,-.011352,
-.005441,-.01111,
-.005639,-.010829,
-.005784,-.010518,
-.005874,-.010187,
-.005905,-.009845,
-.0059,-.00984,
-.0059,.00984,
-.005875,.010182,
-.005786,.010514,
-.005641,.010825,
-.005444,.011106,
-.005201,.011349,
-.00492,.011546,
-.004609,.011691,
-.004277,.01178,
-.003935,.01181,
-.00393,.01181,
0.0*
%
%ADD24MACRO24*%
%ADD27O,.04724X.08661*%
%ADD38O,.05118X.09843*%
%ADD35O,.09843X.05118*%
%ADD14C,.19685*%
%ADD41C,.01*%
%ADD42C,.02*%
%ADD43C,.012*%
%ADD44C,.015*%
%ADD45C,.01475*%
%ADD46C,.005*%
%ADD47C,.0045*%
%ADD48C,.00475*%
%ADD50C,.02404*%
%ADD49C,.03804*%
%ADD52O,.0592X.11826*%
%ADD53C,.20488*%
%ADD51C,.34836*%
G75*
%LPD*%
G75*
G36*
G01X835300Y1070720D02*
X835720Y1071133D01*
G02X836400Y1070847I280J-286D01*
G01Y845100D01*
X842000Y839500D01*
X863500D01*
X869500Y833500D01*
X873500D01*
X881618Y825382D01*
X881567Y825259D01*
G03X881358Y824204I2554J-1054D01*
G01Y820266D01*
G03X881614Y819104I2763J0D01*
G01Y808830D01*
G03X881358Y807668I2507J-1162D01*
G01Y803730D01*
G03X881614Y802568I2763J0D01*
G01Y800114D01*
X881560Y800060D01*
X874440D01*
X874000Y800500D01*
X862684D01*
G02X862514Y801262I0J400D01*
G03X873004Y817759I-7727J16497D01*
G03X856799Y835864I-18216J0D01*
G03X854788Y836606I-2012J-2356D01*
G03X852777Y835864I1J-3098D01*
G03X838263Y825424I2011J-18105D01*
G02X837500Y825593I-363J168D01*
G01Y827460D01*
X839430Y829280D01*
X840430Y831140D01*
X840820Y832690D01*
X841050Y834150D01*
X840560Y836640D01*
X839980Y837770D01*
X838190Y839470D01*
X837500Y840200D01*
X832500Y845200D01*
Y1067530D01*
X834040Y1069440D01*
X835300Y1070720D01*
G37*
G36*
G01X905769Y1095498D02*
X913085D01*
X927602Y1080982D01*
G02X927437Y1080317I-283J-283D01*
G03X926098Y1078500I563J-1817D01*
G03X928000Y1076598I1902J0D01*
G03X929817Y1077937I0J1902D01*
G02X930482Y1078102I382J-118D01*
G01X932746Y1075838D01*
G02X932643Y1075198I-283J-283D01*
G03X931598Y1073500I857J-1698D01*
G03X935402I1902J0D01*
G03X935400Y1073581I-1902J-6D01*
G02X935799Y1073998I400J17D01*
G01X939099D01*
G02X939479Y1073474I0J-400D01*
G03X939384Y1072881I1807J-594D01*
G03X940034Y1071449I1902J0D01*
G01Y1068451D01*
X936998Y1065415D01*
Y1055682D01*
G03X936498Y1054713I689J-969D01*
G01Y1047287D01*
G03X937687Y1046098I1189J0D01*
G01X940985D01*
X941085Y1045998D01*
X950915D01*
X964316Y1059399D01*
G02X964998Y1059117I282J-283D01*
G01Y1048452D01*
G02X964294Y1048193I-400J1D01*
G03X960694Y1049854I-3600J-3071D01*
G03Y1040390I0J-4732D01*
G03X964294Y1042051I0J4732D01*
G02X964998Y1041792I304J-260D01*
G01Y1028767D01*
G02X964294Y1028508I-400J1D01*
G03X960694Y1030169I-3600J-3071D01*
G03Y1020705I0J-4732D01*
G03X964294Y1022366I0J4732D01*
G02X964998Y1022107I304J-260D01*
G01Y1009082D01*
G02X964294Y1008823I-400J1D01*
G03X960694Y1010484I-3600J-3071D01*
G03X956130Y1007001I0J-4732D01*
G01X956089Y1006854D01*
X955151D01*
G03X954372Y1006531I0J-1101D01*
G01X938643Y990802D01*
X935452D01*
Y991306D01*
G03X934656Y992102I-796J0D01*
G01X933902D01*
Y994344D01*
X936680Y997123D01*
X936777Y997111D01*
G03X936998Y997098I222J1889D01*
G01X937000D01*
G03X935098Y999000I0J1902D01*
G01Y998998D01*
G03X935111Y998777I1902J1D01*
G01X935123Y998680D01*
X932021Y995579D01*
G03X931698Y994800I778J-779D01*
G01Y992102D01*
X930944D01*
G03X930148Y991306I0J-796D01*
G01Y990439D01*
X929198D01*
G03X928677Y990223I1J-739D01*
G01X925694Y987239D01*
X907499D01*
G03X906978Y987023I1J-739D01*
G01X896470Y976514D01*
X883031D01*
X881023Y978523D01*
G03X880502Y978739I-522J-523D01*
G01X875497D01*
G03X874976Y978523I1J-739D01*
G01X872568Y976115D01*
G03X872352Y975594I523J-522D01*
G01Y972897D01*
X871588Y972133D01*
X870054D01*
G03X869106Y972596I-948J-739D01*
G03X868780Y972551I0J-1203D01*
G02X868272Y972936I-108J385D01*
G01Y977711D01*
G03X868056Y978232I-739J-1D01*
G01X867060Y979227D01*
Y982324D01*
G03X866885Y982655I-401J0D01*
G01X866798Y982714D01*
Y984348D01*
X869606D01*
G03X870402Y985144I0J796D01*
G01Y988856D01*
G03X869606Y989652I-796J0D01*
G01X866394D01*
G03X865598Y988856I0J-796D01*
G01Y985394D01*
X865536Y985332D01*
G03X865320Y984811I523J-522D01*
G01Y982714D01*
X865233Y982655D01*
G03X865058Y982324I226J-331D01*
G01Y978583D01*
G03X865459Y978182I401J0D01*
G01X866015D01*
X866794Y977403D01*
Y976818D01*
X865459D01*
G03X865058Y976417I0J-401D01*
G01Y975007D01*
X865042Y974970D01*
G03X864958Y974549I1017J-422D01*
G01Y971983D01*
X864943Y971947D01*
G03X864857Y971500I1116J-447D01*
G03X864869Y971329I1202J-2D01*
G01X864883Y971230D01*
X864671Y971018D01*
X864239Y971450D01*
Y972286D01*
X864326Y972345D01*
G03X864502Y972677I-225J332D01*
G01Y976417D01*
G03X864326Y976749I-401J0D01*
G01X864239Y976808D01*
Y978192D01*
X864326Y978251D01*
G03X864502Y978583I-225J332D01*
G01Y982323D01*
G03X864100Y982724I-401J0D01*
G01X862900D01*
G03X862498Y982323I0J-402D01*
G01Y978583D01*
G03X862674Y978251I401J0D01*
G01X862761Y978192D01*
Y976808D01*
X862674Y976749D01*
G03X862498Y976417I225J-332D01*
G01Y972677D01*
G03X862531Y972518I402J0D01*
G01X862548Y972480D01*
Y972239D01*
X862341D01*
G02X861942Y972658I1J400D01*
G01Y976417D01*
G03X861541Y976818I-401J0D01*
G01X860341D01*
G03X859940Y976417I0J-401D01*
G01Y972676D01*
G03X860115Y972345I401J0D01*
G01X860202Y972286D01*
Y971937D01*
G03X860418Y971416I739J1D01*
G01X860857Y970977D01*
G03X861378Y970761I522J523D01*
G01X862838D01*
X864990Y968609D01*
X864782Y968402D01*
X864689Y968410D01*
G03X864635Y968412I-49J-596D01*
G01X863059D01*
G03X862462Y967815I0J-598D01*
G01Y966239D01*
G03X863059Y965642I597J0D01*
G01X864635D01*
G03X865232Y966239I0J597D01*
G01Y967815D01*
G03X865230Y967869I-598J5D01*
G01X865222Y967962D01*
X865429Y968170D01*
X866296Y967303D01*
Y966175D01*
G03X866780Y965588I598J0D01*
G01X866942Y965557D01*
Y963405D01*
G03X867158Y962884I739J1D01*
G01X867411Y962632D01*
G02X867367Y962028I-283J-283D01*
G03X866598Y960500I1134J-1528D01*
G03X870402I1902J0D01*
G03X869239Y962253I-1903J0D01*
G01Y962590D01*
G03X869023Y963111I-739J-1D01*
G01X868420Y963713D01*
Y965557D01*
X868582Y965588D01*
G03X869066Y966175I-114J587D01*
G01Y967751D01*
G03X868469Y968348I-597J0D01*
G01X867341D01*
X866050Y969639D01*
G02X866265Y970316I283J283D01*
G03X866688Y970476I-206J1184D01*
G01X866792Y970505D01*
X866950Y970428D01*
G03X867010Y970360I583J454D01*
G01X867973Y969397D01*
G03X868494Y969181I522J523D01*
G01X869716D01*
G03X870014Y969244I-1J739D01*
G01X870053Y969261D01*
X870687D01*
G03X870856Y969281I-2J739D01*
G01X870879Y969286D01*
X874531D01*
G03X874736Y969315I0J739D01*
G01X874764Y969323D01*
X875553D01*
X875588Y969310D01*
G03X875852Y969261I265J690D01*
G01X878014D01*
X878082Y969193D01*
Y968406D01*
X877920Y968375D01*
G03X877436Y967788I114J-587D01*
G01Y966212D01*
G03X878033Y965614I598J0D01*
G01X879609D01*
G03X880206Y966212I-1J598D01*
G01Y967788D01*
G03X879722Y968375I-598J0D01*
G01X879560Y968406D01*
Y969501D01*
G03X879344Y970022I-739J-1D01*
G01X878843Y970523D01*
G03X878322Y970739I-522J-523D01*
G01X878073D01*
Y970979D01*
X878089Y971016D01*
G03X878182Y971479I-1109J464D01*
G01Y971480D01*
G03X876980Y972682I-1202J0D01*
G03X876032Y972219I0J-1202D01*
G01X875326D01*
X874805Y972740D01*
Y974761D01*
X876305Y976261D01*
X879789D01*
X881772Y974277D01*
G03X882293Y974061I522J523D01*
G01X897396D01*
G03X897917Y974277I-1J739D01*
G01X908400Y984761D01*
X925694D01*
X928277Y982177D01*
G03X928798Y981961I522J523D01*
G01X930148D01*
Y981094D01*
G03X930944Y980298I796J0D01*
G01X931698D01*
Y978200D01*
G03X932021Y977421I1101J0D01*
G01X935123Y974320D01*
X935111Y974223D01*
G03X935098Y974002I1889J-222D01*
G01Y974000D01*
G03X937000Y975902I1902J0D01*
G01X936998D01*
G03X936777Y975889I1J-1902D01*
G01X936680Y975877D01*
X933902Y978656D01*
Y980298D01*
X934656D01*
G03X935452Y981094I0J796D01*
G01Y981358D01*
G02X935793Y981499I200J0D01*
G01X936311Y980981D01*
G03X937090Y980658I779J778D01*
G01X956387D01*
G03X957166Y980981I0J1101D01*
G01X958217Y982032D01*
X958350Y981957D01*
G03X960694Y981335I2345J4110D01*
G03X964294Y982996I0J4732D01*
G02X964998Y982737I304J-260D01*
G01Y969712D01*
G02X964294Y969453I-400J1D01*
G03X960694Y971114I-3600J-3071D01*
G03X956207Y967884I0J-4732D01*
G01X954862D01*
G03X953814Y967458I0J-1502D01*
G01X941927D01*
G03X941382Y967355I2J-1502D01*
G01X941347Y967342D01*
X941139D01*
G03X940542Y966744I1J-598D01*
G01Y966536D01*
X940528Y966501D01*
G03X940426Y965956I1399J-544D01*
G03X940528Y965411I1501J-1D01*
G01X940542Y965376D01*
Y965168D01*
G03X941026Y964581I598J0D01*
G01X941188Y964550D01*
Y961661D01*
G03X941225Y961430I740J0D01*
G01X941235Y961368D01*
X941127Y961190D01*
G03X940098Y959500I873J-1690D01*
G03X943902I1902J0D01*
G03X942739Y961253I-1903J0D01*
G01Y961588D01*
G03X942682Y961874I-739J1D01*
G01X942666Y961911D01*
Y964454D01*
X954436D01*
G03X955484Y964880I0J1502D01*
G01X956207D01*
G03X960694Y961650I4487J1502D01*
G03X964294Y963311I0J4732D01*
G02X964998Y963052I304J-260D01*
G01Y950026D01*
G02X964294Y949767I-400J1D01*
G03X960694Y951428I-3600J-3071D01*
G03X956207Y948198I0J-4732D01*
G01X954862D01*
G03X953967Y947902I0J-1501D01*
G01X942221D01*
G03X941676Y947799I2J-1502D01*
G01X941641Y947786D01*
X941433D01*
G03X940836Y947188I1J-598D01*
G01Y946980D01*
X940822Y946945D01*
G03X940720Y946400I1399J-544D01*
G03X940822Y945855I1501J-1D01*
G01X940836Y945820D01*
Y945612D01*
G03X941320Y945025I598J0D01*
G01X941482Y944994D01*
Y944591D01*
X941384Y944532D01*
G03X940798Y943500I616J-1032D01*
G03X943202I1202J0D01*
G01Y943501D01*
G03X942995Y944175I-1202J0D01*
G01X942960Y944226D01*
Y944898D01*
X954566D01*
G03X955412Y945160I-1J1502D01*
G01X955463Y945194D01*
X956207D01*
G03X960694Y941964I4487J1502D01*
G03X964294Y943625I0J4732D01*
G02X964998Y943366I304J-260D01*
G01Y930341D01*
G02X964294Y930082I-400J1D01*
G03X960694Y931743I-3600J-3071D01*
G03Y922279I0J-4732D01*
G03X964294Y923940I0J4732D01*
G02X964998Y923681I304J-260D01*
G01Y910656D01*
G02X964294Y910397I-400J1D01*
G03X960694Y912058I-3600J-3071D01*
G03X956130Y908575I0J-4732D01*
G01X956089Y908428D01*
X943326D01*
G03X942547Y908105I0J-1101D01*
G01X937138Y902696D01*
X936096D01*
Y903200D01*
G03X935300Y903996I-796J0D01*
G01X934183D01*
Y906691D01*
G03X935346Y908444I-740J1753D01*
G03X931542I-1902J0D01*
G03X932705Y906691I1903J0D01*
G01Y903996D01*
X931588D01*
G03X930792Y903200I0J-796D01*
G01Y899988D01*
G03X931588Y899192I796J0D01*
G01X935300D01*
G03X936096Y899988I0J796D01*
G01Y900492D01*
X937594D01*
G03X938373Y900815I0J1101D01*
G01X943782Y906224D01*
X956089D01*
X956130Y906077D01*
G03X960694Y902594I4564J1249D01*
G03X964294Y904255I0J4732D01*
G02X964998Y903996I304J-260D01*
G01Y890971D01*
G02X964294Y890712I-400J1D01*
G03X960694Y892373I-3600J-3071D01*
G03X958350Y891751I1J-4732D01*
G01X958217Y891676D01*
X957614Y892279D01*
G03X956835Y892602I-779J-778D01*
G01X941456D01*
X938685Y895373D01*
G03X937906Y895696I-779J-778D01*
G01X936096D01*
Y896200D01*
G03X935300Y896996I-796J0D01*
G01X931588D01*
G03X930792Y896200I0J-796D01*
G01Y895333D01*
X927347D01*
G03X925594Y896496I-1753J-740D01*
G03Y892692I0J-1902D01*
G03X927347Y893855I0J1903D01*
G01X930792D01*
Y892988D01*
G03X931588Y892192I796J0D01*
G01X935300D01*
G03X936096Y892988I0J796D01*
G01Y893492D01*
X937450D01*
X940221Y890721D01*
G03X941000Y890398I779J778D01*
G01X956379D01*
X956659Y890118D01*
X956584Y889985D01*
G03X955962Y887641I4110J-2345D01*
G03X960694Y882909I4732J0D01*
G03X964294Y884570I0J4732D01*
G02X964998Y884311I304J-260D01*
G01Y871286D01*
G02X964294Y871027I-400J1D01*
G03X960694Y872688I-3600J-3071D01*
G03X956207Y869458I0J-4732D01*
G01X955361D01*
X955323Y869474D01*
G03X954718Y869602I-607J-1374D01*
G01X941221D01*
G03X940676Y869499I2J-1502D01*
G01X940641Y869486D01*
X940433D01*
G03X939836Y868888I1J-598D01*
G01Y868680D01*
X939822Y868645D01*
G03X939720Y868100I1399J-544D01*
G03X939822Y867555I1501J-1D01*
G01X939836Y867520D01*
Y867312D01*
G03X940320Y866725I598J0D01*
G01X940482Y866694D01*
Y864615D01*
G03X940261Y864088I518J-527D01*
G01Y863753D01*
G03X939098Y862000I740J-1753D01*
G03X942902I1902J0D01*
G03X942064Y863577I-1903J0D01*
G02X941913Y864049I223J332D01*
G03X941960Y864308I-692J259D01*
G01Y866598D01*
X954219D01*
X954257Y866582D01*
G03X954862Y866454I607J1374D01*
G01X956207D01*
G03X960694Y863224I4487J1502D01*
G03X964294Y864885I0J4732D01*
G02X964998Y864626I304J-260D01*
G01Y853003D01*
X956363D01*
G03X955962Y852602I0J-402D01*
G01Y843940D01*
G03X956363Y843539I401J1D01*
G01X962657D01*
G02X962940Y842856I0J-400D01*
G01X957585Y837502D01*
X939585D01*
X928585Y826502D01*
X921585D01*
X920839Y825755D01*
G02X920230Y825806I-283J283D01*
G03X915216Y824204I-2251J-1603D01*
G01Y823970D01*
X914352D01*
G02X914069Y824653I0J400D01*
G01X915002Y825585D01*
Y830915D01*
X913415Y832502D01*
X911656D01*
G02X911369Y833179I1J400D01*
G03X911902Y834499I-1369J1320D01*
G01Y834500D01*
G03X908098I-1902J0D01*
G03X909143Y832802I1902J0D01*
G02X909246Y832162I-180J-357D01*
G01X907338Y830254D01*
G02X906698Y830357I-283J283D01*
G03X905000Y831402I-1698J-857D01*
G03X903821Y830992I1J-1902D01*
G02X903180Y831230I-248J314D01*
G03X902000Y832202I-1180J-230D01*
G03X901042Y831726I0J-1202D01*
G01X898758D01*
G03X897000Y832902I-1758J-726D01*
G03X895183Y831563I0J-1902D01*
G02X894518Y831398I-382J118D01*
G01X891485Y834431D01*
G02X891722Y835111I283J283D01*
G03X893402Y837000I-222J1889D01*
G03X889598I-1902J0D01*
G03X889829Y836092I1902J0D01*
G02X889477Y835502I-352J-190D01*
G01X882085D01*
X880498Y833915D01*
Y828883D01*
G02X879816Y828601I-400J1D01*
G01X873915Y834502D01*
X869915D01*
X863915Y840502D01*
X842415D01*
X839919Y842998D01*
G02X840295Y843669I283J282D01*
G03X841399Y843538I1106J4601D01*
G01X841402D01*
G03X845889Y846768I0J4732D01*
G01X850108D01*
X852411Y844465D01*
G03X853471Y844026I1061J1062D01*
G01X859703D01*
G03X860246Y844128I-1J1501D01*
G01X860281Y844142D01*
X860489D01*
G03X861086Y844739I0J597D01*
G01Y844947D01*
X861100Y844982D01*
G03X861202Y845527I-1399J544D01*
G03X861100Y846072I-1501J1D01*
G01X861086Y846107D01*
Y846315D01*
G03X860602Y846902I-598J0D01*
G01X860440Y846933D01*
Y849747D01*
G03X861603Y851500I-740J1753D01*
G03X857799I-1902J0D01*
G03X858962Y849747I1903J0D01*
G01Y847028D01*
X854095D01*
X851792Y849332D01*
G03X850730Y849772I-1062J-1062D01*
G01X845889D01*
G03X841402Y853002I-4487J-1502D01*
G03X838082Y851642I0J-4732D01*
G02X837402Y851927I-280J285D01*
G01Y864298D01*
G02X838082Y864583I400J0D01*
G03X841402Y863223I3320J3372D01*
G03X845889Y866454I0J4731D01*
G01X857141D01*
G03X857599Y866526I-1J1501D01*
G01X857628Y866536D01*
X859707D01*
G03X860250Y866638I-1J1501D01*
G01X860285Y866652D01*
X860493D01*
G03X861090Y867249I-1J598D01*
G01Y867457D01*
X861104Y867492D01*
G03X861206Y868037I-1399J544D01*
G03X861104Y868582I-1501J1D01*
G01X861090Y868617D01*
Y868825D01*
G03X861089Y868869I-598J8D01*
G02X861491Y869298I399J29D01*
G01X861500D01*
G03X861548Y869299I-1J1202D01*
G02X861963Y868869I16J-400D01*
G03X861962Y868825I597J-36D01*
G01Y867249D01*
G03X862559Y866652I597J1D01*
G01X864135D01*
G03X864732Y867249I-1J598D01*
G01Y868825D01*
G03X864717Y868958I-598J0D01*
G01X864693Y869066D01*
X864912Y869285D01*
X866929Y867268D01*
G03X867991Y866828I1062J1062D01*
G01X871330D01*
G03X872392Y867268I0J1502D01*
G01X873372Y868248D01*
X874510D01*
X874560Y868215D01*
G03X874891Y868114I333J497D01*
G01X876467D01*
G03X877064Y868712I-1J598D01*
G01Y870288D01*
G03X876467Y870886I-598J0D01*
G01X874891D01*
G03X874580Y870798I1J-598D01*
G01X874505Y870752D01*
X874408D01*
X874192Y870968D01*
X875339Y872114D01*
X876467D01*
G03X877064Y872712I-1J598D01*
G01Y874288D01*
G03X876467Y874886I-598J0D01*
G01X874891D01*
G03X874294Y874288I1J-598D01*
G01Y873160D01*
X874168Y873035D01*
G02X873488Y873277I-282J283D01*
G03X872292Y874356I-1196J-123D01*
G03X871153Y873539I0J-1202D01*
G02X870640Y873291I-379J129D01*
G03X870000Y873402I-640J-1791D01*
G03X868098Y871500I0J-1902D01*
G03X868105Y871338I1902J1D01*
G02X867424Y871021I-398J-34D01*
G01X864822Y873622D01*
Y877002D01*
G03X864720Y877545I-1501J-1D01*
G01X864706Y877580D01*
Y877788D01*
G03X864109Y878386I-598J0D01*
G01X863901D01*
X863866Y878399D01*
G03X863321Y878502I-547J-1399D01*
G03X862776Y878399I2J-1502D01*
G01X862741Y878386D01*
X862533D01*
G03X861936Y877788I1J-598D01*
G01Y877580D01*
X861922Y877545D01*
G03X861820Y877002I1399J-544D01*
G01Y872998D01*
G03X861922Y872455I1501J1D01*
G01X861936Y872420D01*
Y872212D01*
G03X861939Y872146I598J-6D01*
G02X861531Y871702I-397J-44D01*
G01X861469D01*
G02X861061Y872146I-11J400D01*
G03X861064Y872212I-595J60D01*
G01Y873788D01*
G03X860467Y874386I-598J0D01*
G01X858891D01*
G03X858403Y874132I1J-598D01*
G03X858000Y874202I-404J-1132D01*
G03X856798Y873000I0J-1202D01*
G03X857020Y872304I1202J0D01*
G02X856770Y871680I-326J-231D01*
G03X855798Y870500I230J-1180D01*
G01Y870499D01*
G03X855899Y870017I1202J0D01*
G02X855533Y869456I-366J-161D01*
G01X845889D01*
G03X841402Y872687I-4487J-1500D01*
G03X838082Y871327I0J-4732D01*
G02X837402Y871612I-280J285D01*
G01Y883983D01*
G02X838082Y884268I400J0D01*
G03X841402Y882908I3320J3372D01*
G03X845889Y886138I0J4732D01*
G01X847234D01*
G03X848296Y886578I0J1502D01*
G01X849243Y887526D01*
X858946D01*
Y886082D01*
X858907Y886028D01*
G03X858761Y885588I593J-441D01*
G01Y885253D01*
G03X857598Y883500I740J-1753D01*
G03X861402I1902J0D01*
G03X860421Y885164I-1902J0D01*
G02X860340Y885432I97J175D01*
G03X860424Y885773I-655J342D01*
G01Y887621D01*
X860586Y887652D01*
G03X861070Y888239I-114J587D01*
G01Y888447D01*
X861084Y888482D01*
G03X861186Y889027I-1399J544D01*
G03X861084Y889572I-1501J1D01*
G01X861070Y889607D01*
Y889815D01*
G03X860473Y890412I-598J0D01*
G01X860265D01*
X860230Y890426D01*
G03X859687Y890528I-544J-1399D01*
G01X848619D01*
G03X847559Y890089I1J-1501D01*
G01X846612Y889142D01*
X845889D01*
G03X841402Y892372I-4487J-1502D01*
G03X838082Y891012I0J-4732D01*
G02X837402Y891297I-280J285D01*
G01Y903668D01*
G02X838082Y903953I400J0D01*
G03X841402Y902593I3320J3372D01*
G03X846134Y907325I0J4732D01*
G03X845637Y909436I-4732J0D01*
G01X847736Y911536D01*
X858958D01*
Y911003D01*
X857477Y909523D01*
G03X857261Y909002I523J-522D01*
G01Y904998D01*
G03X857477Y904477I739J1D01*
G01X858304Y903651D01*
X858300Y903562D01*
G03X858298Y903500I1200J-70D01*
G03X859500Y902298I1202J0D01*
G03X860583Y902978I0J1202D01*
G02X861214Y903099I360J-174D01*
G03X862500Y902598I1286J1400D01*
G03X864402Y904500I0J1902D01*
G03X864183Y905386I-1902J0D01*
G02X864452Y905963I354J186D01*
G03X865071Y906301I-266J1223D01*
G01X868732Y909962D01*
X873301D01*
G02X873600Y909297I0J-400D01*
G03X873298Y908500I901J-797D01*
G03X875702I1202J0D01*
G03X875400Y909297I-1203J0D01*
G02X875699Y909962I299J265D01*
G01X879958D01*
G02X880313Y909378I0J-400D01*
G03X880098Y908500I1687J-878D01*
G03X882000Y906598I1902J0D01*
G03X883527Y907367I-1J1902D01*
G02X884248Y907129I321J-239D01*
G01Y905500D01*
G03X884615Y904615I1252J1D01*
G01X886315Y902915D01*
X886330Y902887D01*
G03X888019Y901859I1689J874D01*
G03X888314Y901882I0J1903D01*
G02X888659Y901204I62J-395D01*
G01X888168Y900713D01*
X886388D01*
G03X885867Y900497I1J-739D01*
G01X885633Y900262D01*
X883577D01*
G02X883181Y900721I0J400D01*
G03X883202Y901000I-1881J282D01*
G03X881300Y899098I-1902J0D01*
G03X881902Y899196I-1J1902D01*
G01X882020Y899235D01*
X882254Y899000D01*
G03X882775Y898784I522J523D01*
G01X885402D01*
G02X885801Y898413I0J-400D01*
G03X886261Y897552I1199J87D01*
G01Y895427D01*
G02X885575Y895148I-400J0D01*
G03X884831Y895618I-1360J-1329D01*
G01X884696Y895664D01*
Y896016D01*
X884768Y896075D01*
G03X885202Y897000I-769J925D01*
G03X882798I-1202J0D01*
G03X883218Y896087I1202J0D01*
G01Y895439D01*
G03X882312Y893819I995J-1620D01*
G03X884214Y891917I1902J0D01*
G03X885749Y892696I0J1902D01*
G02X886398Y892692I323J-236D01*
G03X886477Y892598I604J427D01*
G01X890105Y888970D01*
G03X890626Y888754I522J523D01*
G01X896995D01*
G03X897516Y888970I-1J739D01*
G01X899306Y890761D01*
X903697D01*
G02X904022Y890129I-1J-400D01*
G03X903798Y889430I979J-699D01*
G03X904573Y888306I1203J0D01*
G02X904813Y887815I-142J-374D01*
G03X904760Y887462I1149J-353D01*
G03X904813Y887110I1202J1D01*
G02X904571Y886618I-383J-117D01*
G03X903791Y885493I421J-1125D01*
G03X906195I1202J0D01*
G03X906142Y885845I-1202J-1D01*
G02X906384Y886337I383J117D01*
G03X907164Y887462I-421J1125D01*
G03X906389Y888586I-1203J0D01*
G02X906149Y889077I142J374D01*
G03X906202Y889430I-1149J353D01*
G03X905978Y890129I-1203J0D01*
G02X906303Y890761I326J232D01*
G01X909002D01*
G03X909523Y890977I-1J739D01*
G01X918023Y899477D01*
G03X918239Y899998I-523J522D01*
G01Y913573D01*
X918593Y913927D01*
X918773Y913746D01*
X918787Y913693D01*
G03X920000Y912748I1213J306D01*
G03X920646Y912928I-1J1252D01*
G03X921976Y912385I1331J1359D01*
G03X923878Y914287I0J1902D01*
G03X923381Y915569I-1902J0D01*
G02X923677Y916238I296J269D01*
G01X928223D01*
G02X928619Y915779I0J-400D01*
G03X928598Y915500I1881J-282D01*
G03X930500Y917402I1902J0D01*
G03X929898Y917304I1J-1902D01*
G01X929780Y917265D01*
X929546Y917500D01*
G03X929025Y917716I-522J-523D01*
G01X921968D01*
G02X921686Y918399I1J400D01*
G01X924071Y920784D01*
X934025D01*
G03X934546Y921000I-1J739D01*
G01X934780Y921235D01*
X934898Y921196D01*
G03X935500Y921098I603J1804D01*
G03X933598Y923000I0J1902D01*
G03X933619Y922721I1902J3D01*
G02X933223Y922262I-396J-59D01*
G01X924772D01*
G02X924490Y922945I1J400D01*
G01X925023Y923477D01*
G03X925239Y923998I-523J522D01*
G01Y929702D01*
G02X925615Y930101I400J0D01*
G03X927402Y932000I-116J1899D01*
G03X923598I-1902J0D01*
G01Y931999D01*
G03X923783Y931181I1902J0D01*
G03X923761Y931000I717J-179D01*
G01Y924306D01*
X912952Y913498D01*
G03X912736Y912977I523J-522D01*
G01Y907902D01*
X910977Y906144D01*
G03X910761Y905623I523J-522D01*
G01Y897806D01*
X907194Y894239D01*
X898302D01*
X895687Y896854D01*
X895691Y896943D01*
G03X895693Y897005I-1200J70D01*
G03X894491Y898207I-1202J0D01*
G03X893901Y898052I0J-1202D01*
G02X893304Y898400I-197J348D01*
G01Y898697D01*
G03X890302I-1501J0D01*
G01Y894870D01*
G03X889884Y893681I1484J-1190D01*
G03X889973Y893106I1902J0D01*
G01X890010Y892990D01*
X889782Y892763D01*
X889239Y893306D01*
Y895552D01*
G03X889702Y896500I-739J948D01*
G03X888539Y897701I-1202J0D01*
G02X888164Y898201I12J400D01*
G03X888202Y898500I-1164J300D01*
G03X888111Y898959I-1203J0D01*
G01X888096Y898995D01*
Y899235D01*
X888476D01*
G03X888997Y899451I-1J739D01*
G01X892447Y902902D01*
G02X893124Y902685I283J-283D01*
G03X895000Y901098I1876J315D01*
G03X895602Y901196I-1J1902D01*
G01X895720Y901235D01*
X897477Y899477D01*
G03X897998Y899261I522J523D01*
G01X899079D01*
G02X899315Y898538I0J-400D01*
G03X898532Y897000I1119J-1538D01*
G03X902336I1902J0D01*
G03X901553Y898538I-1902J0D01*
G02X901789Y899261I236J323D01*
G01X903694D01*
X904761Y898194D01*
Y896948D01*
G03X904298Y896000I739J-948D01*
G03X906702I1202J0D01*
G03X906239Y896948I-1202J0D01*
G01Y898502D01*
G03X906023Y899023I-739J-1D01*
G01X904523Y900523D01*
G03X904002Y900739I-522J-523D01*
G01X901416D01*
X901286Y901090D01*
G03X901448Y901261I-788J908D01*
G01X904002D01*
G03X904523Y901477I-1J739D01*
G01X904780Y901735D01*
X904898Y901696D01*
G03X905500Y901598I603J1804D01*
G03Y905402I0J1902D01*
G03X905435Y905401I-3J-1902D01*
G01X905349Y905398D01*
X905146Y905601D01*
X905572Y906027D01*
X906713D01*
G03X907661Y905564I948J739D01*
G03X908863Y906766I0J1202D01*
G03X908398Y907716I-1203J0D01*
G02X908360Y908315I245J316D01*
G01X910523Y910477D01*
G03X910739Y910998I-523J522D01*
G01Y917502D01*
G03X910523Y918023I-739J-1D01*
G01X910368Y918178D01*
G02X910569Y918852I283J283D01*
G03X912083Y920714I-388J1862D01*
G03X910181Y922616I-1902J0D01*
G03X909579Y922518I1J-1902D01*
G01X909461Y922479D01*
X907918Y924023D01*
G03X907397Y924239I-522J-523D01*
G01X906448D01*
G03X905500Y924702I-948J-739D01*
G03X904716Y924411I0J-1202D01*
G02X904116Y924504I-260J304D01*
G03X902500Y925402I-1616J-1005D01*
G03Y921598I0J-1902D01*
G03X903102Y921696I-1J1902D01*
G01X903220Y921735D01*
X903477Y921477D01*
G03X903998Y921261I522J523D01*
G01X905194D01*
X909261Y917194D01*
Y911306D01*
X906934Y908979D01*
X906133D01*
Y909297D01*
X906237Y909354D01*
G03X907219Y911019I-921J1665D01*
G03X905317Y912921I-1902J0D01*
G03X903564Y911758I0J-1903D01*
G01X901367D01*
G03X900846Y911542I1J-739D01*
G01X900377Y911072D01*
G02X899699Y911297I-282J283D01*
G03X897817Y912921I-1882J-278D01*
G03X895915Y911019I0J-1902D01*
G03X896013Y910417I1902J1D01*
G01X896052Y910299D01*
X895711Y909959D01*
G03X895495Y909438I523J-522D01*
G01Y909040D01*
X894651Y908196D01*
X894562Y908200D01*
G03X894500Y908202I-70J-1200D01*
G03X893298Y907000I0J-1202D01*
G01Y906999D01*
G03X893521Y906302I1202J0D01*
G01X893558Y906186D01*
X893495Y906040D01*
G03X893477Y906023I499J-546D01*
G01X890576Y903121D01*
G02X889898Y903466I-283J283D01*
G03X889921Y903761I-1880J295D01*
G03X888019Y905663I-1902J0D01*
G03X887379Y905552I0J-1902D01*
G01X887260Y905510D01*
X886752Y906018D01*
Y910000D01*
G03X886385Y910885I-1252J-1D01*
G01X885171Y912099D01*
G03X884286Y912466I-886J-885D01*
G01X880971D01*
G02X880604Y913024I0J400D01*
G03X880702Y913499I-1104J475D01*
G01Y913500D01*
G03X880459Y914225I-1203J0D01*
G01X880418Y914279D01*
Y914594D01*
X880580Y914625D01*
G03X881064Y915212I-114J587D01*
G01Y916788D01*
G03X880467Y917386I-598J0D01*
G01X878891D01*
G03X878421Y917157I1J-598D01*
G02X877908Y917057I-314J247D01*
G03X877540Y917155I-368J-642D01*
G01X875866D01*
X875807Y917242D01*
G03X875475Y917418I-332J-225D01*
G01X871735D01*
G03X871334Y917016I0J-401D01*
G01Y915816D01*
G03X871735Y915414I402J0D01*
G01X875475D01*
G03X875807Y915590I0J401D01*
G01X875866Y915677D01*
X877234D01*
X877433Y915477D01*
G03X877954Y915261I522J523D01*
G01X878273D01*
X878304Y915099D01*
G03X878492Y914767I587J113D01*
G02X878543Y914228I-267J-297D01*
G03X878298Y913500I957J-727D01*
G03X878396Y913024I1202J-1D01*
G02X878029Y912466I-367J-158D01*
G01X868214D01*
G03X867329Y912099I1J-1252D01*
G01X863668Y908438D01*
X859900D01*
G03X859071Y908124I0J-1251D01*
G01X858939Y908074D01*
G02X858739Y908274I0J200D01*
G01Y908694D01*
X860220Y910174D01*
G03X860436Y910695I-523J522D01*
G01Y911631D01*
X860598Y911662D01*
G03X861082Y912249I-114J587D01*
G01Y912457D01*
X861096Y912492D01*
G03X861198Y913037I-1399J544D01*
G03X861096Y913582I-1501J1D01*
G01X861082Y913617D01*
Y913825D01*
G03X860485Y914422I-598J0D01*
G01X860277D01*
X860242Y914436D01*
G03X859699Y914538I-544J-1399D01*
G01X847112D01*
G03X846052Y914099I1J-1501D01*
G01X843515Y911561D01*
X843388Y911620D01*
G03X841402Y912057I-1986J-4294D01*
G03X838082Y910697I0J-4732D01*
G02X837402Y910982I-280J285D01*
G01Y923353D01*
G02X838082Y923638I400J0D01*
G03X841402Y922278I3320J3372D01*
G03X845889Y925508I0J4732D01*
G01X847234D01*
G03X847500Y925532I-1J1502D01*
G01X847518Y925536D01*
X858950D01*
Y924409D01*
G03X859166Y923888I739J1D01*
G01X860447Y922608D01*
Y922153D01*
G03X859284Y920400I740J-1753D01*
G03X861186Y918498I1902J0D01*
G03X861465Y918519I-3J1902D01*
G02X861893Y917967I59J-396D01*
G03X861798Y917500I1107J-468D01*
G03X862527Y916395I1202J0D01*
G01X862562Y916380D01*
X863305Y915637D01*
G03X864084Y915314I779J778D01*
G01X867699D01*
G03X868122Y915399I0J1095D01*
G01X868159Y915414D01*
X869569D01*
G03X869970Y915816I0J401D01*
G01Y917016D01*
G03X869569Y917418I-402J0D01*
G01X868159D01*
X868122Y917433D01*
G03X867699Y917518I-423J-1010D01*
G01X864540D01*
X864120Y917938D01*
X864105Y917973D01*
G03X864099Y917987I-1108J-466D01*
G01X864082Y918068D01*
G02X864282Y918268I200J0D01*
G01X864334Y918261D01*
G03X864524Y918236I191J714D01*
G01X865438D01*
X865497Y918149D01*
G03X865828Y917974I331J226D01*
G01X869570D01*
G03X869901Y918149I0J401D01*
G01X869960Y918236D01*
X871344D01*
X871403Y918149D01*
G03X871734Y917974I331J226D01*
G01X875476D01*
G03X875807Y918149I0J401D01*
G01X875866Y918236D01*
X876976D01*
G03X877497Y918452I-1J739D01*
G01X877855Y918811D01*
G02X878442Y918788I283J-283D01*
G03X878897Y918578I455J388D01*
G01X880473D01*
G03X881070Y919175I0J597D01*
G01Y920751D01*
G03X880473Y921348I-597J-1D01*
G01X880230D01*
G02X879948Y922031I1J400D01*
G01X881002Y923085D01*
Y927334D01*
G02X881676Y927625I400J0D01*
G03X882412Y927301I824J875D01*
G02X882750Y926746I-30J-399D01*
G03X882598Y926002I1750J-745D01*
G01Y926000D01*
G03X884500Y924098I1902J0D01*
G03X886253Y925261I0J1903D01*
G01X887590D01*
G03X888111Y925477I-1J739D01*
G01X889702Y927068D01*
G02X890383Y926817I283J-283D01*
G03X892279Y925067I1896J152D01*
G03X894181Y926969I0J1902D01*
G03X893794Y928119I-1902J0D01*
G02X894112Y928761I318J242D01*
G01X911194D01*
X911804Y928151D01*
X911800Y928062D01*
G03X911798Y928000I1200J-70D01*
G03X913000Y929202I1202J0D01*
G03X912938Y929200I8J-1202D01*
G01X912849Y929196D01*
X912290Y929756D01*
X912440Y929906D01*
X912450Y929914D01*
G03X912523Y929977I-445J590D01*
G01X914780Y932235D01*
X914898Y932196D01*
G03X915500Y932098I603J1804D01*
G03X913598Y934000I0J1902D01*
G03X913696Y933398I1902J1D01*
G01X913735Y933280D01*
X911694Y931239D01*
X908355D01*
G02X908119Y931962I0J400D01*
G03X908902Y933500I-1119J1538D01*
G03X905098I-1902J0D01*
G03X905881Y931962I1902J0D01*
G02X905645Y931239I-236J-323D01*
G01X884498D01*
G03X883977Y931023I1J-739D01*
G01X882651Y929696D01*
X882562Y929700D01*
G03X882500Y929702I-70J-1200D01*
G03X881676Y929375I0J-1202D01*
G02X881002Y929666I-274J291D01*
G01Y931915D01*
X879415Y933502D01*
X875085D01*
X873498Y931915D01*
Y928486D01*
G02X872949Y928115I-400J0D01*
G03X872539Y928201I-448J-1115D01*
G02X872152Y928601I13J400D01*
G01Y928606D01*
G03X871356Y929402I-796J0D01*
G01X867644D01*
G03X866848Y928606I0J-796D01*
G01Y925394D01*
G03X867644Y924598I796J0D01*
G01X871498D01*
Y922468D01*
X871444Y922410D01*
G03X871334Y922134I291J-276D01*
G01Y920934D01*
G03X871735Y920532I402J0D01*
G01X872051D01*
X872266Y920318D01*
G02X872125Y919976I-141J-142D01*
G01X871734D01*
G03X871403Y919801I0J-401D01*
G01X871344Y919714D01*
X869960D01*
X869901Y919801D01*
G03X869570Y919976I-331J-226D01*
G01X865828D01*
G03X865497Y919801I0J-401D01*
G01X865438Y919714D01*
X864831D01*
X864739Y919806D01*
Y920694D01*
X864840Y920795D01*
X865438D01*
X865497Y920708D01*
G03X865829Y920532I332J225D01*
G01X869569D01*
G03X869970Y920934I0J401D01*
G01Y922134D01*
G03X869569Y922536I-402J0D01*
G01X865829D01*
G03X865497Y922360I0J-401D01*
G01X865438Y922273D01*
X864532D01*
G03X864011Y922057I1J-739D01*
G01X863477Y921523D01*
G03X863412Y921447I528J-517D01*
G02X862762Y921465I-319J242D01*
G03X861925Y922153I-1576J-1065D01*
G01Y922916D01*
G03X861709Y923437I-739J-1D01*
G01X860428Y924717D01*
Y925631D01*
X860590Y925662D01*
G03X861074Y926249I-114J587D01*
G01Y926457D01*
X861088Y926492D01*
G03X861190Y927037I-1399J544D01*
G03X861088Y927582I-1501J1D01*
G01X861074Y927617D01*
Y927825D01*
G03X860477Y928422I-597J0D01*
G01X860269D01*
X860234Y928436D01*
G03X859691Y928538I-544J-1399D01*
G01X847261D01*
G03X846995Y928515I-4J-1501D01*
G01X846977Y928512D01*
X845889D01*
G03X841402Y931742I-4487J-1502D01*
G03X838082Y930382I0J-4732D01*
G02X837402Y930667I-280J285D01*
G01Y943038D01*
G02X838082Y943323I400J0D01*
G03X841402Y941963I3320J3372D01*
G03X845889Y945194I0J4731D01*
G01X847234D01*
G03X848188Y945536I0J1502D01*
G01X858940D01*
Y944406D01*
X858778Y944374D01*
G03X858296Y943788I116J-586D01*
G01Y942212D01*
G03X858893Y941614I598J0D01*
G01X860469D01*
G03X860522Y941617I-7J598D01*
G01X860615Y941625D01*
X860786Y941455D01*
G03X860739Y941334I664J-328D01*
G01X860021Y940616D01*
X858893D01*
G03X858306Y940132I0J-598D01*
G01X858275Y939970D01*
X856536D01*
G03X855826Y940202I-710J-970D01*
G03Y937798I0J-1202D01*
G03X856863Y938393I0J1201D01*
G01X856921Y938492D01*
X858275D01*
X858306Y938330D01*
G03X858893Y937846I587J114D01*
G01X860469D01*
G03X861066Y938443I-1J598D01*
G01Y939571D01*
X861255Y939760D01*
G02X861938Y939477I283J-283D01*
G01Y938443D01*
G03X862535Y937846I597J0D01*
G01X864111D01*
G03X864708Y938443I-1J598D01*
G01Y940019D01*
G03X864111Y940616I-598J0D01*
G01X862535D01*
G03X862482Y940614I-4J-598D01*
G01X862389Y940606D01*
X862181Y940813D01*
X862610Y941242D01*
X862983Y941614D01*
X864111D01*
G03X864708Y942212I-1J598D01*
G01Y943788D01*
G03X864111Y944386I-598J0D01*
G01X862535D01*
G03X861938Y943788I1J-598D01*
G01Y942661D01*
X861737Y942459D01*
G02X861066Y942754I-271J295D01*
G01Y943788D01*
G03X860581Y944375I-598J0D01*
G01X860418Y944406D01*
Y945266D01*
G03X860420Y945314I-737J55D01*
G01Y945631D01*
X860582Y945662D01*
G03X861066Y946249I-114J587D01*
G01Y946457D01*
X861080Y946492D01*
G03X861182Y947037I-1399J544D01*
G03X861080Y947582I-1501J1D01*
G01X861066Y947617D01*
Y947825D01*
G03X860469Y948422I-597J0D01*
G01X860261D01*
X860226Y948436D01*
G03X859683Y948538I-544J-1399D01*
G01X847576D01*
G03X846622Y948196I0J-1502D01*
G01X845889D01*
G03X841402Y951427I-4487J-1500D01*
G03X838082Y950067I0J-4732D01*
G02X837402Y950352I-280J285D01*
G01Y962724D01*
G02X838082Y963009I400J0D01*
G03X841402Y961649I3320J3372D01*
G03X845889Y964880I0J4731D01*
G01X847236D01*
G03X848296Y965319I-1J1501D01*
G01X850002Y967026D01*
X858083D01*
X858817Y966292D01*
X858820Y966214D01*
G03X859106Y965729I597J26D01*
G02X859285Y965286I-208J-342D01*
G03X859261Y965099I715J-187D01*
G01Y962253D01*
G03X858098Y960500I740J-1753D01*
G03X858902Y958947I1902J0D01*
G02X859026Y958435I-231J-327D01*
G03X858942Y958093I654J-342D01*
G01Y955906D01*
X858780Y955875D01*
G03X858296Y955288I114J-587D01*
G01Y953712D01*
G03X858893Y953114I598J0D01*
G01X860469D01*
G03X860522Y953117I-7J598D01*
G01X860615Y953125D01*
X860786Y952955D01*
G03X860739Y952834I664J-328D01*
G01X860021Y952116D01*
X858893D01*
G03X858306Y951632I0J-598D01*
G01X858275Y951470D01*
X857712D01*
X857662Y951503D01*
G03X857000Y951702I-662J-1002D01*
G03Y949298I0J-1202D01*
G03X857826Y949627I0J1201D01*
G02X858419Y949580I275J-290D01*
G03X858893Y949346I474J364D01*
G01X860469D01*
G03X861066Y949943I-1J598D01*
G01Y951071D01*
X861255Y951260D01*
G02X861938Y950977I283J-283D01*
G01Y949943D01*
G03X862535Y949346I597J0D01*
G01X864111D01*
G03X864708Y949943I-1J598D01*
G01Y951519D01*
G03X864111Y952116I-598J-1D01*
G01X862535D01*
G03X862482Y952114I-4J-598D01*
G01X862389Y952106D01*
X862181Y952313D01*
X862610Y952742D01*
X862983Y953114D01*
X864111D01*
G03X864708Y953712I-1J598D01*
G01Y955288D01*
G03X864111Y955886I-598J0D01*
G01X862535D01*
G03X861938Y955288I1J-598D01*
G01Y954161D01*
X861737Y953959D01*
G02X861066Y954254I-271J295D01*
G01Y955288D01*
G03X860582Y955875I-598J0D01*
G01X860420Y955906D01*
Y957787D01*
X860523Y957889D01*
G03X860739Y958410I-523J522D01*
G01Y958747D01*
G03Y962253I-740J1753D01*
G01Y964793D01*
G03X860944Y965304I-534J511D01*
G01Y965621D01*
X861106Y965652D01*
G03X861590Y966239I-114J587D01*
G01Y966447D01*
X861604Y966482D01*
G03X861706Y967027I-1399J544D01*
G03X861604Y967572I-1501J1D01*
G01X861590Y967607D01*
Y967815D01*
G03X861018Y968412I-598J0D01*
G01X860940Y968415D01*
X859767Y969589D01*
G03X859336Y969889I-1060J-1063D01*
G02X859254Y970564I168J363D01*
G03X859702Y971500I-754J936D01*
G03X857298I-1202J0D01*
G03X857606Y970696I1203J0D01*
G02X857309Y970028I-297J-268D01*
G01X849378D01*
G03X848318Y969589I1J-1501D01*
G01X846612Y967882D01*
X845889D01*
G03X841402Y971113I-4487J-1500D01*
G03X838082Y969753I0J-4732D01*
G02X837402Y970038I-280J285D01*
G01Y982409D01*
G02X838082Y982694I400J0D01*
G03X841402Y981334I3320J3372D01*
G03Y990798I0J4732D01*
G03X838082Y989438I0J-4732D01*
G02X837402Y989723I-280J285D01*
G01Y1002094D01*
G02X838082Y1002379I400J0D01*
G03X841402Y1001019I3320J3372D01*
G03Y1010483I0J4732D01*
G03X838082Y1009123I0J-4732D01*
G02X837402Y1009408I-280J285D01*
G01Y1017217D01*
G02X838084Y1017499I400J-1D01*
G01X839585Y1015998D01*
X849117D01*
G02X849399Y1015316I-1J-400D01*
G01X848998Y1014915D01*
Y993585D01*
X851085Y991498D01*
X851748D01*
Y984000D01*
G03X852115Y983115I1252J1D01*
G01X857115Y978115D01*
G03X858000Y977748I886J885D01*
G03X858554Y977878I-1J1252D01*
G01X858596Y977898D01*
X860000D01*
G03X860737Y978182I-1J1102D01*
G01X861541D01*
G03X861942Y978583I0J401D01*
G01Y979481D01*
X861958Y979518D01*
G03X862042Y979939I-1017J422D01*
G01Y980455D01*
G03X861958Y980876I-1101J-1D01*
G01X861942Y980913D01*
Y982325D01*
G03X861760Y982660I-401J-1D01*
G02X861694Y983278I217J336D01*
G01X862783Y984367D01*
X862832Y984381D01*
G03X863369Y984918I-226J763D01*
G01X863383Y984967D01*
X863502Y985085D01*
Y989415D01*
X862101Y990816D01*
G02X862383Y991498I283J282D01*
G01X864415D01*
X865265Y992348D01*
X866106D01*
G03X866902Y993144I0J796D01*
G01Y993985D01*
X867002Y994085D01*
Y996915D01*
X866883Y997033D01*
X866869Y997082D01*
G03X866332Y997619I-763J-226D01*
G01X866283Y997633D01*
X865259Y998657D01*
G02X865401Y998998I142J141D01*
G01X865415D01*
X866379Y999963D01*
G03X867499Y999598I1120J1537D01*
G01X867500D01*
G03X869253Y1000761I0J1903D01*
G01X870002D01*
G03X870523Y1000977I-1J739D01*
G01X874536Y1004990D01*
G03X874752Y1005511I-523J522D01*
G01Y1007790D01*
G03X875004Y1008278I-347J488D01*
G01Y1010246D01*
G03X874858Y1010638I-599J0D01*
G02X874842Y1011143I302J262D01*
G03X875004Y1011624I-633J481D01*
G01Y1011996D01*
X875000Y1012000D01*
X868000D01*
X865000Y1009000D01*
X864000D01*
X862000Y1007000D01*
Y1003500D01*
X861000Y1002500D01*
X859000D01*
X858500Y1003000D01*
Y1012000D01*
X859500Y1013000D01*
X865000D01*
X867000Y1015000D01*
X874000D01*
X874577Y1015577D01*
X874617Y1015592D01*
G03X875004Y1016152I-212J560D01*
G01Y1018120D01*
G03X874752Y1018608I-599J0D01*
G01Y1020207D01*
X876513Y1021968D01*
X876602Y1021964D01*
G03X876664Y1021962I70J1200D01*
G01X876665D01*
G03X877216Y1022096I-1J1202D01*
G01X877308Y1022118D01*
X877472Y1022033D01*
G03X877961Y1021778I490J343D01*
G01X879537D01*
G03X880134Y1022376I-1J598D01*
G01Y1023952D01*
G03X880082Y1024197I-598J1D01*
G02X880446Y1024761I365J164D01*
G01X881000D01*
G03X881074Y1024765I-3J739D01*
G02X881222Y1024412I20J-199D01*
G03X881006Y1023952I382J-460D01*
G01Y1022376D01*
G03X881603Y1021778I598J0D01*
G01X883179D01*
G03X883510Y1021879I-2J598D01*
G01X883561Y1021912D01*
X884336D01*
X884339Y1021913D01*
G02X884540Y1021713I1J-200D01*
G01Y1020812D01*
X884449Y1020722D01*
X883321D01*
G03X882734Y1020237I0J-598D01*
G01X882703Y1020075D01*
X882386D01*
G03X882310Y1020071I1J-739D01*
G01X882300Y1020070D01*
X880369D01*
X880338Y1020232D01*
G03X879751Y1020716I-587J-114D01*
G01X878175D01*
G03X877578Y1020119I0J-598D01*
G01Y1018543D01*
G03X878175Y1017946I597J0D01*
G01X879751D01*
G03X880338Y1018430I0J598D01*
G01X880369Y1018592D01*
X882381D01*
G03X882457Y1018596I-1J739D01*
G01X882467Y1018597D01*
X882703D01*
X882734Y1018435D01*
G03X883321Y1017950I587J113D01*
G01X884897D01*
G03X885494Y1018548I-1J598D01*
G01Y1019676D01*
X885802Y1019983D01*
G03X885980Y1020273I-524J521D01*
G02X886017Y1020339I190J-63D01*
G02X886011Y1020389I194J49D01*
G01X886012Y1020413D01*
G03X886018Y1020506I-733J94D01*
G01Y1021473D01*
X888280Y1023735D01*
X888398Y1023696D01*
G03X889000Y1023598I603J1804D01*
G03Y1027402I0J1902D01*
G03X888398Y1027304I1J-1902D01*
G01X888280Y1027265D01*
X888046Y1027500D01*
G03X887525Y1027716I-522J-523D01*
G01X882475D01*
G03X881954Y1027500I1J-739D01*
G01X880694Y1026239D01*
X876914D01*
G03X876393Y1026023I1J-739D01*
G01X873540Y1023169D01*
G02X872865Y1023373I-283J283D01*
G03X871000Y1024902I-1865J-373D01*
G03X869098Y1023000I0J-1902D01*
G03X870987Y1021098I1902J0D01*
G01X871070D01*
X871269Y1020898D01*
X870931Y1020561D01*
G03X870715Y1020040I523J-522D01*
G01Y1018608D01*
G03X870462Y1018120I346J-489D01*
G01Y1016152D01*
G03X870473Y1016042I599J4D01*
G02X870080Y1015568I-393J-74D01*
G01X869788D01*
Y1015820D01*
X869813Y1015865D01*
G03X869829Y1015896I-524J290D01*
G01X869844Y1015928D01*
X870002Y1016085D01*
Y1019915D01*
X866915Y1023002D01*
X864714D01*
X864690Y1023173D01*
G03X864457Y1023728I-1190J-173D01*
G02X864508Y1024267I318J242D01*
G03X864706Y1024711I-400J445D01*
G01Y1026288D01*
G03X864109Y1026886I-598J0D01*
G01X862533D01*
G03X861936Y1026288I1J-598D01*
G01Y1024712D01*
G03X862283Y1024169I598J0D01*
G02X862461Y1023605I-167J-363D01*
G03X862379Y1023434I1040J-604D01*
G01X862364Y1023395D01*
X862193Y1023224D01*
X861502Y1023915D01*
Y1031299D01*
G03X861778Y1032287I-1626J987D01*
G03X861502Y1033275I-1902J1D01*
G01Y1035067D01*
G02X862060Y1035434I400J0D01*
G03X862537Y1035335I478J1103D01*
G03X863739Y1036537I0J1202D01*
G01Y1036540D01*
G03X863617Y1037066I-1202J-2D01*
G02X863976Y1037642I359J176D01*
G01X864127D01*
G03X864724Y1038239I-1J598D01*
G01Y1039815D01*
G03X864127Y1040412I-598J0D01*
G01X862551D01*
G03X861954Y1039815I0J-597D01*
G01Y1038239D01*
G03X861999Y1038010I598J-1D01*
G02X861856Y1037528I-369J-153D01*
G03X861821Y1037502I699J-978D01*
G01X861702Y1037463D01*
G02X861502Y1037662I0J200D01*
G01Y1040915D01*
X859415Y1043002D01*
X853915D01*
X848415Y1048502D01*
X844713D01*
G03X844392Y1048789I-3311J-3381D01*
G02X844645Y1049498I253J309D01*
G01X858098D01*
Y1047287D01*
G03X859287Y1046098I1189J0D01*
G01X865713D01*
G03X866902Y1047287I0J1189D01*
G01Y1052911D01*
G02X867560Y1053216I400J-1D01*
G03X868335Y1052932I776J918D01*
G03Y1055336I0J1202D01*
G03X867485Y1054984I0J-1202D01*
G02X866827Y1055127I-283J282D01*
G03X866502Y1055602I-1114J-414D01*
G01Y1060415D01*
X865801Y1061116D01*
G02X865695Y1061305I283J283D01*
G01X861500Y1065500D01*
Y1067000D01*
X862500Y1068000D01*
X871468D01*
G03X871200Y1068102I-268J-301D01*
G01X866752D01*
G02X866440Y1068751I1J400D01*
G03X866702Y1069500I-940J749D01*
G03X865895Y1070635I-1202J0D01*
G02X865645Y1071135I131J378D01*
G03X865702Y1071500I-1145J366D01*
G03X865615Y1071949I-1202J0D01*
G02X865986Y1072498I371J149D01*
G01X880415D01*
X881502Y1073585D01*
Y1095085D01*
X881915Y1095498D01*
X896327D01*
G03X905769I4721J3291D01*
G37*
G36*
G01X843415Y1076998D02*
X860585D01*
X864421Y1073163D01*
X864436Y1073131D01*
G03X864503Y1073029I365J167D01*
G02X864376Y1072696I-148J-134D01*
G03X863750Y1072439I125J-1196D01*
G02X863250I-250J313D01*
G03X862500Y1072702I-750J-938D01*
G03X861298Y1071500I0J-1202D01*
G03X861795Y1070527I1201J0D01*
G02X861920Y1070027I-235J-324D01*
G03X861798Y1069500I1080J-528D01*
G03X863000Y1068298I1202J0D01*
G03X863938Y1068748I0J1203D01*
G02X864562I312J-250D01*
G03X864647Y1068653I937J753D01*
G02X864581Y1068036I-284J-282D01*
G03X864398Y1067700I219J-337D01*
G01Y1063483D01*
G02X863716Y1063201I-400J1D01*
G01X857415Y1069502D01*
X845903D01*
X845870Y1069514D01*
G03X845732Y1069538I-137J-378D01*
G01X837402D01*
Y1070985D01*
X843415Y1076998D01*
G37*
G36*
G01X848690Y1113018D02*
X926000D01*
Y1113000D01*
X940387D01*
G02X940535Y1112229I-1J-400D01*
G03X929092Y1095318I6773J-16910D01*
G03X945626Y1077179I18217J0D01*
G03X947307Y1076648I1680J2392D01*
G03X948988Y1077179I1J2923D01*
G03X964229Y1088570I-1680J18139D01*
G02X965000Y1088422I371J-149D01*
G01Y1086541D01*
X964460Y1085360D01*
X963110Y1084040D01*
X961720Y1082320D01*
X961300Y1079880D01*
Y1076870D01*
X961910Y1075580D01*
X964290Y1073190D01*
X964970Y1072530D01*
X967500Y1070000D01*
X967510D01*
X969320Y1068190D01*
X969460Y1067900D01*
X969500Y1067830D01*
Y845000D01*
X965000Y840500D01*
X963830Y839360D01*
X963320Y838800D01*
X962420Y838080D01*
X961410Y836260D01*
X961360Y833170D01*
X961530Y831810D01*
X962000Y830750D01*
X962720Y829730D01*
X963330Y829260D01*
X964530Y828000D01*
X965000Y826660D01*
Y811320D01*
X964680Y808980D01*
X963590Y806170D01*
X962100Y803660D01*
X960290Y802140D01*
X957720Y800720D01*
X957180Y800500D01*
X882500D01*
X882000Y801000D01*
Y801674D01*
X882274D01*
X882330Y801626D01*
G03X886884Y803730I1791J2105D01*
G01Y807668D01*
G03X882618Y809986I-2763J-1D01*
G02X882000Y810322I-218J336D01*
G01Y817612D01*
G02X882618Y817948I400J0D01*
G03X886299Y818566I1503J2319D01*
G02X886897Y818603I315J-246D01*
G01X891500Y814000D01*
X910500D01*
X915159Y818659D01*
G02X915763Y818615I283J-283D01*
G03X920742Y820266I2216J1652D01*
G01Y824242D01*
X922000Y825500D01*
X929000D01*
X940000Y836500D01*
X958000D01*
X965034Y843534D01*
X965096Y843545D01*
G03X965420Y843869I-71J395D01*
G01X965431Y843931D01*
X966000Y844500D01*
Y1068500D01*
X959500Y1075000D01*
X935000D01*
X913500Y1096500D01*
X906905D01*
G02X906525Y1097023I1J400D01*
G03X895571I-5477J1766D01*
G02X895191Y1096500I-381J-123D01*
G01X888224D01*
G02X888017Y1097242I0J400D01*
G03X889442Y1099773I-1535J2531D01*
G01Y1105679D01*
G03X883520I-2961J0D01*
G01Y1099773D01*
G03X884945Y1097242I2960J0D01*
G02X884738Y1096500I-207J-342D01*
G01X881500D01*
X880500Y1095500D01*
Y1079193D01*
X880283D01*
X880267Y1079196D01*
G03X880200Y1079202I-69J-396D01*
G01X873800D01*
G03X873398Y1078800I0J-402D01*
G01Y1073500D01*
X871602D01*
Y1078800D01*
G03X871200Y1079202I-402J0D01*
G01X864800D01*
G03X864398Y1078800I0J-402D01*
G01Y1075567D01*
G02X863716Y1075284I-400J0D01*
G01X861000Y1078000D01*
X843000D01*
X841007Y1076007D01*
G02X840348Y1076425I-282J283D01*
G01X840730Y1077490D01*
X840680Y1080180D01*
Y1080640D01*
X840330Y1081800D01*
X839990Y1082350D01*
X839670Y1082840D01*
X839410Y1083180D01*
X838920Y1083640D01*
X838560Y1083910D01*
X838190Y1084180D01*
X837960Y1084380D01*
X837640Y1084750D01*
X837380Y1085190D01*
X837280Y1085440D01*
X837190Y1085710D01*
X837150Y1085890D01*
X837120Y1086140D01*
X837110Y1086270D01*
X837088Y1086410D01*
Y1100430D01*
X837100Y1100450D01*
Y1102720D01*
X837120Y1102900D01*
X837150Y1103210D01*
X837270Y1104100D01*
X837380Y1104660D01*
X837640Y1105500D01*
X839040Y1108140D01*
X840600Y1110050D01*
X842090Y1111210D01*
X844070Y1112160D01*
X846510Y1112720D01*
X847590Y1112990D01*
X848690Y1113018D01*
G37*
G36*
G01X851500Y1016000D02*
X855500D01*
X857500Y1014000D01*
Y1003000D01*
X859500Y1001000D01*
X861500D01*
X866000Y996500D01*
Y994500D01*
X864000Y992500D01*
X851500D01*
X850000Y994000D01*
Y1014500D01*
X851500Y1016000D01*
G37*
G36*
G01X846137Y1047500D02*
X848000D01*
X853500Y1042000D01*
X859000D01*
X860500Y1040500D01*
Y1023500D01*
X862000Y1022000D01*
X862833D01*
G03X864167I667J1000D01*
G01X866500D01*
X869000Y1019500D01*
Y1016500D01*
X868500Y1016000D01*
X858500D01*
X857500Y1017000D01*
X840000D01*
X838000Y1019000D01*
Y1021274D01*
G02X838634Y1021598I400J0D01*
G03X841402Y1020704I2768J3838D01*
G03Y1030168I0J4732D01*
G03X838634Y1029274I0J-4732D01*
G02X838000Y1029598I-234J324D01*
G01Y1040959D01*
G02X838634Y1041283I400J0D01*
G03X841402Y1040389I2768J3838D01*
G03X846134Y1045121I0J4732D01*
G03X845768Y1046946I-4733J0D01*
G02X846137Y1047500I369J154D01*
G37*
G36*
G01X846134Y1068500D02*
X857000D01*
X865500Y1060000D01*
Y1050500D01*
X840000D01*
X838000Y1052500D01*
Y1060074D01*
X845732D01*
G03X846134Y1060476I1J401D01*
G01Y1068500D01*
G37*
G36*
G01X862500Y989000D02*
Y985500D01*
X861000Y984000D01*
X856000D01*
X854500Y985500D01*
Y989000D01*
X856000Y990500D01*
X861000D01*
X862500Y989000D01*
G37*
G36*
G01X867500Y1010000D02*
X869000D01*
X869500Y1009500D01*
Y1004500D01*
X868500Y1003500D01*
X867000D01*
X866747Y1003247D01*
X866714Y1003232D01*
G03X865768Y1002286I786J-1732D01*
G01X865753Y1002253D01*
X865500Y1002000D01*
Y1000500D01*
X865000Y1000000D01*
X863500D01*
X863000Y1000500D01*
Y1003500D01*
X863500Y1004000D01*
Y1007000D01*
X865000Y1008500D01*
X866000D01*
X867500Y1010000D01*
G37*
G36*
G01X872347Y1010830D02*
X872639D01*
G02X873032Y1010356I0J-400D01*
G03X873022Y1010246I588J-109D01*
G01Y1008278D01*
G03X873274Y1007790I599J0D01*
G01Y1005819D01*
X869694Y1002239D01*
X869253D01*
G03X869037Y1002621I-1753J-739D01*
G01X870502Y1004085D01*
Y1007292D01*
G02X870965Y1007687I400J0D01*
G03X871061Y1007680I91J591D01*
G01X871847D01*
G03X872446Y1008278I0J599D01*
G01Y1010246D01*
G03X872372Y1010533I-599J-1D01*
G01X872347Y1010578D01*
Y1010830D01*
G37*
G36*
G01X858502Y1003415D02*
Y1008578D01*
G02X859141Y1008899I400J0D01*
G03X859617Y1008740I477J637D01*
G01X862859D01*
G02X863141Y1008058I-1J-400D01*
G01X862498Y1007415D01*
Y1004415D01*
X862201Y1004117D01*
X861964Y1004354D01*
X862017Y1004478D01*
G03X862064Y1004712I-551J232D01*
G01Y1006288D01*
G03X861467Y1006886I-598J0D01*
G01X859891D01*
G03X859294Y1006288I1J-598D01*
G01Y1004712D01*
G03X859891Y1004114I598J0D01*
G01X861467D01*
G03X861546Y1004120I-6J598D01*
G02X861998Y1003723I52J-396D01*
G01Y1002002D01*
X859915D01*
X858502Y1003415D01*
G37*
G36*
G01X858401Y1014998D02*
X867904D01*
Y1014793D01*
Y1011624D01*
G03X867917Y1011476I795J-5D01*
G02X867525Y1011002I-393J-74D01*
G01X867085D01*
X865585Y1009502D01*
X865124D01*
Y1012748D01*
G03X864329Y1013544I-796J0D01*
G01X859617D01*
G03X859141Y1013385I1J-796D01*
G02X858502Y1013706I-239J321D01*
G01Y1014415D01*
X858259Y1014657D01*
G02X858401Y1014998I142J141D01*
G37*
G36*
G01X880500Y1076000D02*
X879000Y1074500D01*
X865000D01*
X861500Y1078000D01*
Y1080000D01*
X863000Y1081500D01*
X879000D01*
X880500Y1080000D01*
Y1076000D01*
G37*
G36*
G01X882500Y834500D02*
X890000D01*
X897000Y827500D01*
X906000D01*
X910000Y831500D01*
X913000D01*
X914000Y830500D01*
Y826000D01*
X912000Y824000D01*
X886884D01*
Y824204D01*
G03X885175Y826758I-2763J0D01*
G02X885121Y827471I152J370D01*
G03X885250Y827561I-622J1029D01*
G02X885750I250J-313D01*
G03X886500Y827298I750J938D01*
G03X887027Y827420I-1J1202D01*
G02X887527Y827295I176J-360D01*
G03X888500Y826798I973J704D01*
G03Y829202I0J1202D01*
G03X887973Y829080I1J-1202D01*
G02X887473Y829205I-176J360D01*
G03X886500Y829702I-973J-704D01*
G03X885750Y829439I0J-1201D01*
G02X885250I-250J313D01*
G03X883750I-750J-938D01*
G02X883250I-250J313D01*
G03X882500Y829702I-750J-938D01*
G03X882050Y829614I1J-1202D01*
G02X881500Y829985I-150J371D01*
G01Y833500D01*
X882500Y834500D01*
G37*
G36*
G01X884806Y929761D02*
X889338D01*
G02X889621Y929078I0J-400D01*
G01X887282Y926739D01*
X886253D01*
G03X884500Y927902I-1753J-740D01*
G03X884157Y927871I-1J-1902D01*
G02X883689Y928323I-72J393D01*
G03X883702Y928500I-1189J176D01*
G03X883700Y928562I-1202J-8D01*
G01X883696Y928651D01*
X884806Y929761D01*
G37*
G36*
G01X872500Y921500D02*
Y924500D01*
X874500Y926500D01*
Y931500D01*
X875500Y932500D01*
X879000D01*
X880000Y931500D01*
Y923500D01*
X877500Y921000D01*
X873000D01*
X872500Y921500D01*
G37*
G36*
G01X882783Y1026238D02*
X886723D01*
G02X887119Y1025779I0J-400D01*
G03X887098Y1025500I1881J-282D01*
G03X887196Y1024898I1902J1D01*
G01X887235Y1024780D01*
X886089Y1023634D01*
G02X885450Y1023734I-283J283D01*
G03X884336Y1024416I-1114J-569D01*
G01X883561D01*
X883510Y1024449D01*
G03X883179Y1024550I-333J-497D01*
G01X881603D01*
G03X881573Y1024549I5J-598D01*
G02X881443Y1024909I-10J200D01*
G03X881523Y1024977I-437J596D01*
G01X882783Y1026238D01*
G37*
G36*
G01X955607Y1004650D02*
X956089D01*
X956130Y1004503D01*
G03X960694Y1001020I4564J1249D01*
G03X964294Y1002681I0J4732D01*
G02X964998Y1002422I304J-260D01*
G01Y989397D01*
G02X964294Y989138I-400J1D01*
G03X960694Y990799I-3600J-3071D01*
G03X955962Y986067I0J-4732D01*
G03X956661Y983592I4731J0D01*
G01X955931Y982862D01*
X937546D01*
X936929Y983479D01*
G03X936150Y983802I-779J-778D01*
G01X935452D01*
Y984306D01*
G03X934656Y985102I-796J0D01*
G01X930944D01*
G03X930148Y984306I0J-796D01*
G01Y983439D01*
X929106D01*
X926545Y986000D01*
X929506Y988961D01*
X930148D01*
Y988094D01*
G03X930944Y987298I796J0D01*
G01X934656D01*
G03X935452Y988094I0J796D01*
G01Y988598D01*
X937815D01*
G02X938193Y988067I0J-400D01*
G03X938148Y987806I751J-264D01*
G01Y984594D01*
G03X938944Y983798I796J0D01*
G01X942656D01*
G03X943452Y984594I0J796D01*
G01Y987806D01*
G03X942656Y988602I-796J0D01*
G01X940524D01*
G02X940241Y989284I0J400D01*
G01X955607Y1004650D01*
G37*
G36*
G01X941000Y1068000D02*
X956389D01*
G02X956724Y1067382I0J-400D01*
G03X955962Y1064807I3970J-2575D01*
G03X960694Y1060075I4732J0D01*
G03X963674Y1061131I0J4733D01*
G01X963729Y1061176D01*
X964000D01*
Y1060500D01*
X950500Y1047000D01*
X941500D01*
X938000Y1050500D01*
Y1065000D01*
X941000Y1068000D01*
G37*
%LPC*%
G75*
G36*
G01X925851Y837432D02*
X925910Y837494D01*
G02X927286Y838083I1376J-1313D01*
G02Y834279I0J-1902D01*
G02X926159Y834649I0J1901D01*
G01X926021Y834751D01*
X925385Y834115D01*
G02X924500Y833748I-886J885D01*
G02X923248Y835000I0J1252D01*
G02X923615Y835885I1252J-1D01*
G01X924796Y837066D01*
G02X925680Y837432I884J-885D01*
G01X925851D01*
G37*
G36*
G01X861958Y846315D02*
G02X862555Y846912I597J0D01*
G01X864131D01*
G02X864728Y846315I0J-597D01*
G01Y844739D01*
G02X864131Y844142I-597J0D01*
G01X862555D01*
G02X861958Y844739I1J597D01*
G01Y846315D01*
G37*
G36*
G01X879093Y852786D02*
G02X878198Y854400I1008J1614D01*
G02X882002I1902J0D01*
G02X881878Y853725I-1902J0D01*
G03X882314Y853188I374J-142D01*
G02X882500Y853202I183J-1188D01*
G02Y850798I0J-1202D01*
G02X881752Y851059I0J1202D01*
G03X881128Y850884I-249J-313D01*
G02X880512Y850213I-1127J417D01*
G03X880412Y849956I85J-181D01*
G02X880502Y849500I-1112J-456D01*
G02X878098I-1202J0D01*
G02X878788Y850587I1201J0D01*
G03X878888Y850844I-85J181D01*
G02X878798Y851300I1112J456D01*
G02X879161Y852161I1203J0D01*
G03X879093Y852786I-280J286D01*
G37*
G36*
G01X858383Y864102D02*
G02X858891Y864386I509J-314D01*
G01X860467D01*
G02X861064Y863788I-1J-598D01*
G01Y862212D01*
G02X861061Y862147I-598J-5D01*
G03X861066Y862076I199J-22D01*
G03X861031Y862015I153J-128D01*
G02X860467Y861614I-565J197D01*
G01X858891D01*
G02X858383Y861898I1J598D01*
G03X858111Y861965I-170J-105D01*
G02X857500Y861798I-611J1034D01*
G02Y864202I0J1202D01*
G02X858111Y864035I0J-1201D01*
G03X858383Y864102I102J172D01*
G37*
G36*
G01X936194Y868888D02*
G02X936791Y869486I598J0D01*
G01X938367D01*
G02X938964Y868888I-1J-598D01*
G01Y867312D01*
G02X938367Y866714I-598J0D01*
G01X936791D01*
G02X936194Y867312I1J598D01*
G01Y868888D01*
G37*
G36*
G01X877936Y874288D02*
G02X878533Y874886I598J0D01*
G01X880109D01*
G02X880706Y874288I-1J-598D01*
G01Y872712D01*
G02X880109Y872114I-598J0D01*
G01X878533D01*
G02X877936Y872712I1J598D01*
G01Y874288D01*
G37*
G36*
G01X893084Y875236D02*
G02X893681Y875834I598J0D01*
G01X895257D01*
G02X895854Y875236I-1J-598D01*
G01Y873660D01*
G02X895257Y873062I-598J0D01*
G01X893681D01*
G02X893084Y873660I1J598D01*
G01Y875236D01*
G37*
G36*
G01X897612Y875906D02*
X899188D01*
G02X899786Y875309I0J-598D01*
G01Y873733D01*
G02X899188Y873136I-598J1D01*
G01X897612D01*
G02X897014Y873733I0J598D01*
G01Y875309D01*
G02X897612Y875906I598J-1D01*
G37*
G36*
G01X858403Y878132D02*
G02X858891Y878386I489J-344D01*
G01X860467D01*
G02X861064Y877788I-1J-598D01*
G01Y876212D01*
G02X860467Y875614I-598J0D01*
G01X858891D01*
G02X858403Y875868I1J598D01*
G02X858000Y875798I-404J1132D01*
G02Y878202I0J1202D01*
G02X858403Y878132I-1J-1202D01*
G37*
G36*
G01X882384Y881116D02*
X883960D01*
G02X884558Y880519I0J-598D01*
G01Y878943D01*
G02X883960Y878346I-598J1D01*
G01X882384D01*
G02X881786Y878943I0J598D01*
G01Y880519D01*
G02X882384Y881116I598J-1D01*
G37*
G36*
G01X939732Y882402D02*
G02X940898Y882802I1167J-1502D01*
G01X940900D01*
G02Y878998I0J-1902D01*
G01X940898D01*
G02X939732Y879398I1J1902D01*
G01X938105D01*
G02X937324Y879178I-782J1281D01*
G01X937321D01*
G02X935820Y880679I0J1501D01*
G01Y880681D01*
G02X936259Y881741I1501J-1D01*
G01X936480Y881962D01*
G02X937542Y882402I1062J-1062D01*
G01X939732D01*
G37*
G36*
G01X931696Y880398D02*
G02X931598Y881000I1804J603D01*
G02X933500Y879098I1902J0D01*
G02X932898Y879196I1J1902D01*
G01X932780Y879235D01*
X926349Y872803D01*
G02X925828Y872587I-522J523D01*
G01X924576D01*
G03X924307Y871891I0J-400D01*
G02X924702Y871000I-807J-891D01*
G02X923500Y869798I-1202J0D01*
G02X923438Y869800I8J1202D01*
G01X923349Y869804D01*
X923128Y869583D01*
G03X923426Y868901I283J-282D01*
G02X923500Y868902I63J-1901D01*
G02X925402Y867000I0J-1902D01*
G02X924239Y865247I-1903J0D01*
G01Y864910D01*
G02X924023Y864389I-739J1D01*
G01X920611Y860977D01*
G02X920090Y860761I-522J523D01*
G01X906549D01*
G03X906267Y860078I1J-400D01*
G01X908606Y857739D01*
X922645D01*
G03X922881Y858462I0J400D01*
G02X922098Y860000I1119J1538D01*
G02X925902I1902J0D01*
G02X925119Y858462I-1902J0D01*
G03X925355Y857739I236J-323D01*
G01X936502D01*
G02X937023Y857523I-1J-739D01*
G01X940523Y854023D01*
G02X940739Y853502I-523J-522D01*
G01Y846753D01*
G02X941902Y845000I-740J-1753D01*
G02X938098I-1902J0D01*
G02X939261Y846753I1903J0D01*
G01Y853194D01*
X939080Y853375D01*
G03X938739Y853233I-141J-142D01*
G01Y849998D01*
G02X938523Y849477I-739J1D01*
G01X934239Y845194D01*
Y841253D01*
G02X935402Y839500I-740J-1753D01*
G02X931598I-1902J0D01*
G02X932761Y841253I1903J0D01*
G01Y845502D01*
G02X932977Y846023I739J-1D01*
G01X935306Y848351D01*
G03X934937Y849025I-282J283D01*
G02X934418Y848968I-520J2345D01*
G02X933447Y849173I0J2402D01*
G01X933322Y849228D01*
X925426Y841333D01*
X925411Y841282D01*
G02X925223Y840959I-712J198D01*
G01X924914Y840651D01*
X924918Y840562D01*
G02X924920Y840500I-1200J-70D01*
G02X923718Y839298I-1202J0D01*
G02X923050Y839501I0J1202D01*
G03X922739Y839335I-111J-166D01*
G01Y838948D01*
G02X923202Y838000I-739J-948D01*
G02X920798I-1202J0D01*
G02X921261Y838948I1202J0D01*
G01Y840866D01*
G02X921266Y840953I739J1D01*
G03X921013Y841169I-199J23D01*
G02X920500Y841098I-515J1831D01*
G02Y844902I0J1902D01*
G02X922389Y843218I0J-1901D01*
G03X923070Y842981I398J45D01*
G01X925822Y845733D01*
Y849080D01*
X925694Y849130D01*
G02X924159Y851370I867J2240D01*
G02X928963I2402J0D01*
G02X927428Y849130I-2402J0D01*
G01X927300Y849080D01*
Y846262D01*
G03X927983Y845980I400J1D01*
G01X932276Y850274D01*
X932221Y850399D01*
G02X932016Y851370I2197J971D01*
G02X936820I2402J0D01*
G02X936385Y849992I-2402J1D01*
G01X936690Y849735D01*
X937261Y850306D01*
Y853694D01*
X935694Y855261D01*
X921249D01*
G03X920967Y854578I1J-400D01*
G01X921849Y853696D01*
X921938Y853700D01*
G02X922000Y853702I70J-1200D01*
G02Y851298I0J-1202D01*
G01X921998D01*
G02X921609Y851363I1J1202D01*
G03X921083Y851040I-130J-378D01*
G02X918704Y848968I-2379J330D01*
G02X917733Y849173I0J2402D01*
G01X917608Y849228D01*
X916357Y847977D01*
G02X915836Y847761I-522J523D01*
G01X909499D01*
G02X909285Y847793I1J739D01*
G01X909170Y847828D01*
X908944Y847601D01*
X911546Y845000D01*
G02X911762Y844479I-523J-522D01*
G01Y844277D01*
G03X912221Y843881I400J0D01*
G02X912500Y843902I282J-1881D01*
G02Y840098I0J-1902D01*
G02X910607Y841815I0J1902D01*
G03X909951Y842082I-398J-39D01*
G02X909175Y841798I-776J918D01*
G02X907973Y843000I0J1202D01*
G02X908436Y843948I1202J0D01*
G01Y844619D01*
X906975Y846080D01*
G03X906311Y845919I-283J-283D01*
G02X904500Y844598I-1811J581D01*
G02X902598Y846500I0J1902D01*
G02X902858Y847459I1902J-1D01*
G03X902513Y848061I-345J202D01*
G01X899300D01*
G02X899126Y848082I1J739D01*
G03X898928Y847756I-48J-194D01*
G02X899402Y846500I-1427J-1256D01*
G02X897500Y848402I-1902J0D01*
G02X897663Y848395I0J-1901D01*
G03X897981Y849076I35J398D01*
G01X894771Y852286D01*
X894653Y852247D01*
G02X894051Y852149I-603J1804D01*
G02X892149Y854051I0J1902D01*
G02X893294Y855796I1902J0D01*
G03X893475Y856372I-160J367D01*
G02X893298Y857000I1026J628D01*
G02X893329Y857271I1202J0D01*
G03X892940Y857761I-390J90D01*
G01X892485D01*
X890886Y856161D01*
Y855033D01*
G02X890288Y854436I-598J1D01*
G01X888712D01*
G02X888652Y854439I0J598D01*
G01X888552Y854449D01*
X888349Y854226D01*
X889076Y853564D01*
X890288D01*
G02X890886Y852967I0J-598D01*
G01Y851391D01*
G02X890401Y850804I-598J0D01*
G01X890239Y850773D01*
Y846998D01*
G02X890023Y846477I-739J1D01*
G01X888265Y844720D01*
X888304Y844602D01*
G02X888402Y844000I-1804J-603D01*
G02X886500Y845902I-1902J0D01*
G02X887102Y845804I-1J-1902D01*
G01X887220Y845765D01*
X888761Y847306D01*
Y850773D01*
X888599Y850804D01*
G02X888114Y851391I113J587D01*
G01Y852441D01*
X887057Y853404D01*
X886855Y853181D01*
X886874Y853083D01*
G02X886886Y852967I-586J-119D01*
G01Y851391D01*
G02X886288Y850794I-598J1D01*
G01X884712D01*
G02X884114Y851391I0J598D01*
G01Y852967D01*
G02X884712Y853564I598J-1D01*
G01X886288D01*
G02X886348Y853561I0J-598D01*
G01X886448Y853551D01*
X886651Y853774D01*
X885924Y854436D01*
X884712D01*
G02X884114Y855033I0J598D01*
G01Y856609D01*
G02X884364Y857094I598J-1D01*
G03X884499Y857576I-233J325D01*
G02X884440Y857865I680J289D01*
G01Y858594D01*
X884278Y858625D01*
G02X883794Y859212I114J587D01*
G01Y860661D01*
X883651Y860804D01*
X883562Y860800D01*
G02X883500Y860798I-70J1200D01*
G02X882440Y861433I0J1202D01*
G03X881805Y861527I-352J-189D01*
G01X879782Y859503D01*
G02X879261Y859287I-522J523D01*
G01X866516D01*
G02X865995Y859503I1J739D01*
G01X863884Y861614D01*
X862981D01*
X862890Y861524D01*
Y859655D01*
X863780Y858765D01*
X863898Y858804D01*
G02X864500Y858902I603J-1804D01*
G02X862598Y857000I0J-1902D01*
G02X862696Y857602I1902J-1D01*
G01X862735Y857720D01*
X861628Y858826D01*
G02X861412Y859347I523J522D01*
G01Y861830D01*
G02X861418Y861923I739J-1D01*
G03X861413Y861997I-198J24D01*
G03X861450Y862063I-153J129D01*
G02X861628Y862353I702J-231D01*
G01X861936Y862660D01*
Y863788D01*
G02X862533Y864386I598J0D01*
G01X864109D01*
G02X864706Y863788I-1J-598D01*
G01Y862883D01*
X866824Y860765D01*
X876611D01*
G03X876852Y861484I-1J400D01*
G02X876098Y863000I1147J1516D01*
G02X877261Y864753I1903J0D01*
G01Y865090D01*
G02X877477Y865611I739J-1D01*
G01X879299Y867432D01*
G03X879016Y868114I-283J282D01*
G01X878533D01*
G02X877936Y868712I1J598D01*
G01Y870288D01*
G02X878533Y870886I598J0D01*
G01X880109D01*
G02X880706Y870288I-1J-598D01*
G01Y869322D01*
G03X881048Y869181I200J0D01*
G01X881147Y869281D01*
G02X881668Y869497I522J-523D01*
G01X892949D01*
G03X893134Y869778I2J200D01*
G02X893084Y870017I548J239D01*
G01Y871594D01*
G02X893681Y872192I598J0D01*
G01X895257D01*
G02X895854Y871594I-1J-598D01*
G01Y870018D01*
G02X895370Y869431I-598J0D01*
G01X895208Y869400D01*
Y868916D01*
X898506Y865618D01*
X898565Y865606D01*
G02X898941Y865405I-146J-725D01*
G01X899249Y865096D01*
X899338Y865100D01*
G02X899400Y865102I70J-1200D01*
G02X900348Y864639I0J-1202D01*
G01X900912D01*
Y864937D01*
X900834Y864997D01*
G02X900098Y866500I1167J1503D01*
G02X900196Y867102I1902J-1D01*
G01X900235Y867220D01*
X899047Y868407D01*
G02X898831Y868928I523J522D01*
G01Y869403D01*
X898740Y869494D01*
X897612D01*
G02X897014Y870091I0J598D01*
G01Y871667D01*
G02X897612Y872264I598J-1D01*
G01X899188D01*
G02X899786Y871667I0J-598D01*
G01Y870539D01*
X900093Y870232D01*
G02X900309Y869711I-523J-522D01*
G01Y869236D01*
X901280Y868265D01*
X901398Y868304D01*
G02X902000Y868402I603J-1804D01*
G02X903902Y866500I0J-1902D01*
G02X903804Y865898I-1902J1D01*
G01X903765Y865780D01*
X906306Y863239D01*
X912144D01*
G03X912466Y863875I-1J400D01*
G02X912098Y864999I1534J1125D01*
G01Y865000D01*
G02X915902I1902J0D01*
G01Y864999D01*
G02X915534Y863875I-1902J1D01*
G03X915856Y863239I323J-236D01*
G01X919403D01*
X920261Y864097D01*
Y868502D01*
G02X920477Y869023I739J-1D01*
G01X922304Y870849D01*
X922300Y870938D01*
G02X922298Y871000I1200J70D01*
G02X922693Y871891I1202J0D01*
G03X922424Y872587I-269J296D01*
G01X917416D01*
G02X916895Y872803I1J739D01*
G01X916579Y873120D01*
G03X915897Y872865I-283J-283D01*
G02X914000Y871098I-1897J135D01*
G02X912098Y873000I0J1902D01*
G02X912301Y873855I1902J0D01*
G03X911944Y874435I-357J180D01*
G01X908368D01*
X907326Y873392D01*
G02X906805Y873176I-522J523D01*
G01X905987D01*
G02X905039Y872713I-948J739D01*
G02X903837Y873915I0J1202D01*
G02X904989Y875116I1202J0D01*
G03X905354Y875637I-16J400D01*
G02X905298Y876000I1146J363D01*
G01Y876031D01*
G03X904829Y876435I-400J10D01*
G02X904619Y876417I-207J1184D01*
G02X903968Y876608I-1J1202D01*
G03X903446Y876530I-217J-336D01*
G02X902300Y875998I-1147J970D01*
G02Y879002I0J1502D01*
G02X903341Y878582I-1J-1502D01*
G03X903868Y878558I277J288D01*
G02X904619Y878821I750J-939D01*
G02X905343Y878579I1J-1202D01*
G03X905979Y878841I240J319D01*
G02X907169Y879871I1190J-172D01*
G02X908371Y878669I0J-1202D01*
G02X908246Y878136I-1202J1D01*
G03X908604Y877558I359J-178D01*
G01X909565D01*
G03X909923Y878136I-1J400D01*
G02X909798Y878669I1077J534D01*
G02X912202I1202J0D01*
G02X912077Y878136I-1202J1D01*
G03X912435Y877558I359J-178D01*
G01X915938D01*
G02X916010Y877556I8J-1001D01*
G03X916224Y877755I14J199D01*
G01Y879455D01*
G02X915574Y880887I1252J1432D01*
G02X919378I1902J0D01*
G02X918728Y879455I-1902J0D01*
G01Y878012D01*
X919301Y877439D01*
G02X919668Y876554I-885J-886D01*
G02X919580Y876093I-1252J0D01*
G01X919565Y876058D01*
Y875820D01*
X920027D01*
X920416Y876208D01*
G02X921124Y876502I709J-708D01*
G01X921857D01*
G02X923474Y877402I1617J-1003D01*
G02X925376Y875500I0J-1902D01*
G02X925013Y874382I-1903J0D01*
G03X925175Y874065I162J-117D01*
G01X925520D01*
X931735Y880280D01*
X931696Y880398D01*
G37*
G36*
G01X869561Y883250D02*
G02X869298Y884000I938J750D01*
G02X871702I1202J0D01*
G02X871439Y883250I-1201J0D01*
G03Y882750I313J-250D01*
G02X871702Y882000I-938J-750D01*
G02X871680Y881771I-1203J0D01*
G03X872234Y881329I393J-76D01*
G02X873000Y881490I766J-1742D01*
G02X874673Y880493I0J-1902D01*
G03X874930Y880406I176J96D01*
G02X875231Y880470I301J-676D01*
G01X878124D01*
X878155Y880632D01*
G02X878742Y881116I587J-114D01*
G01X880318D01*
G02X880916Y880519I0J-598D01*
G01Y878943D01*
G02X880318Y878346I-598J1D01*
G01X878742D01*
G02X878155Y878830I0J598D01*
G01X878124Y878992D01*
X875529D01*
X875480Y878962D01*
G02X875088Y878849I-393J626D01*
G01X874753D01*
G02X873341Y877717I-1752J739D01*
G03X873133Y877038I72J-393D01*
G02X873494Y876179I-841J-859D01*
G02X871090I-1202J0D01*
G02X871862Y877302I1203J0D01*
G03X871942Y878007I-143J373D01*
G02X871098Y879588I1059J1581D01*
G02X871233Y880291I1902J-1D01*
G03X870771Y880829I-372J148D01*
G02X870500Y880798I-271J1171D01*
G02X869298Y882000I0J1202D01*
G02X869561Y882750I1201J0D01*
G03Y883250I-313J250D01*
G37*
G36*
G01X932832Y889702D02*
G02X933998Y890102I1167J-1502D01*
G01X934000D01*
G02Y886298I0J-1902D01*
G01X933998D01*
G02X932832Y886698I1J1902D01*
G01X927322D01*
X926517Y885894D01*
X926582Y885765D01*
G02X926783Y884914I-1701J-851D01*
G02X922979I-1902J0D01*
G01Y884915D01*
G02X923341Y886031I1902J0D01*
G01X923380Y886083D01*
Y886383D01*
G02X923819Y887443I1501J-1D01*
G01X925638Y889262D01*
G02X926700Y889702I1062J-1062D01*
G01X932832D01*
G37*
G36*
G01X861942Y889815D02*
G02X862539Y890412I598J0D01*
G01X864115D01*
G02X864712Y889815I0J-597D01*
G01Y888239D01*
G02X864115Y887642I-598J1D01*
G01X862539D01*
G02X861942Y888239I1J598D01*
G01Y889815D01*
G37*
G36*
G01X938792Y899700D02*
G02X939588Y900496I796J0D01*
G01X943300D01*
G02X944096Y899700I0J-796D01*
G01Y896488D01*
G02X943300Y895692I-796J0D01*
G01X939588D01*
G02X938792Y896488I0J796D01*
G01Y899700D01*
G37*
G36*
G01X921186Y902021D02*
G02X920679Y903314I1395J1293D01*
G02X924483I1902J0D01*
G02X924217Y902345I-1902J1D01*
G01X924190Y902297D01*
Y901685D01*
X924226Y901634D01*
G02X924502Y900767I-1226J-868D01*
G02X923000Y899266I-1502J1D01*
G01X922998D01*
G02X921938Y899705I1J1501D01*
G01X921626Y900017D01*
G02X921186Y901079I1062J1062D01*
G01Y902021D01*
G37*
G36*
G01X861954Y913825D02*
G02X862551Y914422I597J0D01*
G01X864127D01*
G02X864724Y913825I-1J-597D01*
G01Y912249D01*
G02X864127Y911652I-598J1D01*
G01X862551D01*
G02X861954Y912249I0J597D01*
G01Y913825D01*
G37*
G36*
G01X881936Y916788D02*
G02X882533Y917386I598J0D01*
G01X884109D01*
G02X884706Y916788I-1J-598D01*
G01Y915212D01*
G02X884109Y914614I-598J0D01*
G01X882533D01*
G02X881936Y915212I1J598D01*
G01Y916788D01*
G37*
G36*
G01X881942Y920751D02*
G02X882539Y921348I597J-1D01*
G01X884115D01*
G02X884712Y920751I0J-598D01*
G01Y919175D01*
G02X884115Y918578I-597J0D01*
G01X882539D01*
G02X881942Y919175I1J597D01*
G01Y920751D01*
G37*
G36*
G01X861946Y927825D02*
G02X862543Y928422I597J0D01*
G01X864119D01*
G02X864716Y927825I0J-597D01*
G01Y926249D01*
G02X864119Y925652I-597J1D01*
G01X862543D01*
G02X861946Y926249I0J598D01*
G01Y927825D01*
G37*
G36*
G01X886724Y935511D02*
G02Y939315I0J1902D01*
G01X886725D01*
G02X887841Y938953I0J-1902D01*
G01X887893Y938914D01*
X888345D01*
X888381Y938930D01*
G02X888957Y939044I574J-1387D01*
G02X890458Y937543I0J-1501D01*
G01Y937541D01*
G02X890019Y936481I-1501J1D01*
G01X889889Y936351D01*
G02X888829Y935912I-1061J1062D01*
G01X887892D01*
G02X886724Y935511I-1168J1501D01*
G37*
G36*
G01X937194Y947188D02*
G02X937791Y947786I598J0D01*
G01X939367D01*
G02X939964Y947188I-1J-598D01*
G01Y945612D01*
G02X939367Y945014I-598J0D01*
G01X937791D01*
G02X937194Y945612I1J598D01*
G01Y947188D01*
G37*
G36*
G01X861938Y947825D02*
G02X862535Y948422I597J0D01*
G01X864111D01*
G02X864708Y947825I-1J-597D01*
G01Y946249D01*
G02X864111Y945652I-598J0D01*
G01X862535D01*
G02X861938Y946249I0J597D01*
G01Y947825D01*
G37*
G36*
G01X877423Y959269D02*
G02X877422Y959313I1901J65D01*
G02X879324Y957411I1902J0D01*
G02X879280Y957412I21J1902D01*
G01X879194Y957413D01*
X875938Y954157D01*
Y952887D01*
G02X875827Y952373I-1252J1D01*
G01X875810Y952334D01*
Y944921D01*
G02X875790Y944699I-1252J1D01*
G03X876183Y944228I393J-71D01*
G01X877613D01*
G02X878498Y943861I-1J-1252D01*
G01X879483Y942876D01*
X879569Y942877D01*
G02X879613Y942878I65J-1901D01*
G02X877711Y940976I0J-1902D01*
G02X877712Y941020I1902J-21D01*
G01X877713Y941106D01*
X877095Y941724D01*
X874045D01*
G02X872912Y941098I-1431J1252D01*
G01X872848Y941087D01*
X871002Y939241D01*
Y936915D01*
X871533Y936383D01*
X871582Y936369D01*
G02X872119Y935832I-226J-763D01*
G01X872133Y935783D01*
X872502Y935415D01*
Y932085D01*
X870915Y930498D01*
X862585D01*
X860998Y932085D01*
Y934915D01*
X863085Y937002D01*
X867998D01*
Y939863D01*
G02X868438Y940925I1502J0D01*
G01X870724Y943211D01*
X870735Y943275D01*
G02X872613Y944878I1878J-299D01*
G02X872657Y944877I-21J-1902D01*
G01X872743Y944876D01*
X873306Y945439D01*
Y951885D01*
G03X872749Y952252I-400J-1D01*
G02X872000Y952098I-750J1748D01*
G02Y955902I0J1902D01*
G02X873206Y955471I0J-1903D01*
G03X873756Y955513I253J310D01*
G02X873801Y955560I926J-842D01*
G01X877424Y959183D01*
X877423Y959269D01*
G37*
G36*
G01X936900Y966744D02*
G02X937497Y967342I598J0D01*
G01X939073D01*
G02X939670Y966744I-1J-598D01*
G01Y965168D01*
G02X939073Y964570I-598J0D01*
G01X937497D01*
G02X936900Y965168I1J598D01*
G01Y966744D01*
G37*
G36*
G01X869938Y967751D02*
G02X870535Y968348I597J0D01*
G01X872111D01*
G02X872708Y967751I-1J-597D01*
G01Y966175D01*
G02X872111Y965578I-598J0D01*
G01X870535D01*
G02X869938Y966175I0J597D01*
G01Y967751D01*
G37*
G36*
G01X873794Y967788D02*
G02X874391Y968386I598J0D01*
G01X875967D01*
G02X876564Y967788I-1J-598D01*
G01Y966212D01*
G02X875967Y965614I-598J0D01*
G01X874391D01*
G02X873794Y966212I1J598D01*
G01Y967788D01*
G37*
G36*
G01X914624Y975855D02*
G02X913974Y977287I1252J1432D01*
G02X917778I1902J0D01*
G02X917128Y975855I-1902J0D01*
G01Y972731D01*
X918083Y971776D01*
X918169Y971777D01*
G02X918213Y971778I65J-1901D01*
G02X920115Y969876I0J-1902D01*
G02X919464Y968444I-1902J1D01*
G01Y966894D01*
X922583Y963776D01*
X922669Y963777D01*
G02X922713Y963778I65J-1901D01*
G02Y959974I0J-1902D01*
G02X922669Y959975I21J1902D01*
G01X922583Y959976D01*
X921952Y959345D01*
Y954700D01*
G02X922143Y954397I-1251J-1001D01*
G01X922157Y954366D01*
X922297Y954227D01*
X922417Y954271D01*
G02X922777Y954365I658J-1784D01*
G01X922841Y954376D01*
X924136Y955671D01*
G02X924508Y955943I1062J-1062D01*
G01X925687Y957122D01*
X925698Y957186D01*
G02X927576Y958789I1878J-299D01*
G01X927665D01*
X931543Y962666D01*
X931557Y962697D01*
G02X933000Y963602I1443J-698D01*
G02X934602Y962000I0J-1602D01*
G02X933697Y960557I-1603J0D01*
G01X933666Y960543D01*
X929366Y956243D01*
X929351Y956203D01*
G02X927875Y955009I-1775J684D01*
G01X927811Y954998D01*
X926360Y953547D01*
G02X925988Y953275I-1062J1062D01*
G01X924965Y952252D01*
X924954Y952188D01*
G02X923076Y950585I-1878J299D01*
G02X921908Y950986I0J1902D01*
G02X920851Y951425I4J1501D01*
G01X920034Y952243D01*
X920003Y952257D01*
G02X919098Y953700I698J1443D01*
G01Y953701D01*
G02X919448Y954700I1602J-1D01*
G01Y959863D01*
G02X919815Y960748I1252J-1D01*
G01X920813Y961746D01*
X920812Y961832D01*
G02X920811Y961876I1901J65D01*
G02X920812Y961920I1902J-21D01*
G01X920813Y962006D01*
X917328Y965491D01*
G02X916962Y966375I885J884D01*
G01Y968444D01*
G02X916311Y969876I1251J1433D01*
G02X916312Y969920I1902J-21D01*
G01X916313Y970006D01*
X914991Y971328D01*
G02X914624Y972213I885J886D01*
G01Y975855D01*
G37*
G36*
G01X872655Y989178D02*
G02X873200Y989280I544J-1399D01*
G02X873745Y989178I1J-1501D01*
G01X873780Y989164D01*
X873988D01*
G02X874585Y988592I0J-598D01*
G01X874588Y988514D01*
X875531Y987572D01*
X876282D01*
G02X877344Y987132I0J-1502D01*
G01X880661Y983815D01*
X880725Y983804D01*
G02X882328Y981926I-299J-1878D01*
G02X880426Y980024I-1902J0D01*
G02X878548Y981627I0J1902D01*
G01X878537Y981691D01*
X875660Y984568D01*
X874909D01*
G02X873847Y985008I0J1502D01*
G01X872465Y986391D01*
X872387Y986394D01*
G02X871814Y986991I25J598D01*
G01Y987199D01*
X871801Y987234D01*
G02X871698Y987779I1399J547D01*
G02X871801Y988324I1502J-2D01*
G01X871814Y988359D01*
Y988567D01*
G02X872412Y989164I598J-1D01*
G01X872620D01*
X872655Y989178D01*
G37*
G36*
G01X918724Y988711D02*
G02Y992515I0J1902D01*
G01X918726D01*
G02X919690Y992252I-1J-1902D01*
G01X921000D01*
G02X921893Y991877I0J-1251D01*
G03X922173Y991872I143J140D01*
G02X923000Y992202I827J-871D01*
G02X924202Y991000I0J-1202D01*
G02X923939Y990250I-1201J0D01*
G03Y989750I313J-250D01*
G02X924202Y989000I-938J-750D01*
G02X923000Y987798I-1202J0D01*
G02X922250Y988061I0J1201D01*
G03X921750I-250J-313D01*
G02X921000Y987798I-750J938D01*
G02X919872Y988583I0J1203D01*
G03X919363Y988822I-375J-138D01*
G02X918724Y988711I-640J1791D01*
G37*
G36*
G01X872412Y992806D02*
X873988D01*
G02X874586Y992209I0J-598D01*
G01Y990633D01*
G02X873988Y990036I-598J1D01*
G01X872412D01*
G02X871814Y990633I0J598D01*
G01Y992209D01*
G02X872412Y992806I598J-1D01*
G37*
G36*
G01X878576Y999328D02*
X881281D01*
G02X882713Y999978I1432J-1252D01*
G02X884615Y998076I0J-1902D01*
G02X884614Y998032I-1902J21D01*
G01X884613Y997946D01*
X885176Y997382D01*
X886959D01*
G02X887843Y997016I0J-1251D01*
G01X889483Y995376D01*
X889569Y995377D01*
G02X889613Y995378I65J-1901D01*
G02X891515Y993476I0J-1902D01*
G02X891514Y993432I-1902J21D01*
G01X891513Y993346D01*
X892443Y992416D01*
G02X892810Y991531I-885J-886D01*
G01Y984647D01*
G03X893460Y984335I400J0D01*
G02X894649Y984753I1190J-1484D01*
G02Y980949I0J-1902D01*
G02X894321Y980977I-3J1902D01*
G03X893969Y980301I-69J-394D01*
G01X894885Y979385D01*
G02X895252Y978500I-885J-886D01*
G02X894000Y977248I-1252J0D01*
G02X893115Y977615I1J1252D01*
G01X890673Y980057D01*
G02X890306Y980942I885J886D01*
G01Y991013D01*
X889743Y991576D01*
X889657Y991575D01*
G02X889613Y991574I-65J1901D01*
G02X887711Y993476I0J1902D01*
G02X887712Y993520I1902J-21D01*
G01X887713Y993606D01*
X886440Y994880D01*
X884658D01*
G02X884436Y994899I-5J1251D01*
G03X883964Y994506I-72J-393D01*
G01Y992675D01*
G02X883598Y991791I-1251J0D01*
G01X882413Y990606D01*
X882414Y990520D01*
G02X882415Y990476I-1901J-65D01*
G02X880513Y992378I-1902J0D01*
G02X880557Y992377I-21J-1902D01*
G01X880643Y992376D01*
X881462Y993194D01*
Y996644D01*
G02X881281Y996824I1248J1435D01*
G01X879094D01*
X878385Y996115D01*
G02X877500Y995748I-886J885D01*
G02X876248Y997000I0J1252D01*
G02X876615Y997885I1252J-1D01*
G01X877691Y998961D01*
G02X878576Y999328I886J-885D01*
G37*
G36*
G01X877712Y1008968D02*
G02X878309Y1009566I598J0D01*
G01X879885D01*
G02X880482Y1008968I-1J-598D01*
G01Y1007391D01*
G02X880195Y1006881I-598J1D01*
G01X880098Y1006823D01*
Y1005097D01*
G02X879805Y1004389I-1002J0D01*
G01X877354Y1001938D01*
X877372Y1001835D01*
G02X877402Y1001500I-1872J-336D01*
G02X875500Y1003402I-1902J0D01*
G02X875835Y1003372I-1J-1902D01*
G01X875938Y1003354D01*
X878096Y1005512D01*
Y1006543D01*
X877982Y1006598D01*
G02X877416Y1007500I436J902D01*
G02X877712Y1008211I1002J0D01*
G01Y1008968D01*
G37*
G36*
G01X882362Y1009988D02*
G02X883158Y1010784I796J0D01*
G01X885370D01*
G02X886166Y1009988I0J-796D01*
G01Y1008276D01*
G02X886000Y1007791I-796J1D01*
G03X886018Y1007528I159J-121D01*
G01X887349Y1006196D01*
X887438Y1006200D01*
G02X887500Y1006202I70J-1200D01*
G02X886298Y1005000I0J-1202D01*
G02X886300Y1005062I1202J-8D01*
G01X886304Y1005151D01*
X883974Y1007480D01*
X883158D01*
G02X882362Y1008276I0J796D01*
G01Y1009988D01*
G37*
G36*
G01X878309Y1010436D02*
G02X877713Y1011000I1J598D01*
G01X880481D01*
G02X879885Y1010436I-597J34D01*
G01X878309D01*
G37*
G36*
G01X885500Y1015500D02*
X885098Y1015902D01*
X885370D01*
G02X886166Y1015106I0J-796D01*
G01Y1013394D01*
G02X885370Y1012598I-796J0D01*
G01X885098D01*
X885500Y1013000D01*
Y1015500D01*
G37*
G36*
G01X877684Y1016816D02*
G02X878175Y1017074I492J-339D01*
G01X879751D01*
G02X880348Y1016500I0J-598D01*
G01X878000D01*
X877684Y1016816D01*
G37*
G36*
G01X909718Y1016284D02*
G02X911268Y1017084I1550J-1102D01*
G01X911269D01*
G02X913171Y1015182I0J-1902D01*
G02X912370Y1013631I-1902J0D01*
G01Y1008233D01*
G02Y1005131I-1101J-1551D01*
G01Y1003180D01*
G02X912048Y1002403I-1101J1D01*
G01X909146Y999502D01*
X909158Y999405D01*
G02X909171Y999184I-1889J-222D01*
G01Y999182D01*
G02X907269Y1001084I-1902J0D01*
G01X907271D01*
G02X907492Y1001071I-1J-1902D01*
G01X907589Y1001059D01*
X910168Y1003638D01*
Y1005131D01*
G02X909837Y1005430I1101J1551D01*
G01X908218D01*
G02X907333Y1005797I1J1252D01*
G01X906382Y1006748D01*
X905000D01*
G02Y1009252I0J1252D01*
G01X906900D01*
G02X907785Y1008885I-1J-1252D01*
G01X908736Y1007934D01*
X909837D01*
G02X910168Y1008233I1432J-1252D01*
G01Y1013631D01*
G02X909718Y1014080I1100J1552D01*
G01X909125D01*
X908948Y1013903D01*
G02X908169Y1013580I-779J778D01*
G01X904570D01*
G02X903020Y1012780I-1550J1102D01*
G01X903019D01*
G02Y1016584I0J1902D01*
G01X903020D01*
G02X904570Y1015784I0J-1902D01*
G01X907713D01*
X907890Y1015961D01*
G02X908669Y1016284I779J-778D01*
G01X909718D01*
G37*
G36*
G01X886399Y1020321D02*
G02X886963Y1020722I565J-197D01*
G01X888539D01*
G02X889136Y1020124I-1J-598D01*
G01Y1018548D01*
G02X888652Y1017961I-598J0D01*
G01X888490Y1017930D01*
Y1013055D01*
X888806Y1012739D01*
G03X889446Y1012843I282J283D01*
G02X890158Y1013284I712J-354D01*
G01X892370D01*
G02X893163Y1012554I0J-796D01*
G01X893178Y1012371D01*
X894871D01*
G02X895392Y1012155I-1J-739D01*
G01X898523Y1009024D01*
G02X898739Y1008503I-523J-522D01*
G01Y1008306D01*
X900280Y1006765D01*
X900398Y1006804D01*
G02X901000Y1006902I603J-1804D01*
G02X899098Y1005000I0J-1902D01*
G02X899196Y1005602I1902J-1D01*
G01X899235Y1005720D01*
X897477Y1007477D01*
G02X897261Y1007998I523J522D01*
G01Y1008195D01*
X894563Y1010893D01*
X893178D01*
X893163Y1010710D01*
G02X892370Y1009980I-793J66D01*
G01X890158D01*
G02X889365Y1010710I0J796D01*
G01X889350Y1010893D01*
X888866D01*
G02X888345Y1011109I1J739D01*
G01X887228Y1012226D01*
G02X887012Y1012747I523J522D01*
G01Y1017930D01*
X886850Y1017961D01*
G02X886366Y1018548I114J587D01*
G01Y1020124D01*
G02X886369Y1020189I598J5D01*
G03X886364Y1020260I-199J22D01*
G03X886399Y1020321I-153J128D01*
G37*
G36*
G01X880564Y1031212D02*
G02X880500Y1030943I-598J0D01*
G01Y1033057D01*
G02X880564Y1032788I-534J-269D01*
G01Y1031212D01*
G37*
G36*
G01X935500Y1031598D02*
G02X937402Y1033500I0J1902D01*
G02X937304Y1032898I-1902J1D01*
G01X937265Y1032780D01*
X939806Y1030239D01*
X943002D01*
G02X943523Y1030023I-1J-739D01*
G01X945023Y1028523D01*
G02X945239Y1028002I-523J-522D01*
G01Y1022498D01*
G02X945023Y1021977I-739J1D01*
G01X939023Y1015977D01*
G02X938502Y1015761I-522J523D01*
G01X931305D01*
X930196Y1014652D01*
Y1012398D01*
G03X930382Y1012199I200J1D01*
G02X931502Y1011000I-82J-1199D01*
G02X930300Y1009798I-1202J0D01*
G02X929250Y1010416I0J1201D01*
G03X928550I-350J-195D01*
G02X927500Y1009798I-1050J583D01*
G02X926298Y1011000I0J1202D01*
G02X927382Y1012196I1202J0D01*
G03X927743Y1012594I-39J398D01*
G01Y1015509D01*
G02X927959Y1016030I739J-1D01*
G01X930452Y1018523D01*
G02X930973Y1018739I522J-523D01*
G01X938194D01*
X942761Y1023306D01*
Y1026694D01*
X942194Y1027261D01*
X939306D01*
X937765Y1025720D01*
X937804Y1025602D01*
G02X937902Y1025000I-1804J-603D01*
G02X936000Y1026902I-1902J0D01*
G02X936602Y1026804I-1J-1902D01*
G01X936720Y1026765D01*
X938477Y1028523D01*
G02X938619Y1028633I520J-525D01*
G03X938696Y1029259I-206J343D01*
G01X936220Y1031735D01*
X936102Y1031696D01*
G02X935500Y1031598I-603J1804D01*
G37*
G36*
G01X941072Y1040752D02*
G02X942284Y1041189I1213J-1465D01*
G01X942286D01*
G02Y1037385I0J-1902D01*
G02X940693Y1038248I0J1902D01*
G01X938518D01*
X937172Y1036902D01*
G02X936288Y1036536I-884J885D01*
G01X930808D01*
G02X929376Y1035885I-1433J1251D01*
G02Y1039689I0J1902D01*
G02X930808Y1039038I-1J-1902D01*
G01X935769D01*
X937115Y1040385D01*
G02X938000Y1040752I886J-885D01*
G01X941072D01*
G37*
G36*
G01X903598Y1054713D02*
G02X904787Y1055902I1189J0D01*
G01X911213D01*
G02X912402Y1054713I0J-1189D01*
G01Y1047287D01*
G02X911213Y1046098I-1189J0D01*
G01X904787D01*
G02X903598Y1047287I0J1189D01*
G01Y1054713D01*
G37*
G36*
G01X920498D02*
G02X921687Y1055902I1189J0D01*
G01X928113D01*
G02X929302Y1054713I0J-1189D01*
G01Y1047287D01*
G02X928113Y1046098I-1189J0D01*
G01X921687D01*
G02X920792Y1046505I1J1189D01*
G03X920244Y1046556I-301J-264D01*
G02X919500Y1046298I-744J944D01*
G02X919426Y1046300I-5J1202D01*
G03X919002Y1045901I-24J-399D01*
G01Y1041500D01*
G02X918562Y1040438I-1502J0D01*
G01X917389Y1039265D01*
X917378Y1039201D01*
G02X915500Y1037598I-1878J299D01*
G02X913598Y1039500I0J1902D01*
G02X915201Y1041378I1902J0D01*
G01X915265Y1041389D01*
X915998Y1042122D01*
Y1047500D01*
G02X916465Y1048588I1501J0D01*
G03X916494Y1048842I-138J144D01*
G02X916298Y1049500I1006J658D01*
G02X917500Y1050702I1202J0D01*
G02X918250Y1050439I0J-1201D01*
G03X918750I250J313D01*
G02X919500Y1050702I750J-938D01*
G02X919949Y1050615I0J-1202D01*
G03X920498Y1050986I149J371D01*
G01Y1054713D01*
G37*
G36*
G01X882000Y1058298D02*
G02Y1060702I0J1202D01*
G02X882825Y1060374I0J-1202D01*
G03X882832Y1060368I264J301D01*
G02X883202Y1059500I-833J-868D01*
G02X882832Y1058632I-1203J0D01*
G03X882825Y1058626I257J-307D01*
G02X882000Y1058298I-825J874D01*
G37*
G36*
G01X873532Y1068000D02*
G02X873800Y1068102I268J-301D01*
G01X879602D01*
X879500Y1068000D01*
X873532D01*
G37*
G36*
G01X884498Y1064415D02*
X894085Y1074002D01*
X904915D01*
X907002Y1071915D01*
Y1066085D01*
X897502Y1056585D01*
Y1034085D01*
X893915Y1030498D01*
X882585D01*
X882469Y1030614D01*
X882033D01*
G02X881436Y1031212I1J598D01*
G01Y1031648D01*
X880998Y1032085D01*
Y1043415D01*
X884498Y1046915D01*
Y1064415D01*
G37*
G36*
G01X918560Y1071623D02*
Y1076349D01*
G02X924480I2960J0D01*
G01Y1071623D01*
G02X918560I-2960J0D01*
G37*
G36*
G01X910292D02*
Y1076349D01*
G02X916214I2961J-1D01*
G01Y1071623D01*
G02X910292I-2961J1D01*
G37*
G36*
G01X915216Y803730D02*
Y807668D01*
G02X920742I2763J-1D01*
G01Y803730D01*
G02X915216I-2763J1D01*
G37*
G54D50*
X921664Y846664D03*
X943400Y858600D03*
X930963Y867037D03*
X929560Y883940D03*
X857500Y898000D03*
X923000Y909000D03*
X888843Y979157D03*
X895321Y1003179D03*
X934251Y1055500D03*
X940500Y1061000D03*
G54D49*
X918000Y836000D03*
X931000Y863000D03*
X870500Y864000D03*
X931000Y873000D03*
X889086Y874481D03*
X905000Y881979D03*
X870500Y889000D03*
X860500Y894896D03*
X870000Y896963D03*
X871583Y905443D03*
X890000Y910847D03*
X889973Y919848D03*
X917500Y922500D03*
X937886Y936681D03*
X922500Y942500D03*
X931500D03*
X881352Y948648D03*
X935286Y954381D03*
X924786Y976681D03*
X887263Y985237D03*
X898500Y995000D03*
X890500Y1001000D03*
X920286Y1006581D03*
X941986Y1010581D03*
X868331Y1030331D03*
X921500Y1034500D03*
X870408Y1039000D03*
X933000Y1066000D03*
X877963Y1085500D03*
G54D52*
X925064Y1102726D03*
G54D53*
X854788Y1095318D03*
X947308Y817759D03*
G54D51*
X901048Y956539D03*
%LPD*%
G75*
G36*
G01X863558Y936000D02*
X870500D01*
X871500Y935000D01*
Y932500D01*
X870500Y931500D01*
X863000D01*
X862000Y932500D01*
Y934500D01*
X862349Y934849D01*
X862392Y934864D01*
G03X863105Y935527I-392J1136D01*
G01X863120Y935562D01*
X863558Y936000D01*
G37*
G36*
G01X887448Y868019D02*
X892636D01*
X893266Y867389D01*
G02X892983Y866706I-283J-283D01*
G01X892212D01*
G03X891614Y866109I0J-598D01*
G01Y864533D01*
G03X892212Y863936I598J1D01*
G01X893788D01*
G03X894386Y864533I0J598D01*
G01Y865304D01*
G02X895068Y865587I400J0D01*
G01X895261Y865394D01*
Y861000D01*
G03X895477Y860477I739J-1D01*
G01X896556Y859399D01*
X896330Y859172D01*
X896215Y859207D01*
G03X896001Y859239I-215J-707D01*
G01X894610D01*
G02X894220Y859728I0J400D01*
G03X894252Y860008I-1220J281D01*
G01Y860509D01*
X894285Y860560D01*
G03X894386Y860891I-497J333D01*
G01Y862467D01*
G03X893788Y863064I-598J-1D01*
G01X892212D01*
G03X891614Y862467I0J-598D01*
G01Y861252D01*
X889991D01*
X889940Y861285D01*
G03X889609Y861386I-333J-497D01*
G01X888033D01*
G03X887436Y860788I1J-598D01*
G01Y859212D01*
G03X888033Y858614I598J0D01*
G01X889609D01*
G03X889940Y858715I-2J598D01*
G01X889991Y858748D01*
X890417D01*
G02X890700Y858066I0J-400D01*
G01X889840Y857206D01*
X888712D01*
G03X888114Y856609I0J-598D01*
G01Y855033D01*
G03X888126Y854917I598J3D01*
G01X888145Y854819D01*
X887943Y854596D01*
X886886Y855559D01*
Y856609D01*
G03X886401Y857196I-598J0D01*
G01X886239Y857227D01*
Y857544D01*
G03X886023Y858067I-739J1D01*
G01X885918Y858171D01*
Y858594D01*
X886080Y858625D01*
G03X886564Y859212I-114J587D01*
G01Y860788D01*
G03X885967Y861386I-598J0D01*
G01X885160D01*
X884696Y861849D01*
X884700Y861938D01*
G03X884702Y862000I-1200J70D01*
G03X884571Y862545I-1202J-1D01*
G01X884549Y862588D01*
Y862836D01*
X884973D01*
X885032Y862770D01*
G03X885925Y862373I893J806D01*
G03X887127Y863575I0J1202D01*
G03X886699Y864495I-1203J0D01*
G02X886690Y865100I257J306D01*
G03X887327Y866520I-1264J1420D01*
G03X887096Y867428I-1902J0D01*
G02X887448Y868019I352J191D01*
G37*
G36*
G01X894500Y1073000D02*
X896287D01*
G02X896573Y1072320I0J-400D01*
G03X898686Y1067286I2113J-2074D01*
G01X903410D01*
G03X905339Y1068000I1J2960D01*
G02X906000Y1067697I261J-303D01*
G01Y1066500D01*
X900568Y1061068D01*
X900445Y1061116D01*
G03X900000Y1061202I-446J-1116D01*
G03X898798Y1060000I0J-1202D01*
G03X898884Y1059555I1202J1D01*
G01X898932Y1059432D01*
X896500Y1057000D01*
Y1034500D01*
X893500Y1031500D01*
X890522D01*
G02X890171Y1032091I0J400D01*
G03X890402Y1033000I-1671J909D01*
G03X886598I-1902J0D01*
G03X886829Y1032091I1902J0D01*
G02X886478Y1031500I-351J-191D01*
G01X883000D01*
X882000Y1032500D01*
Y1043000D01*
X885500Y1046500D01*
Y1064000D01*
X886218Y1064718D01*
G02X886875Y1064576I283J-283D01*
G03X888000Y1063798I1125J424D01*
G03X889202Y1065000I0J1202D01*
G03X888424Y1066125I-1202J0D01*
G02X888282Y1066782I141J374D01*
G01X894500Y1073000D01*
G37*
G36*
G01X902800Y877500D02*
G03X902300Y878000I-500J0D01*
G03X901800Y877500I0J-500D01*
G03X902300Y877000I500J0D01*
G03X902800Y877500I0J500D01*
G37*
G36*
G01X907000Y1065500D02*
X926000D01*
X929000Y1062500D01*
Y1049500D01*
X925500Y1046000D01*
X920665D01*
G02X920374Y1046675I-1J400D01*
G03X920702Y1047500I-874J825D01*
G03X920439Y1048250I-1201J0D01*
G02Y1048750I313J250D01*
G03X920702Y1049500I-938J750D01*
G03X919500Y1050702I-1202J0D01*
G03X918750Y1050439I0J-1201D01*
G02X918250I-250J313D01*
G03X917500Y1050702I-750J-938D01*
G03X916298Y1049500I0J-1202D01*
G03X916494Y1048842I1202J0D01*
G02X916465Y1048588I-167J-110D01*
G03X915998Y1047500I1034J-1088D01*
G01Y1046000D01*
X902500D01*
X901000Y1047500D01*
Y1059500D01*
X907000Y1065500D01*
G37*
G36*
G01X912817Y853762D02*
X916734D01*
G02X917015Y853078I-1J-400D01*
G03X916302Y851370I1689J-1708D01*
G03X916565Y850276I2402J-1D01*
G01X915528Y849239D01*
X913050D01*
G02X912736Y849886I0J400D01*
G03X913249Y851370I-1890J1484D01*
G03X912536Y853078I-2402J0D01*
G02X912817Y853762I282J284D01*
G37*
G36*
G01X937500Y924000D02*
X938000Y924500D01*
X944000D01*
X945000Y923500D01*
Y920000D01*
X944000Y919000D01*
X939000D01*
X937500Y920500D01*
Y924000D01*
G37*
G54D10*
X841402Y848270D03*
Y867955D03*
Y887640D03*
Y907325D03*
Y927010D03*
Y946695D03*
Y966381D03*
Y986066D03*
Y1005751D03*
Y1025436D03*
Y1045121D03*
X960694Y867956D03*
Y887641D03*
Y907326D03*
Y927011D03*
Y946696D03*
Y966382D03*
Y986067D03*
Y1005752D03*
Y1025437D03*
Y1045122D03*
Y1064807D03*
G54D20*
X863500Y980453D03*
X860941D03*
X866059D03*
Y974547D03*
X860941D03*
X863500D03*
G54D11*
X835000Y845300D03*
X834900Y870000D03*
Y859500D03*
X834800Y879600D03*
Y899600D03*
Y889100D03*
X835000Y919300D03*
Y910300D03*
Y929800D03*
Y949800D03*
Y939800D03*
Y957800D03*
Y978200D03*
Y969700D03*
X835100Y997800D03*
X835000Y989700D03*
X835100Y1016800D03*
Y1007800D03*
Y1027800D03*
X835200Y1046200D03*
Y1038200D03*
Y1063200D03*
Y1055200D03*
X841000Y838500D03*
X850500Y838000D03*
X839180Y854260D03*
X843920Y842610D03*
X852200Y851800D03*
X839230Y862610D03*
X850700Y860400D03*
X838540Y882270D03*
Y873270D03*
X849100Y872400D03*
X838700Y902280D03*
X839200Y893280D03*
X839230Y914200D03*
X850400Y907500D03*
X839200Y932600D03*
X839230Y921200D03*
X849900Y922300D03*
X851300Y933100D03*
X839200Y941100D03*
X839220Y959790D03*
X839720Y952790D03*
X850900Y954000D03*
X851100Y963000D03*
X839000Y979580D03*
X839500Y973080D03*
X849000Y975500D03*
Y981700D03*
X839030Y999660D03*
Y995160D03*
X842720Y992790D03*
X851500Y1012000D03*
X853500D03*
Y1010000D03*
X851500D03*
X844770Y1014870D03*
X838780Y1012590D03*
X848500Y1075000D03*
X842500Y1071500D03*
X867500Y802000D03*
X863000Y838000D03*
X868500Y833000D03*
X865000Y852000D03*
X865500Y845500D03*
X857000Y870500D03*
X862500Y866000D03*
X868000Y862000D03*
X862000Y855500D03*
X857500Y863000D03*
X861500Y870500D03*
X858000Y873000D03*
Y877000D03*
X870500Y882000D03*
Y884000D03*
X863000Y885000D03*
X861906Y886594D03*
X859500Y903500D03*
X857500Y898000D03*
X864000Y899000D03*
X863000Y917500D03*
X859900Y907186D03*
X862000Y909200D03*
X865600Y932700D03*
X863500Y932500D03*
Y934500D03*
X863331Y929331D03*
X862000Y936000D03*
X855826Y939000D03*
X857000Y950500D03*
X863000Y949000D03*
X862500Y964500D03*
X865000Y960500D03*
X866059Y971500D03*
X858500D03*
X869106Y971394D03*
X858000Y979000D03*
Y989000D03*
X856000D03*
Y987000D03*
X858000D03*
X864000Y1001500D03*
X859000Y1003500D03*
X861461Y1003265D03*
X859000Y1008500D03*
X864000Y1003500D03*
X862500Y1028500D03*
X863038Y1032473D03*
X863500Y1023000D03*
X862537Y1036537D03*
X862500Y1041500D03*
X868335Y1054134D03*
X862500Y1059500D03*
X860500D03*
Y1057500D03*
X862500D03*
X862000Y1067000D03*
X865500Y1069500D03*
X863000D03*
X862500Y1071500D03*
X864500D03*
X862000Y1075000D03*
X860500Y1076000D03*
X859500Y1074500D03*
X868500Y1111500D03*
X874500Y802500D03*
X877000Y813500D03*
X879000Y807000D03*
X886000Y832500D03*
X886500Y828500D03*
X884500D03*
X882500D03*
X875000Y827500D03*
X882500Y852000D03*
X880000Y851300D03*
X879300Y849500D03*
X885925Y863575D03*
X883500Y862000D03*
X876527Y855500D03*
X872500Y861500D03*
X872745Y869745D03*
X880500Y864480D03*
X872292Y876179D03*
Y873154D03*
X884500Y885500D03*
X885000Y877000D03*
X880321D03*
X884500Y872000D03*
X880000Y885500D03*
X884000Y897000D03*
X887000Y898500D03*
X884000Y901000D03*
X876000Y896000D03*
Y902000D03*
X884400Y911100D03*
X879500Y913500D03*
X874500Y908500D03*
X881700Y904500D03*
X872500Y927000D03*
X883500Y922500D03*
X887000Y928500D03*
X882500D03*
X876500Y927300D03*
X879000Y927500D03*
X878000Y925500D03*
X876980Y971480D03*
X877500Y997000D03*
X877000Y992500D03*
X879500Y993000D03*
X886000D03*
Y989000D03*
X877000Y1016000D03*
X881000D03*
X871500Y1007000D03*
X879000Y1027500D03*
X881000Y1028500D03*
X885500Y1025000D03*
X884336Y1023164D03*
X876664D03*
X887200Y1037500D03*
X887100Y1039400D03*
Y1041400D03*
Y1043200D03*
X873500Y1038500D03*
Y1043000D03*
Y1046000D03*
X881500Y1066000D03*
X884500D03*
X877000Y1058500D03*
X882000Y1059500D03*
X881500Y1068000D03*
X884500D03*
X883000Y1082000D03*
Y1074500D03*
X884000Y1091000D03*
X875500Y1094000D03*
X880500Y1111500D03*
X876500Y1105000D03*
X890000Y805500D03*
X901000D03*
X887500Y814000D03*
X901000Y812000D03*
X900000Y829500D03*
X888000Y832500D03*
X895185Y835815D03*
X888500Y828000D03*
X902000Y831000D03*
X894000Y849000D03*
X892000Y850000D03*
X892500Y847500D03*
X894500Y846000D03*
X899600Y861600D03*
X897500Y862500D03*
X887894Y864606D03*
X893000Y860008D03*
X894500Y857000D03*
X899400Y863900D03*
X888878Y880572D03*
X893500Y880500D03*
X889000Y885500D03*
X893500D03*
X890500Y876500D03*
X896000D03*
X897500Y885500D03*
X900500Y902000D03*
X888500Y896500D03*
X894491Y897005D03*
X891803Y898697D03*
X901065Y905940D03*
X900066Y914077D03*
X896500Y917000D03*
X896491Y914009D03*
X900000Y917000D03*
X887600Y906953D03*
X892500Y913500D03*
X897425Y907075D03*
X894500Y907000D03*
X895000Y923000D03*
X892549Y932451D03*
X889000Y934500D03*
X896500Y935500D03*
X891500Y940000D03*
X888957Y937543D03*
X894000Y978500D03*
X898000Y983500D03*
X896500Y978500D03*
X902000Y975000D03*
X888843Y979157D03*
X895000Y992000D03*
X897000Y989500D03*
X895000Y987000D03*
X895321Y1003179D03*
X887500Y1005000D03*
X902500Y1047500D03*
X900000Y1060000D03*
X903000Y1060264D03*
X902500Y1056000D03*
X888000Y1065000D03*
X893000Y1091500D03*
X891500Y1099000D03*
X893000Y1111500D03*
X898500Y1106000D03*
X913500Y805500D03*
X919000Y813500D03*
X912000Y812000D03*
X910500Y830000D03*
X912500Y830500D03*
X906000Y836000D03*
X916000Y828000D03*
Y830500D03*
X918000D03*
Y828000D03*
X904500Y852000D03*
X907000Y845000D03*
X914500Y851641D03*
X907500Y853027D03*
X909175Y843000D03*
X919000Y865000D03*
X916000Y859500D03*
X911500D03*
X907500Y860000D03*
X904993Y885493D03*
X905962Y887462D03*
X919500Y871500D03*
X918416Y876554D03*
X904619Y877619D03*
X907169Y878669D03*
X911000D03*
X906500Y876000D03*
X905039Y873915D03*
X905000Y889430D03*
X905500Y896000D03*
X907500Y917000D03*
Y914000D03*
X904500Y917000D03*
Y914000D03*
X913500Y919500D03*
X920000Y914000D03*
X907661Y906766D03*
X906000Y926545D03*
X909424Y927000D03*
X913000Y928000D03*
X905500Y923500D03*
X911500Y939500D03*
X906000Y939000D03*
X909500Y974500D03*
X913000Y972500D03*
X918500Y974500D03*
X905000Y1008000D03*
X917500Y1049500D03*
X919500D03*
X917500Y1047500D03*
X919500D03*
X915000Y1065000D03*
X912500Y1060000D03*
X919000Y1059500D03*
X913000Y1056000D03*
X904000Y1091500D03*
X912500D03*
X919000Y1111500D03*
X906500D03*
X919000Y1100500D03*
X909000D03*
X932000Y804000D03*
X927500Y814000D03*
X922000Y827000D03*
X928500Y829000D03*
X924500Y835000D03*
X922000Y838000D03*
X935500Y829500D03*
X928000Y824000D03*
X921664Y846664D03*
X923718Y840500D03*
X922000Y852500D03*
X930963Y867037D03*
X935500Y869000D03*
X923500Y871000D03*
X929560Y883940D03*
X925810Y887310D03*
X923000Y900767D03*
Y909000D03*
X923500Y934000D03*
X922500Y980000D03*
X923000Y989000D03*
X921000D03*
Y991000D03*
X923000D03*
X927500Y1011000D03*
X930300D03*
X924000Y1026000D03*
X922037Y1041537D03*
X927500Y1041500D03*
X924356Y1042856D03*
X928314Y1065686D03*
X936303Y1065697D03*
X926000Y1056500D03*
X925500Y1060000D03*
X927000Y1058500D03*
X934251Y1055500D03*
X933500Y1079000D03*
X922500Y1092000D03*
X927500Y1085500D03*
X928000Y1111500D03*
X948500Y803000D03*
X936500Y836000D03*
X942500Y838000D03*
X944500Y833500D03*
X943400Y858600D03*
X937321Y880679D03*
X947500Y901900D03*
X948000Y894900D03*
X938000Y898000D03*
X948200Y915300D03*
X947500Y931200D03*
X947600Y920800D03*
X947000Y942300D03*
X947100Y937300D03*
X938500Y949500D03*
X938000Y940000D03*
X942000Y943500D03*
X947700Y962400D03*
X947900Y954000D03*
X937500Y963000D03*
X938000Y954500D03*
X949200Y976000D03*
X947100Y970600D03*
X942900Y1000300D03*
X950200Y989300D03*
X944500Y986500D03*
X948900Y1010200D03*
Y1029400D03*
Y1021300D03*
X946000Y1050500D03*
X948000D03*
X938000Y1039500D03*
X951900Y1044200D03*
X949300Y1038100D03*
X946000Y1052500D03*
X948000D03*
X940500Y1061000D03*
X938500Y1076000D03*
X945500D03*
X937000Y1112000D03*
X962000Y815000D03*
X958000Y834500D03*
X961000Y825500D03*
X955000Y841000D03*
X967100Y851200D03*
Y847200D03*
X962900Y839500D03*
X967100Y861200D03*
X967200Y882200D03*
X967100Y871700D03*
X967200Y903700D03*
Y892700D03*
X967100Y912500D03*
Y933500D03*
Y924000D03*
Y952500D03*
Y944000D03*
X967000Y961300D03*
Y980800D03*
Y970800D03*
Y991300D03*
X967300Y1014500D03*
X967000Y1002800D03*
X967300Y1031500D03*
Y1021000D03*
X967200Y1047400D03*
Y1039900D03*
Y1063400D03*
Y1054900D03*
X953500Y1076000D03*
X960000D03*
X966500Y1069500D03*
G54D21*
X861000Y987000D03*
X868000D03*
X864500Y995000D03*
G54D12*
X841402Y1064806D03*
X960694Y848271D03*
G54D30*
X884264Y1014250D03*
Y1009132D03*
X891264Y1011632D03*
G54D31*
X877000Y1038000D03*
X884000D03*
G54D22*
X861973Y1011142D03*
Y1018142D03*
G54D13*
X854787Y817759D03*
X947307Y1095318D03*
G54D40*
X924900Y1051000D03*
X940900D03*
G54D41*
G01X875500Y1001500D02*
X879097Y1005097D01*
Y1008180D01*
G01X878417Y1007500D02*
X879097Y1008180D01*
G01X906500Y876000D02*
X907057Y876557D01*
X915938D01*
X917677Y874818D01*
X920442D01*
X921124Y875500D01*
X923474D01*
G54D14*
X854788Y1095318D03*
X947308Y817759D03*
G54D32*
X886481Y1102726D03*
X925064D03*
G54D23*
X871454Y1013199D03*
G54D42*
G01X859701Y845527D02*
X853473D01*
X850730Y848270D01*
X841402D01*
G01X859705Y868037D02*
X857220D01*
X857138Y867955D01*
X841402D01*
G01X859685Y889027D02*
X848621D01*
X847234Y887640D01*
X841402D01*
G01X859697Y913037D02*
X847114D01*
X841402Y907325D01*
G01X859689Y927037D02*
X847261D01*
X847234Y927010D01*
X841402D01*
G01X859681Y947037D02*
X847576D01*
X847234Y946695D01*
X841402D01*
G01Y966381D02*
X847234D01*
X849380Y968527D01*
X858705D01*
X860205Y967027D01*
G01X859697Y1039027D02*
X847496D01*
G01D02*
X841402Y1045121D01*
G01X872745Y869745D02*
X871330Y868330D01*
X867991D01*
X863321Y873000D01*
G01Y877000D02*
Y873000D01*
G01X872613Y942976D02*
X869500Y939863D01*
Y934000D01*
G01X880321Y872500D02*
Y877000D01*
G01X886724Y937413D02*
X888827D01*
X888957Y937543D01*
G01X873200Y987779D02*
X874909Y986070D01*
X876282D01*
X880426Y981926D01*
G01X891803Y898697D02*
Y893698D01*
X891786Y893681D01*
G01X923076Y952487D02*
X921913D01*
X920700Y953700D01*
G01X917500Y1047500D02*
Y1041500D01*
X915500Y1039500D01*
G01X924881Y884914D02*
Y886381D01*
X925810Y887310D01*
G01X934000Y888200D02*
X926700D01*
X925810Y887310D01*
G01X923000Y900767D02*
X922688Y901079D01*
Y903207D01*
X922581Y903314D01*
G01X923076Y952487D02*
X925198Y954609D01*
X925298D01*
X927576Y956887D01*
G01X933000Y962000D02*
X927887Y956887D01*
X927576D01*
G01X941221Y868100D02*
X954718D01*
X954862Y867956D01*
X960694D01*
G01X940900Y880900D02*
X937542D01*
X937321Y880679D01*
G01X942221Y946400D02*
X954566D01*
X954862Y946696D01*
X960694D01*
G01X941927Y965956D02*
X954436D01*
X954862Y966382D01*
X960694D01*
G54D24*
X868895Y1009262D03*
Y1017136D03*
X871454Y1009262D03*
X874013D03*
Y1017136D03*
X871454D03*
G54D33*
X889672Y820069D03*
X912428D03*
G54D15*
X859701Y845527D03*
X863343D03*
X859705Y868037D03*
X863347D03*
X859679Y863000D03*
X863321D03*
X859679Y873000D03*
X863321D03*
X859679Y877000D03*
X863321D03*
X859685Y889027D03*
X863327D03*
X859697Y913037D03*
X863339D03*
X859689Y927037D03*
X863331D03*
X859681Y947037D03*
X863323D03*
X859681Y943000D03*
X863323D03*
X860205Y967027D03*
X863847D03*
X859681Y954500D03*
X863323D03*
X860679Y1005500D03*
X864321D03*
X859679Y1025500D03*
X863321D03*
X859697Y1039027D03*
X863339D03*
X885179Y860000D03*
X875179Y967000D03*
X878821D03*
X879179Y1032000D03*
X882821D03*
X878749Y1023164D03*
X882391D03*
X888821Y860000D03*
G54D43*
G01X867699Y916416D02*
X864084D01*
X863000Y917500D01*
G01X863323Y937323D02*
X862000Y936000D01*
G01X863323Y939231D02*
Y937323D01*
G01X863000Y949000D02*
X863323Y949323D01*
G01D02*
Y950731D01*
G01X866059Y971500D02*
Y974547D01*
G01X858000Y979000D02*
X860000D01*
X860941Y979941D01*
Y980453D01*
G01X871500Y1007000D02*
X871454Y1007046D01*
G01D02*
Y1009262D01*
G01X903019Y1014682D02*
X908169D01*
X908669Y1015182D01*
X911269D01*
G01Y1006682D02*
Y1003182D01*
X907269Y999182D01*
G01X911269Y1015182D02*
Y1006682D01*
G01X960694Y907326D02*
X943326D01*
X937594Y901594D01*
X933444D01*
G01X960694Y887641D02*
X956835Y891500D01*
X941000D01*
X937906Y894594D01*
X933444D01*
G01X932800Y982700D02*
Y978200D01*
X937000Y974000D01*
G01X932800Y982700D02*
X936150D01*
X937090Y981760D01*
X956387D01*
X960694Y986067D01*
G01X932800Y989700D02*
Y994800D01*
X937000Y999000D01*
G01X932800Y989700D02*
X939099D01*
X955151Y1005752D01*
X960694D01*
G54D25*
X862500Y1051000D03*
X878500D03*
X892000D03*
X908000D03*
G54D34*
X901898Y877500D03*
X902702D03*
G54D16*
X859701Y851500D03*
X870500Y864000D03*
X864500Y857000D03*
X870000Y871500D03*
X859500Y883500D03*
X860500Y894896D03*
X870500Y889000D03*
X870000Y896963D03*
X862500Y904500D03*
X861186Y920400D03*
X871583Y905443D03*
X868500Y960500D03*
X872000Y954000D03*
X860000Y960500D03*
X860269Y999682D03*
X867500Y1001500D03*
X859876Y1032287D03*
X871000Y1023000D03*
X868331Y1030331D03*
X870408Y1039000D03*
X883000Y832500D03*
X880100Y854400D03*
X886500Y844000D03*
X885425Y866520D03*
X878000Y863000D03*
X873000Y879588D03*
X884214Y893819D03*
X888019Y903761D03*
X881300Y901000D03*
X882000Y908500D03*
X884500Y926000D03*
X879613Y940976D03*
X872613Y942976D03*
X886724Y937413D03*
X881352Y948648D03*
X879324Y959313D03*
X887263Y985237D03*
X880426Y981926D03*
X880513Y990476D03*
X882713Y998076D03*
X875500Y1001500D03*
X877963Y1085500D03*
X891500Y837000D03*
X897000Y831000D03*
X904500Y846500D03*
X897500D03*
X894051Y854051D03*
X902000Y859500D03*
Y866500D03*
X889086Y874481D03*
X891786Y893681D03*
X895000Y903000D03*
X900434Y897000D03*
X897817Y911019D03*
X889973Y919848D03*
X890000Y910847D03*
X902500Y923500D03*
X892279Y926969D03*
X894649Y982851D03*
X889613Y993476D03*
X898500Y995000D03*
X890500Y1001000D03*
X903019Y1014682D03*
X901000Y1005000D03*
X888500Y1033000D03*
X889000Y1025500D03*
X918000Y836000D03*
X905000Y829500D03*
X910000Y834500D03*
X920500Y843000D03*
X912500Y842000D03*
X914000Y865000D03*
X917476Y880887D03*
X914000Y873000D03*
X905000Y881979D03*
X905500Y903500D03*
X913940Y904500D03*
X910181Y920714D03*
X905317Y911019D03*
X917500Y922500D03*
X915500Y934000D03*
X907000Y933500D03*
X918213Y969876D03*
X915876Y977287D03*
X918724Y990613D03*
X907269Y999182D03*
X920286Y1006581D03*
X911269Y1006682D03*
Y1015182D03*
X915500Y1039500D03*
X927286Y836181D03*
X933500Y839500D03*
X931000Y863000D03*
X924000Y860000D03*
X923500Y867000D03*
X924881Y884914D03*
X934000Y888200D03*
X931000Y873000D03*
X923474Y875500D03*
X933500Y881000D03*
X922581Y903314D03*
X925594Y894594D03*
X921976Y914287D03*
X930500Y915500D03*
X933444Y908444D03*
X935500Y923000D03*
X925500Y932000D03*
X923076Y952487D03*
X922500Y942500D03*
X931500D03*
X927576Y956887D03*
X922713Y961876D03*
X935286Y954381D03*
X924786Y976681D03*
X937000Y974000D03*
Y999000D03*
X936000Y1025000D03*
X935500Y1033500D03*
X921500Y1034500D03*
X929376Y1037787D03*
X933000Y1066000D03*
X928000Y1078500D03*
X933500Y1073500D03*
X940000Y845000D03*
X941000Y862000D03*
X940900Y880900D03*
X937886Y936681D03*
X942000Y959500D03*
X941986Y1010581D03*
X942286Y1039287D03*
X941286Y1065287D03*
X943286Y1060881D03*
X941286Y1072881D03*
G54D44*
G01X853000Y993500D02*
Y984000D01*
X858000Y979000D01*
G01X862500Y866000D02*
X863347Y866847D01*
Y868037D01*
G01X863327Y889027D02*
Y888015D01*
X861906Y886594D01*
G01X859900Y907186D02*
X864186D01*
X868214Y911214D01*
X884286D01*
X884400Y911100D01*
G01X863339Y913037D02*
Y911339D01*
G01D02*
X862000Y910000D01*
Y909200D01*
G01X863331Y927037D02*
Y929331D01*
G01X863000Y949000D02*
Y948002D01*
X863323Y947679D01*
Y947037D01*
G01X863847Y967027D02*
Y965847D01*
X862500Y964500D01*
G01X859000Y1003500D02*
X859055D01*
X859288Y1003267D01*
X859891Y1003265D01*
X861461D01*
G01X859500Y1008500D02*
X859000D01*
G01X860900Y1003826D02*
X861461Y1003265D01*
G01X859500Y1008500D02*
X861973Y1010973D01*
G01X860679Y1005500D02*
Y1005179D01*
G01D02*
Y1004509D01*
X860900Y1004288D01*
G01X860679Y1005179D02*
X859000Y1003500D01*
G01X860900Y1004288D02*
Y1003826D01*
G01X861973Y1010973D02*
Y1011142D01*
G01X863321Y1025500D02*
Y1027679D01*
G01D02*
X862500Y1028500D01*
G01Y1041500D02*
X863339Y1040661D01*
G01D02*
Y1039027D01*
G01X862000Y1067000D02*
X864050Y1064950D01*
G01D02*
X868000D01*
G01X879321Y869500D02*
Y873500D01*
G01X875679Y869500D02*
X872990D01*
X872745Y869745D01*
G01X883172Y879731D02*
Y878828D01*
X885000Y877000D01*
G01X879321Y873500D02*
Y876000D01*
G01D02*
X880321Y877000D01*
G01X884400Y911100D02*
X885500Y910000D01*
Y905500D01*
X887239Y903761D01*
X888019D01*
G01X872613Y942976D02*
X877613D01*
X879613Y940976D01*
G01X879324Y959313D02*
X874686Y954675D01*
Y952887D01*
X874558Y952759D01*
Y944921D01*
X872613Y942976D01*
G01X882713Y998076D02*
X878576D01*
X877500Y997000D01*
G01X882713Y998076D02*
Y992676D01*
X880513Y990476D01*
G01X882713Y998076D02*
X884658Y996131D01*
X886958D01*
X889613Y993476D01*
G01X882391Y1023164D02*
X884336D01*
G01X877000Y1064950D02*
X880950D01*
G01X873500Y1052000D02*
X877500D01*
G01X880950Y1064950D02*
X881500Y1065500D01*
G01D02*
Y1066000D01*
G01X877500Y1052000D02*
X878500Y1051000D01*
G01X887894Y864606D02*
X889794D01*
X890509Y865321D01*
G01D02*
X893000D01*
G01Y861679D02*
Y860008D01*
G01X888821Y860000D02*
X892992D01*
X893000Y860008D01*
G01X889613Y993476D02*
X891558Y991531D01*
Y980942D01*
X894000Y978500D01*
G01X914500Y851641D02*
X914229Y851370D01*
G01D02*
X910847D01*
G01X917476Y880887D02*
Y877494D01*
X918416Y876554D01*
G01X921976Y914287D02*
X920287D01*
X920000Y914000D01*
G01X918213Y969876D02*
Y966376D01*
X922713Y961876D01*
G01X915876Y977287D02*
Y972213D01*
X918213Y969876D01*
G01X918724Y990613D02*
X919111Y991000D01*
X921000D01*
G01X911269Y1006682D02*
X908218D01*
X906900Y1008000D01*
X905000D01*
G01X927286Y836181D02*
X925681D01*
X924500Y835000D01*
G01X920700Y953700D02*
Y959863D01*
X922713Y961876D01*
G01X929376Y1037787D02*
X936287D01*
X938000Y1039500D01*
G01D02*
X942073D01*
X942286Y1039287D01*
G01X941286Y1072881D02*
Y1065287D01*
G01D02*
X943286Y1063287D01*
Y1060881D01*
G54D35*
X901048Y1070246D03*
G54D26*
X868000Y1064950D03*
Y1076050D03*
X877000Y1064950D03*
Y1076050D03*
G54D17*
X867699Y916416D03*
Y918975D03*
Y921534D03*
X873605Y918975D03*
Y916416D03*
Y921534D03*
G54D45*
G01X841402Y981133D02*
Y986066D01*
G01Y1000818D02*
Y1005751D01*
G01Y986066D02*
Y990999D01*
G01Y986066D02*
X846335D01*
G01X841402Y1005751D02*
Y1010684D01*
G01Y1005751D02*
X846335D01*
G01X844343Y1095318D02*
X854788D01*
G01X863343Y843940D02*
Y845527D01*
G01D02*
Y847114D01*
G01Y845527D02*
X864930D01*
G01X863327Y889027D02*
Y890614D01*
G01Y889027D02*
X864914D01*
G01X863339Y913037D02*
Y914624D01*
G01Y913037D02*
X864926D01*
G01X863331Y925450D02*
Y927037D01*
G01D02*
X864918D01*
G01X863323Y945450D02*
Y947037D01*
G01D02*
X864910D01*
G01X863847Y967027D02*
Y968614D01*
G01Y967027D02*
X865434D01*
G01X867702Y1013199D02*
X871454D01*
G01X860679Y1005500D02*
Y1007087D01*
G01X859092Y1005500D02*
X860679D01*
G01X868000Y1061598D02*
Y1064950D01*
G01D02*
Y1068302D01*
G01Y1064950D02*
X871802D01*
G01X868000Y1076050D02*
Y1079402D01*
G01X864198Y1076050D02*
X868000D01*
G01D02*
X871802D01*
G01X854788Y1084873D02*
Y1095318D01*
G01D02*
Y1105763D01*
G01Y1095318D02*
X865233D01*
G01X884121Y805699D02*
Y810632D01*
G01X881157Y805699D02*
X884121D01*
G01D02*
X887085D01*
G01X884121Y817302D02*
Y822235D01*
G01X881157D02*
X884121D01*
G01X885500Y852179D02*
X887087D01*
G01X885500Y850592D02*
Y852179D01*
G01X883172Y879731D02*
Y881318D01*
G01Y879731D02*
X884759D01*
G01X886984Y874481D02*
X889086D01*
G01X883321Y914413D02*
Y916000D01*
G01D02*
Y917587D01*
G01Y916000D02*
X884908D01*
G01X883327Y918376D02*
Y919963D01*
G01D02*
Y921550D01*
G01Y919963D02*
X884914D01*
G01X871323Y965376D02*
Y966963D01*
G01D02*
X872910D01*
G01X875179Y965413D02*
Y967000D01*
G01X873592D02*
X875179D01*
G01X871613Y991421D02*
X873200D01*
G01D02*
X874787D01*
G01X873200D02*
Y993008D01*
G01X877376Y1015689D02*
X878963D01*
G01D02*
X880550D01*
G01X878963Y1014102D02*
Y1015689D01*
G01X871454Y1013199D02*
X875206D01*
G01X877510Y1011822D02*
X879097D01*
G01D02*
X880684D01*
G01X879097D02*
Y1013409D01*
G01X882162Y1014250D02*
X884264D01*
G01Y1012398D02*
Y1014250D01*
G01D02*
Y1016102D01*
G01X879179Y1030413D02*
Y1032000D01*
G01D02*
Y1033587D01*
G01X877592Y1032000D02*
X879179D01*
G01X877000Y1034648D02*
Y1038000D01*
G01D02*
Y1041352D01*
G01X874398Y1038000D02*
X877000D01*
G01D02*
X879602D01*
G01X878500Y1045898D02*
Y1051000D01*
G01X877000Y1061598D02*
Y1064950D01*
G01D02*
Y1068302D01*
G01X873198Y1064950D02*
X877000D01*
G01X878500Y1051000D02*
Y1056102D01*
G01X873898Y1051000D02*
X878500D01*
G01D02*
X883102D01*
G01X877000Y1076050D02*
Y1079402D01*
G01X873198Y1076050D02*
X877000D01*
G01X886481Y1102726D02*
Y1108840D01*
G01X883320Y1102726D02*
X886481D01*
G01D02*
X889642D01*
G01X896813Y874521D02*
X898400D01*
G01D02*
X899987D01*
G01X898400D02*
Y876108D01*
G01X892882Y874448D02*
X894469D01*
G01D02*
X896056D01*
G01X894469D02*
Y876035D01*
G01X889086Y872379D02*
Y874481D01*
G01D02*
Y876583D01*
G01Y874481D02*
X891188D01*
G01X903398Y1051000D02*
X908000D01*
G01X917979Y805699D02*
Y810632D01*
G01X915015Y805699D02*
X917979D01*
G01D02*
X920943D01*
G01X917979Y817302D02*
Y822235D01*
G01D02*
X920943D01*
G01X918184Y1006581D02*
X920286D01*
G01X908000Y1045898D02*
Y1051000D01*
G01D02*
Y1056102D01*
G01Y1051000D02*
X912602D01*
G01X918359Y1073986D02*
X921520D01*
G01X935992Y868100D02*
X937579D01*
G01X935784Y936681D02*
X937886D01*
G01X935286Y952279D02*
Y954381D01*
G01D02*
Y956483D01*
G01X933184Y954381D02*
X935286D01*
G01D02*
X937388D01*
G01X924786Y974579D02*
Y976681D01*
G01D02*
Y978783D01*
G01X922684Y976681D02*
X924786D01*
G01D02*
X926888D01*
G01X920286Y1004479D02*
Y1006581D01*
G01D02*
Y1008683D01*
G01Y1006581D02*
X922388D01*
G01X924900Y1045898D02*
Y1051000D01*
G01D02*
Y1056102D01*
G01Y1051000D02*
X929502D01*
G01X921520Y1068462D02*
Y1073986D01*
G01D02*
Y1079510D01*
G01Y1073986D02*
X924681D01*
G01X925064Y1096612D02*
Y1102726D01*
G01D02*
Y1108840D01*
G01X921903Y1102726D02*
X925064D01*
G01D02*
X928225D01*
G01X947308Y807314D02*
Y817759D01*
G01D02*
Y828204D01*
G01X936863Y817759D02*
X947308D01*
G01D02*
X957753D01*
G01X937579Y866513D02*
Y868100D01*
G01D02*
Y869687D01*
G01X938592Y898094D02*
X941444D01*
G01D02*
X944296D01*
G01X941444Y895492D02*
Y898094D01*
G01D02*
Y900696D01*
G01X937886Y934579D02*
Y936681D01*
G01X938579Y944813D02*
Y946400D01*
G01D02*
Y947987D01*
G01X936992Y946400D02*
X938579D01*
G01X937886Y936681D02*
Y938783D01*
G01Y936681D02*
X939988D01*
G01X938285Y964369D02*
Y965956D01*
G01D02*
Y967543D01*
G01X936698Y965956D02*
X938285D01*
G01X940800Y983598D02*
Y986200D01*
G01X937948D02*
X940800D01*
G01D02*
X943652D01*
G01X940800D02*
Y988802D01*
G01X941986Y1008479D02*
Y1010581D01*
G01D02*
Y1012683D01*
G01X939884Y1010581D02*
X941986D01*
G01D02*
X944088D01*
G01X960694Y922078D02*
Y927011D01*
G01D02*
Y931944D01*
G01X955761Y927011D02*
X960694D01*
G54D27*
X884121Y805699D03*
Y822235D03*
X917979Y805699D03*
Y822235D03*
G54D36*
X901048Y1098789D03*
G54D18*
X869500Y934000D03*
Y927000D03*
X877500Y930500D03*
X933444Y901594D03*
Y894594D03*
X932800Y982700D03*
Y989700D03*
X941444Y898094D03*
X940800Y986200D03*
G54D46*
G01X836087Y810870D02*
G03X847898Y799059I11811J0D01*
G01X836087Y826637D02*
Y810870D01*
G01X839631Y833213D02*
G02X837859Y829925I-3937J0D01*
G01D02*
G03X836087Y826637I2165J-3288D01*
G01X832150Y1067507D02*
Y845571D01*
G01D02*
G03X833303Y842787I3937J0D01*
G01D02*
X838478Y837613D01*
G01Y1075465D02*
X833303Y1070290D01*
G01D02*
G03X832150Y1067507I2783J-2783D01*
G01X836087Y1102208D02*
Y1086440D01*
G01D02*
G03X837859Y1083152I3937J0D01*
G01D02*
G02X839631Y1079864I-2165J-3288D01*
G01X847898Y1114019D02*
G03X836087Y1102208I0J-11811D01*
G01X847898Y799059D02*
X954198D01*
G01X857051Y833508D02*
G03I-2263J0D01*
G01X838478Y837613D02*
G02X839631Y834829I-2784J-2784D01*
G01D02*
Y833213D01*
G01Y1079864D02*
Y1078248D01*
G01D02*
G02X838478Y1075465I-3936J0D01*
G01X954198Y1114019D02*
X847898D01*
G01X949571Y1079571D02*
G03I-2264J0D01*
G01X954198Y799059D02*
G03X966009Y810870I0J11811D01*
G01D02*
Y826637D01*
G01D02*
G03X964237Y829925I-3937J0D01*
G01D02*
G02X962465Y833213I2165J3288D01*
G01D02*
Y834829D01*
G01D02*
G02X963618Y837613I3937J0D01*
G01D02*
X968792Y842787D01*
G01X963618Y1075465D02*
G02X962465Y1078248I2783J2783D01*
G01D02*
Y1079864D01*
G01D02*
G02X964237Y1083152I3937J0D01*
G01X968792Y1070290D02*
X963618Y1075465D01*
G01X964237Y1083152D02*
G03X966009Y1086440I-2165J3288D01*
G01D02*
Y1102208D01*
G01D02*
G03X954198Y1114019I-11811J0D01*
G01X968792Y842787D02*
G03X969946Y845571I-2784J2785D01*
G01D02*
Y1067507D01*
G01D02*
G03X968792Y1070290I-3936J-2D01*
G54D19*
X863323Y950731D03*
X859681D03*
X863323Y939231D03*
X859681D03*
X871323Y966963D03*
X867681D03*
X879321Y869500D03*
X875679D03*
X883172Y879731D03*
X879530D03*
X879321Y873500D03*
X875679D03*
X883327Y919963D03*
X879685D03*
X883321Y916000D03*
X879679D03*
X887751Y1019336D03*
X884109D03*
X941221Y868100D03*
X937579D03*
X942221Y946400D03*
X938579D03*
X941927Y965956D03*
X938285D03*
G54D28*
X885500Y852179D03*
Y855821D03*
X873200Y991421D03*
Y987779D03*
X879097Y1011822D03*
Y1008180D03*
X893000Y865321D03*
Y861679D03*
X894469Y870806D03*
X898400Y870879D03*
X894469Y874448D03*
X898400Y874521D03*
G54D37*
G01X842000Y1033500D02*
X841402Y1032902D01*
G01X847000Y1025500D02*
X846936Y1025436D01*
G01X841402Y1020385D02*
Y1025436D01*
G01Y1032902D02*
Y1025436D01*
G01X846936D02*
X841402D01*
G01X847500Y1044500D02*
X846879Y1045121D01*
G01X841500Y1038000D02*
X841402Y1038098D01*
G01D02*
Y1045121D01*
G01X846879D02*
X841402D01*
G01Y1064806D02*
X846194D01*
G01D02*
X847000Y1064000D01*
G01X841402Y1064806D02*
Y1063598D01*
G01D02*
X846000Y1059000D01*
G01X841402Y1058985D02*
Y1063598D01*
G01X901500Y1066000D02*
X901048Y1066452D01*
G01X900746Y1070246D02*
X897000Y1066500D01*
G01X901048Y1066452D02*
Y1070246D01*
G01X894500Y1070000D02*
X894746Y1070246D01*
G01X901048D02*
X900746D01*
G01X894746D02*
X900746D01*
G01X953000Y1065000D02*
X953193Y1064807D01*
G01D02*
X960694D01*
G01X957000Y1059000D02*
X960694Y1062694D01*
Y1064807D01*
X918704Y851370D03*
X910847D03*
X934418D03*
X926561D03*
G54D47*
G01X900000Y829500D02*
X905000D01*
G01X902000Y831000D02*
X897000D01*
G54D38*
X913253Y1073986D03*
X921520D03*
G54D29*
X878963Y1015689D03*
Y1019331D03*
X889500Y852179D03*
Y855821D03*
G54D48*
G01X841404Y907323D02*
X841402Y907325D01*
G01X841404Y927008D02*
X841402Y927010D01*
G01X841404Y1005749D02*
X841402Y1005751D01*
G01X846194Y1064806D02*
X846335D01*
G01X859701Y845527D02*
Y851500D01*
G01X863321Y863000D02*
X863544D01*
X866518Y860026D01*
X879259D01*
X882738Y863505D01*
X883789D01*
X883859Y863575D01*
X885925D01*
G01X864500Y857000D02*
X862151Y859349D01*
Y861830D01*
X863321Y863000D01*
G01X857000Y870500D02*
X859000D01*
X859705Y869795D01*
Y868037D01*
G01X859679Y863000D02*
X857500D01*
G01X858000Y873000D02*
X859679D01*
G01X875679Y873500D02*
X873679Y871500D01*
X870000D01*
G01X859679Y877000D02*
X858000D01*
G01X859685Y889027D02*
Y885773D01*
X859500Y885588D01*
Y883500D01*
G01X873605Y918975D02*
X867699D01*
G01D02*
X864525D01*
X864000Y919500D01*
Y921000D01*
X864534Y921534D01*
X867699D01*
G01X859500Y903500D02*
X858000Y905000D01*
Y909000D01*
X859697Y910697D01*
Y913037D01*
G01X872500Y927000D02*
X869500D01*
G01X861186Y920400D02*
Y922914D01*
X859689Y924411D01*
Y927037D01*
G01X863323Y943000D02*
X861450Y941127D01*
Y941000D01*
X859681Y939231D01*
G01X855826Y939000D02*
X856000D01*
X856231Y939231D01*
X859681D01*
G01Y943000D02*
X859679D01*
Y945312D01*
X859681Y945314D01*
Y947037D01*
G01X863323Y954500D02*
X861450Y952627D01*
Y952500D01*
X859681Y950731D01*
G01D02*
X857231D01*
X857000Y950500D01*
G01X863500Y971144D02*
X867681Y966963D01*
G01X868500Y960500D02*
Y962588D01*
X867681Y963407D01*
Y966963D01*
G01X860205Y967027D02*
Y965304D01*
X860000Y965099D01*
Y960500D01*
G01D02*
Y958412D01*
X859681Y958093D01*
Y954500D01*
G01X866059Y980453D02*
Y984809D01*
X868000Y986750D01*
Y987000D01*
G01X878821Y967000D02*
Y969499D01*
X878320Y970000D01*
X875852D01*
X875790Y970062D01*
X874568D01*
X874531Y970025D01*
X870712D01*
X870687Y970000D01*
X869796D01*
X869716Y969920D01*
X868496D01*
X867533Y970883D01*
Y977709D01*
X866059Y979183D01*
Y980453D01*
G01X863500D02*
Y974547D01*
G01D02*
Y971500D01*
G01D02*
X863144D01*
G01D02*
X863500Y971144D01*
G01X863144Y971500D02*
X863000D01*
G01D02*
X863439Y971939D01*
G01X863000Y971500D02*
X861380D01*
X860941Y971939D01*
Y974547D01*
G01X863500Y971144D02*
Y971500D01*
G01X869106Y971394D02*
X871894D01*
X873091Y972591D01*
Y975592D01*
X875499Y978000D01*
X880500D01*
X882725Y975775D01*
X896776D01*
X907501Y986500D01*
X926000D01*
X929200Y989700D01*
X932800D01*
G01X874013Y1009262D02*
Y1005513D01*
X870000Y1001500D01*
X867500D01*
G01X889500Y852179D02*
Y847000D01*
X886500Y844000D01*
G01X885179Y860000D02*
Y860321D01*
X883500Y862000D01*
G01X885179Y860000D02*
Y857865D01*
X885500Y857544D01*
Y855821D01*
G01D02*
X889500Y852179D01*
G01X880500Y864480D02*
X883385D01*
X885425Y866520D01*
G01X878000Y863000D02*
Y865088D01*
X881670Y868758D01*
X892942D01*
X896000Y865700D01*
Y861000D01*
X902499Y854501D01*
X919999D01*
X922000Y852500D01*
G01X879530Y879731D02*
X875231D01*
X875088Y879588D01*
X873000D01*
G01X884000Y897000D02*
Y896500D01*
X883957Y896457D01*
Y894076D01*
X884214Y893819D01*
G01X930500Y915500D02*
X929023Y916977D01*
X920598D01*
X917500Y913879D01*
Y900000D01*
X909000Y891500D01*
X899000D01*
X896993Y889493D01*
X890628D01*
X887000Y893121D01*
Y898500D01*
G01X907661Y906766D02*
X905266D01*
X902966Y904466D01*
X900455D01*
X899421Y905500D01*
X894000D01*
X888474Y899974D01*
X886390D01*
X885939Y899523D01*
X882777D01*
X881300Y901000D01*
G01X873605Y916416D02*
X877540D01*
X877956Y916000D01*
X879679D01*
G01D02*
Y913679D01*
X879500Y913500D01*
G01X873605Y918975D02*
X876974D01*
X877962Y919963D01*
X879685D01*
G01X882500Y928500D02*
X884500Y930500D01*
X912000D01*
X915500Y934000D01*
G01X884500Y926000D02*
X887588D01*
X891088Y929500D01*
X911500D01*
X913000Y928000D01*
G01X917048Y956539D02*
G03I-16000J0D01*
G01X876980Y971480D02*
X875020D01*
X874066Y972434D01*
Y975067D01*
X875999Y977000D01*
X880095D01*
X882295Y974800D01*
X897394D01*
X908094Y985500D01*
X926000D01*
X928800Y982700D01*
X932800D01*
G01X884264Y1009132D02*
Y1008236D01*
X887500Y1005000D01*
G01X874013Y1017136D02*
Y1020513D01*
X876664Y1023164D01*
G01X871454Y1017136D02*
Y1020038D01*
X876916Y1025500D01*
X881000D01*
X882477Y1026977D01*
X887523D01*
X889000Y1025500D01*
G01X878749Y1023164D02*
X876664D01*
G01X889000Y1025500D02*
X885279Y1021779D01*
Y1020506D01*
X884109Y1019336D01*
G01X878963Y1019331D02*
X882381D01*
X882386Y1019336D01*
X884109D01*
G01X904500Y852000D02*
X902501D01*
X896001Y858500D01*
X892179D01*
X889500Y855821D01*
G01X894051Y854051D02*
X899302Y848800D01*
X905300D01*
X909175Y844925D01*
Y843000D01*
G01X894500Y857000D02*
X901600Y849900D01*
X905600D01*
X911023Y844477D01*
Y843477D01*
X912500Y842000D01*
G01X899600Y861600D02*
X900582Y862582D01*
X902718D01*
X908300Y857000D01*
X936500D01*
X940000Y853500D01*
Y845000D01*
G01X897500Y862500D02*
Y860900D01*
X902400Y856000D01*
X936000D01*
X938000Y854000D01*
Y850000D01*
X933500Y845500D01*
Y839500D01*
G01X899400Y863900D02*
X898418Y864882D01*
X898197D01*
X894469Y868610D01*
Y870806D01*
G01X899400Y863900D02*
X903200D01*
X905600Y861500D01*
X920088D01*
X923500Y864912D01*
Y867000D01*
G01X898400Y870879D02*
X899570Y869709D01*
Y868930D01*
X902000Y866500D01*
G01X923500Y871000D02*
X921000Y868500D01*
Y863791D01*
X919709Y862500D01*
X906000D01*
X902000Y866500D01*
G01X896000Y876500D02*
X897000Y877500D01*
G01D02*
X901898D01*
G01X902702D02*
X904500D01*
X904619Y877619D01*
G01X895000Y903000D02*
X898000Y900000D01*
X904000D01*
X905500Y898500D01*
Y896000D01*
G01X900500Y902000D02*
X904000D01*
X905500Y903500D01*
G01X935500Y923000D02*
X934023Y921523D01*
X923765D01*
X916114Y913872D01*
Y900614D01*
X908000Y892500D01*
X898000D01*
X895968Y890468D01*
X891032D01*
X888500Y893000D01*
Y896500D01*
G01X925500Y932000D02*
X924500Y931000D01*
Y924000D01*
X913475Y912975D01*
Y907596D01*
X911500Y905621D01*
Y897500D01*
X907500Y893500D01*
X897996D01*
X894491Y897005D01*
G01X901065Y905940D02*
X903365Y908240D01*
X907240D01*
X910000Y911000D01*
Y917500D01*
X905500Y922000D01*
X904000D01*
X902500Y923500D01*
G01X905317Y911019D02*
X901369D01*
X897425Y907075D01*
G01X897817Y911019D02*
X896234Y909436D01*
Y908734D01*
X894500Y907000D01*
G01X887751Y1019336D02*
Y1012749D01*
X888868Y1011632D01*
X891264D01*
G01X901000Y1005000D02*
X898000Y1008000D01*
Y1008501D01*
X894869Y1011632D01*
X891264D01*
G01X904500Y852000D02*
X905999D01*
X909499Y848500D01*
X915834D01*
X918704Y851370D01*
G01X905039Y873915D02*
X906803D01*
X908062Y875174D01*
X915570D01*
X917418Y873326D01*
X925826D01*
X933500Y881000D01*
G01X910181Y920714D02*
X907395Y923500D01*
X905500D01*
G01X934418Y851370D02*
X924700Y841652D01*
Y841482D01*
X923718Y840500D01*
G01X926315Y851124D02*
X926561Y851370D01*
G01D02*
Y845427D01*
X922000Y840866D01*
Y838000D01*
G01X933444Y901594D02*
Y908444D01*
G01Y894594D02*
X925594D01*
G01X927500Y1011000D02*
X928482Y1011982D01*
Y1015507D01*
X930975Y1018000D01*
X938500D01*
X943500Y1023000D01*
Y1027000D01*
X942500Y1028000D01*
X939000D01*
X936000Y1025000D01*
G01X930300Y1011000D02*
X929457Y1011843D01*
Y1014958D01*
X930999Y1016500D01*
X938500D01*
X944500Y1022500D01*
Y1028000D01*
X943000Y1029500D01*
X939500D01*
X935500Y1033500D01*
G01X941221Y868100D02*
Y864309D01*
X941000Y864088D01*
Y862000D01*
G01X942221Y946400D02*
Y943721D01*
X942000Y943500D01*
G01X941927Y965956D02*
Y961661D01*
X942000Y961588D01*
Y959500D01*
G54D39*
X920700Y953700D03*
X933000Y962000D03*
M02*
