G04 ================== begin FILE IDENTIFICATION RECORD ==================*
G04 Layout Name:  G:/huangwei/complete/202012/Santa Cruz IoT/Santa Cruz IoT v0.7.brd*
G04 Film Name:    outline*
G04 File Format:  Gerber RS274X*
G04 File Origin:  Cadence Allegro 17.2-061*
G04 Origin Date:  Tue Dec 22 10:05:33 2020*
G04 *
G04 Layer:  BOARD GEOMETRY/OUTLINE*
G04 *
G04 Offset:    (0.00 0.00)*
G04 Mirror:    No*
G04 Mode:      Positive*
G04 Rotation:  0*
G04 FullContactRelief:  No*
G04 UndefLineWidth:     6.00*
G04 ================== end FILE IDENTIFICATION RECORD ====================*
%FSLAX25Y25*MOIN*%
%IR0*IPPOS*OFA0.00000B0.00000*MIA0B0*SFA1.00000B1.00000*%
%ADD10C,.005*%
%ADD11C,.00475*%
G75*
%LPD*%
G75*
G54D10*
G01X836087Y810870D02*
G03X847898Y799059I11811J0D01*
G01X836087Y826637D02*
Y810870D01*
G01X839631Y833213D02*
G02X837859Y829925I-3937J0D01*
G01D02*
G03X836087Y826637I2165J-3288D01*
G01X832150Y1067507D02*
Y845571D01*
G01D02*
G03X833303Y842787I3937J0D01*
G01D02*
X838478Y837613D01*
G01Y1075465D02*
X833303Y1070290D01*
G01D02*
G03X832150Y1067507I2783J-2783D01*
G01X836087Y1102208D02*
Y1086440D01*
G01D02*
G03X837859Y1083152I3937J0D01*
G01D02*
G02X839631Y1079864I-2165J-3288D01*
G01X847898Y1114019D02*
G03X836087Y1102208I0J-11811D01*
G01X847898Y799059D02*
X954198D01*
G01X857051Y833508D02*
G03I-2263J0D01*
G01X838478Y837613D02*
G02X839631Y834829I-2784J-2784D01*
G01D02*
Y833213D01*
G01Y1079864D02*
Y1078248D01*
G01D02*
G02X838478Y1075465I-3936J0D01*
G01X954198Y1114019D02*
X847898D01*
G01X949571Y1079571D02*
G03I-2264J0D01*
G01X954198Y799059D02*
G03X966009Y810870I0J11811D01*
G01D02*
Y826637D01*
G01D02*
G03X964237Y829925I-3937J0D01*
G01D02*
G02X962465Y833213I2165J3288D01*
G01D02*
Y834829D01*
G01D02*
G02X963618Y837613I3937J0D01*
G01D02*
X968792Y842787D01*
G01X963618Y1075465D02*
G02X962465Y1078248I2783J2783D01*
G01D02*
Y1079864D01*
G01D02*
G02X964237Y1083152I3937J0D01*
G01X968792Y1070290D02*
X963618Y1075465D01*
G01X964237Y1083152D02*
G03X966009Y1086440I-2165J3288D01*
G01D02*
Y1102208D01*
G01D02*
G03X954198Y1114019I-11811J0D01*
G01X968792Y842787D02*
G03X969946Y845571I-2784J2785D01*
G01D02*
Y1067507D01*
G01D02*
G03X968792Y1070290I-3936J-2D01*
G54D11*
G01X917048Y956539D02*
G03I-16000J0D01*
M02*
