G04 ================== begin FILE IDENTIFICATION RECORD ==================*
G04 Layout Name:  G:/huangwei/complete/202012/Santa Cruz IoT/Santa Cruz IoT v0.7.brd*
G04 Film Name:    paste_top*
G04 File Format:  Gerber RS274X*
G04 File Origin:  Cadence Allegro 17.2-061*
G04 Origin Date:  Tue Dec 22 10:05:32 2020*
G04 *
G04 Layer:  PIN/PASTEMASK_TOP*
G04 Layer:  PACKAGE GEOMETRY/PASTEMASK_TOP*
G04 Layer:  BOARD GEOMETRY/OUTLINE*
G04 *
G04 Offset:    (0.00 0.00)*
G04 Mirror:    No*
G04 Mode:      Positive*
G04 Rotation:  0*
G04 FullContactRelief:  No*
G04 UndefLineWidth:     6.00*
G04 ================== end FILE IDENTIFICATION RECORD ====================*
%FSLAX25Y25*MOIN*%
%IR0*IPPOS*OFA0.00000B0.00000*MIA0B0*SFA1.00000B1.00000*%
%AMMACRO36*
4,1,44,.08267,-.02362,
.08267,.02362,
.082556,.024987,
.082202,.026312,
.081623,.027556,
.080837,.02868,
.079868,.029651,
.078744,.030438,
.077501,.031019,
.076177,.031375,
.07481,.031495,
.0748,.03149,
-.0748,.03149,
-.076167,.031376,
-.077492,.031022,
-.078736,.030443,
-.07986,.029657,
-.080831,.028688,
-.081618,.027564,
-.082199,.026321,
-.082555,.024997,
-.082675,.02363,
-.08267,.02362,
-.08267,-.02362,
-.082556,-.024987,
-.082202,-.026312,
-.081623,-.027556,
-.080837,-.02868,
-.079868,-.029651,
-.078744,-.030438,
-.077501,-.031019,
-.076177,-.031375,
-.07481,-.031495,
-.0748,-.03149,
.0748,-.03149,
.076167,-.031376,
.077492,-.031022,
.078736,-.030443,
.07986,-.029657,
.080831,-.028688,
.081618,-.027564,
.082199,-.026321,
.082555,-.024997,
.082675,-.02363,
.08267,-.02362,
0.0*
%
%ADD36MACRO36*%
%AMMACRO29*
4,1,44,-.03149,.01574,
-.03149,-.01574,
-.031436,-.016424,
-.031259,-.017088,
-.03097,-.017711,
-.030576,-.018274,
-.030091,-.01876,
-.029529,-.019155,
-.028907,-.019446,
-.028244,-.019624,
-.02756,-.019685,
-.02755,-.01968,
.02755,-.01968,
.028234,-.019626,
.028898,-.019449,
.029521,-.01916,
.030084,-.018766,
.03057,-.018281,
.030965,-.017719,
.031256,-.017097,
.031434,-.016434,
.031495,-.01575,
.03149,-.01574,
.03149,.01574,
.031436,.016424,
.031259,.017088,
.03097,.017711,
.030576,.018274,
.030091,.01876,
.029529,.019155,
.028907,.019446,
.028244,.019624,
.02756,.019685,
.02755,.01968,
-.02755,.01968,
-.028234,.019626,
-.028898,.019449,
-.029521,.01916,
-.030084,.018766,
-.03057,.018281,
-.030965,.017719,
-.031256,.017097,
-.031434,.016434,
-.031495,.01575,
-.03149,.01574,
0.0*
%
%ADD29MACRO29*%
%AMMACRO24*
4,1,44,-.00984,.00787,
-.00984,-.00787,
-.009816,-.008212,
-.009728,-.008544,
-.009584,-.008856,
-.009387,-.009137,
-.009145,-.009381,
-.008864,-.009579,
-.008553,-.009724,
-.008222,-.009814,
-.00788,-.009845,
-.00787,-.00984,
.00787,-.00984,
.008212,-.009816,
.008544,-.009728,
.008856,-.009584,
.009137,-.009387,
.009381,-.009145,
.009579,-.008864,
.009724,-.008553,
.009814,-.008222,
.009845,-.00788,
.00984,-.00787,
.00984,.00787,
.009816,.008212,
.009728,.008544,
.009584,.008856,
.009387,.009137,
.009145,.009381,
.008864,.009579,
.008553,.009724,
.008222,.009814,
.00788,.009845,
.00787,.00984,
-.00787,.00984,
-.008212,.009816,
-.008544,.009728,
-.008856,.009584,
-.009137,.009387,
-.009381,.009145,
-.009579,.008864,
-.009724,.008553,
-.009814,.008222,
-.009845,.00788,
-.00984,.00787,
0.0*
%
%ADD24MACRO24*%
%AMMACRO12*
4,1,44,.00787,.00984,
-.00787,.00984,
-.008212,.009816,
-.008544,.009728,
-.008856,.009584,
-.009137,.009387,
-.009381,.009145,
-.009579,.008864,
-.009724,.008553,
-.009814,.008222,
-.009845,.00788,
-.00984,.00787,
-.00984,-.00787,
-.009816,-.008212,
-.009728,-.008544,
-.009584,-.008856,
-.009387,-.009137,
-.009145,-.009381,
-.008864,-.009579,
-.008553,-.009724,
-.008222,-.009814,
-.00788,-.009845,
-.00787,-.00984,
.00787,-.00984,
.008212,-.009816,
.008544,-.009728,
.008856,-.009584,
.009137,-.009387,
.009381,-.009145,
.009579,-.008864,
.009724,-.008553,
.009814,-.008222,
.009845,-.00788,
.00984,-.00787,
.00984,.00787,
.009816,.008212,
.009728,.008544,
.009584,.008856,
.009387,.009137,
.009145,.009381,
.008864,.009579,
.008553,.009724,
.008222,.009814,
.00788,.009845,
.00787,.00984,
0.0*
%
%ADD12MACRO12*%
%AMMACRO41*
4,1,40,.03,-.01106,
.03,.01106,
.02994,.011744,
.029762,.012408,
.029472,.01303,
.029078,.013593,
.028593,.014078,
.02803,.014472,
.027408,.014762,
.026744,.01494,
.02606,.015,
-.02606,.015,
-.026744,.01494,
-.027408,.014762,
-.02803,.014472,
-.028593,.014078,
-.029078,.013593,
-.029472,.01303,
-.029762,.012408,
-.02994,.011744,
-.03,.01106,
-.03,-.01106,
-.02994,-.011744,
-.029762,-.012408,
-.029472,-.01303,
-.029078,-.013593,
-.028593,-.014078,
-.02803,-.014472,
-.027408,-.014762,
-.026744,-.01494,
-.02606,-.015,
.02606,-.015,
.026744,-.01494,
.027408,-.014762,
.02803,-.014472,
.028593,-.014078,
.029078,-.013593,
.029472,-.01303,
.029762,-.012408,
.02994,-.011744,
.03,-.01106,
0.0*
%
%ADD41MACRO41*%
%AMMACRO27*
4,1,40,-.01606,-.0275,
.01606,-.0275,
.016744,-.02744,
.017408,-.027262,
.01803,-.026972,
.018593,-.026578,
.019078,-.026093,
.019472,-.02553,
.019762,-.024908,
.01994,-.024244,
.02,-.02356,
.02,.02356,
.01994,.024244,
.019762,.024908,
.019472,.02553,
.019078,.026093,
.018593,.026578,
.01803,.026972,
.017408,.027262,
.016744,.02744,
.01606,.0275,
-.01606,.0275,
-.016744,.02744,
-.017408,.027262,
-.01803,.026972,
-.018593,.026578,
-.019078,.026093,
-.019472,.02553,
-.019762,.024908,
-.01994,.024244,
-.02,.02356,
-.02,-.02356,
-.01994,-.024244,
-.019762,-.024908,
-.019472,-.02553,
-.019078,-.026093,
-.018593,-.026578,
-.01803,-.026972,
-.017408,-.027262,
-.016744,-.02744,
-.01606,-.0275,
0.0*
%
%ADD27MACRO27*%
%AMMACRO16*
4,1,40,.0275,-.01606,
.0275,.01606,
.02744,.016744,
.027262,.017408,
.026972,.01803,
.026578,.018593,
.026093,.019078,
.02553,.019472,
.024908,.019762,
.024244,.01994,
.02356,.02,
-.02356,.02,
-.024244,.01994,
-.024908,.019762,
-.02553,.019472,
-.026093,.019078,
-.026578,.018593,
-.026972,.01803,
-.027262,.017408,
-.02744,.016744,
-.0275,.01606,
-.0275,-.01606,
-.02744,-.016744,
-.027262,-.017408,
-.026972,-.01803,
-.026578,-.018593,
-.026093,-.019078,
-.02553,-.019472,
-.024908,-.019762,
-.024244,-.01994,
-.02356,-.02,
.02356,-.02,
.024244,-.01994,
.024908,-.019762,
.02553,-.019472,
.026093,-.019078,
.026578,-.018593,
.026972,-.01803,
.027262,-.017408,
.02744,-.016744,
.0275,-.01606,
0.0*
%
%ADD16MACRO16*%
%AMMACRO19*
4,1,40,-.01356,-.0175,
.01356,-.0175,
.014244,-.01744,
.014908,-.017262,
.01553,-.016972,
.016093,-.016578,
.016578,-.016093,
.016972,-.01553,
.017262,-.014908,
.01744,-.014244,
.0175,-.01356,
.0175,.01356,
.01744,.014244,
.017262,.014908,
.016972,.01553,
.016578,.016093,
.016093,.016578,
.01553,.016972,
.014908,.017262,
.014244,.01744,
.01356,.0175,
-.01356,.0175,
-.014244,.01744,
-.014908,.017262,
-.01553,.016972,
-.016093,.016578,
-.016578,.016093,
-.016972,.01553,
-.017262,.014908,
-.01744,.014244,
-.0175,.01356,
-.0175,-.01356,
-.01744,-.014244,
-.017262,-.014908,
-.016972,-.01553,
-.016578,-.016093,
-.016093,-.016578,
-.01553,-.016972,
-.014908,-.017262,
-.014244,-.01744,
-.01356,-.0175,
0.0*
%
%ADD19MACRO19*%
%AMMACRO10*
4,1,40,.045,-.03213,
.045,.03213,
.04488,.033497,
.044525,.034822,
.043946,.036065,
.043159,.037189,
.042189,.038159,
.041065,.038946,
.039822,.039525,
.038497,.03988,
.03713,.04,
-.03713,.04,
-.038497,.03988,
-.039822,.039525,
-.041065,.038946,
-.042189,.038159,
-.043159,.037189,
-.043946,.036065,
-.044525,.034822,
-.04488,.033497,
-.045,.03213,
-.045,-.03213,
-.04488,-.033497,
-.044525,-.034822,
-.043946,-.036065,
-.043159,-.037189,
-.042189,-.038159,
-.041065,-.038946,
-.039822,-.039525,
-.038497,-.03988,
-.03713,-.04,
.03713,-.04,
.038497,-.03988,
.039822,-.039525,
.041065,-.038946,
.042189,-.038159,
.043159,-.037189,
.043946,-.036065,
.044525,-.034822,
.04488,-.033497,
.045,-.03213,
0.0*
%
%ADD10MACRO10*%
%AMMACRO30*
4,1,44,-.00393,-.01181,
.00393,-.01181,
.004272,-.011781,
.004604,-.011693,
.004916,-.011549,
.005197,-.011352,
.005441,-.01111,
.005639,-.010829,
.005784,-.010518,
.005874,-.010187,
.005905,-.009845,
.0059,-.00984,
.0059,.00984,
.005875,.010182,
.005786,.010514,
.005641,.010825,
.005444,.011106,
.005201,.011349,
.00492,.011546,
.004609,.011691,
.004277,.01178,
.003935,.01181,
.00393,.01181,
-.00393,.01181,
-.004272,.011781,
-.004604,.011693,
-.004916,.011549,
-.005197,.011352,
-.005441,.01111,
-.005639,.010829,
-.005784,.010518,
-.005874,.010187,
-.005905,.009845,
-.0059,.00984,
-.0059,-.00984,
-.005875,-.010182,
-.005786,-.010514,
-.005641,-.010825,
-.005444,-.011106,
-.005201,-.011349,
-.00492,-.011546,
-.004609,-.011691,
-.004277,-.01178,
-.003935,-.01181,
-.00393,-.01181,
0.0*
%
%ADD30MACRO30*%
%AMMACRO33*
4,1,44,-.00393,-.02362,
.00393,-.02362,
.004272,-.023591,
.004604,-.023503,
.004916,-.023359,
.005197,-.023162,
.005441,-.02292,
.005639,-.022639,
.005784,-.022328,
.005874,-.021997,
.005905,-.021655,
.0059,-.02165,
.0059,.02165,
.005875,.021992,
.005786,.022324,
.005641,.022635,
.005444,.022916,
.005201,.023159,
.00492,.023356,
.004609,.023501,
.004277,.02359,
.003935,.02362,
.00393,.02362,
-.00393,.02362,
-.004272,.023591,
-.004604,.023503,
-.004916,.023359,
-.005197,.023162,
-.005441,.02292,
-.005639,.022639,
-.005784,.022328,
-.005874,.021997,
-.005905,.021655,
-.0059,.02165,
-.0059,-.02165,
-.005875,-.021992,
-.005786,-.022324,
-.005641,-.022635,
-.005444,-.022916,
-.005201,-.023159,
-.00492,-.023356,
-.004609,-.023501,
-.004277,-.02359,
-.003935,-.02362,
-.00393,-.02362,
0.0*
%
%ADD33MACRO33*%
%AMMACRO43*
4,1,44,-.01574,-.01575,
.01574,-.01575,
.016424,-.015691,
.017088,-.015514,
.017711,-.015225,
.018274,-.014831,
.01876,-.014346,
.019155,-.013784,
.019446,-.013162,
.019624,-.012499,
.019685,-.011815,
.01968,-.01181,
.01968,.01181,
.019625,.012494,
.019447,.013158,
.019157,.01378,
.018763,.014343,
.018278,.014828,
.017715,.015222,
.017093,.015512,
.016429,.01569,
.015745,.01575,
.01574,.01575,
-.01574,.01575,
-.016424,.015691,
-.017088,.015514,
-.017711,.015225,
-.018274,.014831,
-.01876,.014346,
-.019155,.013784,
-.019446,.013162,
-.019624,.012499,
-.019685,.011815,
-.01968,.01181,
-.01968,-.01181,
-.019625,-.012494,
-.019447,-.013158,
-.019157,-.01378,
-.018763,-.014343,
-.018278,-.014828,
-.017715,-.015222,
-.017093,-.015512,
-.016429,-.01569,
-.015745,-.01575,
-.01574,-.01575,
0.0*
%
%ADD43MACRO43*%
%ADD39R,.15354X.09055*%
%AMMACRO22*
4,1,44,.01378,-.00393,
.01378,.00393,
.013751,.004272,
.013663,.004604,
.013519,.004916,
.013322,.005197,
.01308,.005441,
.012799,.005639,
.012488,.005784,
.012157,.005874,
.011815,.005905,
.01181,.0059,
-.01181,.0059,
-.012152,.005875,
-.012484,.005786,
-.012795,.005641,
-.013076,.005444,
-.013319,.005201,
-.013516,.00492,
-.013661,.004609,
-.01375,.004277,
-.01378,.003935,
-.01378,.00393,
-.01378,-.00393,
-.013751,-.004272,
-.013663,-.004604,
-.013519,-.004916,
-.013322,-.005197,
-.01308,-.005441,
-.012799,-.005639,
-.012488,-.005784,
-.012157,-.005874,
-.011815,-.005905,
-.01181,-.0059,
.01181,-.0059,
.012152,-.005875,
.012484,-.005786,
.012795,-.005641,
.013076,-.005444,
.013319,-.005201,
.013516,-.00492,
.013661,-.004609,
.01375,-.004277,
.01378,-.003935,
.01378,-.00393,
0.0*
%
%ADD22MACRO22*%
%AMMACRO21*
4,1,44,-.00393,-.01378,
.00393,-.01378,
.004272,-.013751,
.004604,-.013663,
.004916,-.013519,
.005197,-.013322,
.005441,-.01308,
.005639,-.012799,
.005784,-.012488,
.005874,-.012157,
.005905,-.011815,
.0059,-.01181,
.0059,.01181,
.005875,.012152,
.005786,.012484,
.005641,.012795,
.005444,.013076,
.005201,.013319,
.00492,.013516,
.004609,.013661,
.004277,.01375,
.003935,.01378,
.00393,.01378,
-.00393,.01378,
-.004272,.013751,
-.004604,.013663,
-.004916,.013519,
-.005197,.013322,
-.005441,.01308,
-.005639,.012799,
-.005784,.012488,
-.005874,.012157,
-.005905,.011815,
-.0059,.01181,
-.0059,-.01181,
-.005875,-.012152,
-.005786,-.012484,
-.005641,-.012795,
-.005444,-.013076,
-.005201,-.013319,
-.00492,-.013516,
-.004609,-.013661,
-.004277,-.01375,
-.003935,-.01378,
-.00393,-.01378,
0.0*
%
%ADD21MACRO21*%
%AMMACRO34*
4,1,40,-.00394,-.02362,
.00394,-.02362,
.005307,-.0235,
.006632,-.023145,
.007875,-.022566,
.008999,-.021779,
.009969,-.020809,
.010756,-.019685,
.011335,-.018442,
.01169,-.017117,
.01181,-.01575,
.01181,.01575,
.01169,.017117,
.011335,.018442,
.010756,.019685,
.009969,.020809,
.008999,.021779,
.007875,.022566,
.006632,.023145,
.005307,.0235,
.00394,.02362,
-.00394,.02362,
-.005307,.0235,
-.006632,.023145,
-.007875,.022566,
-.008999,.021779,
-.009969,.020809,
-.010756,.019685,
-.011335,.018442,
-.01169,.017117,
-.01181,.01575,
-.01181,-.01575,
-.01169,-.017117,
-.011335,-.018442,
-.010756,-.019685,
-.009969,-.020809,
-.008999,-.021779,
-.007875,-.022566,
-.006632,-.023145,
-.005307,-.0235,
-.00394,-.02362,
0.0*
%
%ADD34MACRO34*%
%AMMACRO37*
4,1,44,-.01574,-.01771,
.01574,-.01771,
.016424,-.017656,
.017088,-.017479,
.017711,-.01719,
.018274,-.016796,
.01876,-.016311,
.019155,-.015749,
.019446,-.015127,
.019624,-.014464,
.019685,-.01378,
.01968,-.01377,
.01968,.01377,
.019626,.014454,
.019449,.015118,
.01916,.015741,
.018766,.016304,
.018281,.01679,
.017719,.017185,
.017097,.017476,
.016434,.017654,
.01575,.017715,
.01574,.01771,
-.01574,.01771,
-.016424,.017656,
-.017088,.017479,
-.017711,.01719,
-.018274,.016796,
-.01876,.016311,
-.019155,.015749,
-.019446,.015127,
-.019624,.014464,
-.019685,.01378,
-.01968,.01377,
-.01968,-.01377,
-.019626,-.014454,
-.019449,-.015118,
-.01916,-.015741,
-.018766,-.016304,
-.018281,-.01679,
-.017719,-.017185,
-.017097,-.017476,
-.016434,-.017654,
-.01575,-.017715,
-.01574,-.01771,
0.0*
%
%ADD37MACRO37*%
%AMMACRO32*
4,1,44,-.0059,-.01476,
.0059,-.01476,
.006242,-.014736,
.006574,-.014648,
.006886,-.014504,
.007167,-.014307,
.007411,-.014065,
.007609,-.013784,
.007754,-.013473,
.007844,-.013142,
.007875,-.0128,
.00787,-.01279,
.00787,.01279,
.007846,.013132,
.007758,.013464,
.007614,.013776,
.007417,.014057,
.007175,.014301,
.006894,.014499,
.006583,.014644,
.006252,.014734,
.00591,.014765,
.0059,.01476,
-.0059,.01476,
-.006242,.014736,
-.006574,.014648,
-.006886,.014504,
-.007167,.014307,
-.007411,.014065,
-.007609,.013784,
-.007754,.013473,
-.007844,.013142,
-.007875,.0128,
-.00787,.01279,
-.00787,-.01279,
-.007846,-.013132,
-.007758,-.013464,
-.007614,-.013776,
-.007417,-.014057,
-.007175,-.014301,
-.006894,-.014499,
-.006583,-.014644,
-.006252,-.014734,
-.00591,-.014765,
-.0059,-.01476,
0.0*
%
%ADD32MACRO32*%
%AMMACRO48*
4,1,40,-.01181,.00295,
-.01181,-.00295,
-.01178,-.003292,
-.011691,-.003624,
-.011546,-.003935,
-.011349,-.004216,
-.011106,-.004459,
-.010825,-.004656,
-.010514,-.004801,
-.010182,-.00489,
-.00984,-.00492,
.00984,-.00492,
.010182,-.00489,
.010514,-.004801,
.010825,-.004656,
.011106,-.004459,
.011349,-.004216,
.011546,-.003935,
.011691,-.003624,
.01178,-.003292,
.01181,-.00295,
.01181,.00295,
.01178,.003292,
.011691,.003624,
.011546,.003935,
.011349,.004216,
.011106,.004459,
.010825,.004656,
.010514,.004801,
.010182,.00489,
.00984,.00492,
-.00984,.00492,
-.010182,.00489,
-.010514,.004801,
-.010825,.004656,
-.011106,.004459,
-.011349,.004216,
-.011546,.003935,
-.011691,.003624,
-.01178,.003292,
-.01181,.00295,
0.0*
%
%ADD48MACRO48*%
%AMMACRO23*
4,1,44,.00984,-.00787,
.00984,.00787,
.009816,.008212,
.009728,.008544,
.009584,.008856,
.009387,.009137,
.009145,.009381,
.008864,.009579,
.008553,.009724,
.008222,.009814,
.00788,.009845,
.00787,.00984,
-.00787,.00984,
-.008212,.009816,
-.008544,.009728,
-.008856,.009584,
-.009137,.009387,
-.009381,.009145,
-.009579,.008864,
-.009724,.008553,
-.009814,.008222,
-.009845,.00788,
-.00984,.00787,
-.00984,-.00787,
-.009816,-.008212,
-.009728,-.008544,
-.009584,-.008856,
-.009387,-.009137,
-.009145,-.009381,
-.008864,-.009579,
-.008553,-.009724,
-.008222,-.009814,
-.00788,-.009845,
-.00787,-.00984,
.00787,-.00984,
.008212,-.009816,
.008544,-.009728,
.008856,-.009584,
.009137,-.009387,
.009381,-.009145,
.009579,-.008864,
.009724,-.008553,
.009814,-.008222,
.009845,-.00788,
.00984,-.00787,
0.0*
%
%ADD23MACRO23*%
%AMMACRO11*
4,1,44,-.00787,-.00984,
.00787,-.00984,
.008212,-.009816,
.008544,-.009728,
.008856,-.009584,
.009137,-.009387,
.009381,-.009145,
.009579,-.008864,
.009724,-.008553,
.009814,-.008222,
.009845,-.00788,
.00984,-.00787,
.00984,.00787,
.009816,.008212,
.009728,.008544,
.009584,.008856,
.009387,.009137,
.009145,.009381,
.008864,.009579,
.008553,.009724,
.008222,.009814,
.00788,.009845,
.00787,.00984,
-.00787,.00984,
-.008212,.009816,
-.008544,.009728,
-.008856,.009584,
-.009137,.009387,
-.009381,.009145,
-.009579,.008864,
-.009724,.008553,
-.009814,.008222,
-.009845,.00788,
-.00984,.00787,
-.00984,-.00787,
-.009816,-.008212,
-.009728,-.008544,
-.009584,-.008856,
-.009387,-.009137,
-.009145,-.009381,
-.008864,-.009579,
-.008553,-.009724,
-.008222,-.009814,
-.00788,-.009845,
-.00787,-.00984,
0.0*
%
%ADD11MACRO11*%
%AMMACRO31*
4,1,40,-.0315,-.03937,
.0315,-.03937,
.032867,-.03925,
.034192,-.038895,
.035435,-.038316,
.036559,-.037529,
.037529,-.036559,
.038316,-.035435,
.038895,-.034192,
.03925,-.032867,
.03937,-.0315,
.03937,.0315,
.03925,.032867,
.038895,.034192,
.038316,.035435,
.037529,.036559,
.036559,.037529,
.035435,.038316,
.034192,.038895,
.032867,.03925,
.0315,.03937,
-.0315,.03937,
-.032867,.03925,
-.034192,.038895,
-.035435,.038316,
-.036559,.037529,
-.037529,.036559,
-.038316,.035435,
-.038895,.034192,
-.03925,.032867,
-.03937,.0315,
-.03937,-.0315,
-.03925,-.032867,
-.038895,-.034192,
-.038316,-.035435,
-.037529,-.036559,
-.036559,-.037529,
-.035435,-.038316,
-.034192,-.038895,
-.032867,-.03925,
-.0315,-.03937,
0.0*
%
%ADD31MACRO31*%
%ADD25R,.04X.025*%
%ADD42R,.025X.04*%
%ADD40R,.056X.032*%
%AMMACRO28*
4,1,40,.00856,.015,
-.00856,.015,
-.009244,.01494,
-.009908,.014762,
-.01053,.014472,
-.011093,.014078,
-.011578,.013593,
-.011972,.01303,
-.012262,.012408,
-.01244,.011744,
-.0125,.01106,
-.0125,-.01106,
-.01244,-.011744,
-.012262,-.012408,
-.011972,-.01303,
-.011578,-.013593,
-.011093,-.014078,
-.01053,-.014472,
-.009908,-.014762,
-.009244,-.01494,
-.00856,-.015,
.00856,-.015,
.009244,-.01494,
.009908,-.014762,
.01053,-.014472,
.011093,-.014078,
.011578,-.013593,
.011972,-.01303,
.012262,-.012408,
.01244,-.011744,
.0125,-.01106,
.0125,.01106,
.01244,.011744,
.012262,.012408,
.011972,.01303,
.011578,.013593,
.011093,.014078,
.01053,.014472,
.009908,.014762,
.009244,.01494,
.00856,.015,
0.0*
%
%ADD28MACRO28*%
%AMMACRO45*
4,1,40,-.0225,.01606,
-.0225,-.01606,
-.02244,-.016744,
-.022262,-.017408,
-.021972,-.01803,
-.021578,-.018593,
-.021093,-.019078,
-.02053,-.019472,
-.019908,-.019762,
-.019244,-.01994,
-.01856,-.02,
.01856,-.02,
.019244,-.01994,
.019908,-.019762,
.02053,-.019472,
.021093,-.019078,
.021578,-.018593,
.021972,-.01803,
.022262,-.017408,
.02244,-.016744,
.0225,-.01606,
.0225,.01606,
.02244,.016744,
.022262,.017408,
.021972,.01803,
.021578,.018593,
.021093,.019078,
.02053,.019472,
.019908,.019762,
.019244,.01994,
.01856,.02,
-.01856,.02,
-.019244,.01994,
-.019908,.019762,
-.02053,.019472,
-.021093,.019078,
-.021578,.018593,
-.021972,.01803,
-.022262,.017408,
-.02244,.016744,
-.0225,.01606,
0.0*
%
%ADD45MACRO45*%
%ADD44R,.055X.064*%
%AMMACRO15*
4,1,40,-.0275,.01606,
-.0275,-.01606,
-.02744,-.016744,
-.027262,-.017408,
-.026972,-.01803,
-.026578,-.018593,
-.026093,-.019078,
-.02553,-.019472,
-.024908,-.019762,
-.024244,-.01994,
-.02356,-.02,
.02356,-.02,
.024244,-.01994,
.024908,-.019762,
.02553,-.019472,
.026093,-.019078,
.026578,-.018593,
.026972,-.01803,
.027262,-.017408,
.02744,-.016744,
.0275,-.01606,
.0275,.01606,
.02744,.016744,
.027262,.017408,
.026972,.01803,
.026578,.018593,
.026093,.019078,
.02553,.019472,
.024908,.019762,
.024244,.01994,
.02356,.02,
-.02356,.02,
-.024244,.01994,
-.024908,.019762,
-.02553,.019472,
-.026093,.019078,
-.026578,.018593,
-.026972,.01803,
-.027262,.017408,
-.02744,.016744,
-.0275,.01606,
0.0*
%
%ADD15MACRO15*%
%AMMACRO18*
4,1,40,.01606,.0275,
-.01606,.0275,
-.016744,.02744,
-.017408,.027262,
-.01803,.026972,
-.018593,.026578,
-.019078,.026093,
-.019472,.02553,
-.019762,.024908,
-.01994,.024244,
-.02,.02356,
-.02,-.02356,
-.01994,-.024244,
-.019762,-.024908,
-.019472,-.02553,
-.019078,-.026093,
-.018593,-.026578,
-.01803,-.026972,
-.017408,-.027262,
-.016744,-.02744,
-.01606,-.0275,
.01606,-.0275,
.016744,-.02744,
.017408,-.027262,
.01803,-.026972,
.018593,-.026578,
.019078,-.026093,
.019472,-.02553,
.019762,-.024908,
.01994,-.024244,
.02,-.02356,
.02,.02356,
.01994,.024244,
.019762,.024908,
.019472,.02553,
.019078,.026093,
.018593,.026578,
.01803,.026972,
.017408,.027262,
.016744,.02744,
.01606,.0275,
0.0*
%
%ADD18MACRO18*%
%ADD38R,.045X.075*%
%AMMACRO26*
4,1,44,-.02,.00885,
-.02,-.00885,
-.019971,-.009192,
-.019883,-.009524,
-.019739,-.009836,
-.019542,-.010117,
-.0193,-.010361,
-.019019,-.010559,
-.018708,-.010704,
-.018377,-.010794,
-.018035,-.010825,
-.01803,-.01082,
.01803,-.01082,
.018372,-.010795,
.018704,-.010706,
.019015,-.010561,
.019296,-.010364,
.019539,-.010121,
.019736,-.00984,
.019881,-.009529,
.01997,-.009197,
.02,-.008855,
.02,-.00885,
.02,.00885,
.019971,.009192,
.019883,.009524,
.019739,.009836,
.019542,.010117,
.0193,.010361,
.019019,.010559,
.018708,.010704,
.018377,.010794,
.018035,.010825,
.01803,.01082,
-.01803,.01082,
-.018372,.010795,
-.018704,.010706,
-.019015,.010561,
-.019296,.010364,
-.019539,.010121,
-.019736,.00984,
-.019881,.009529,
-.01997,.009197,
-.02,.008855,
-.02,.00885,
0.0*
%
%ADD26MACRO26*%
%AMMACRO20*
4,1,44,-.08858,-.10039,
.08858,-.10039,
.090631,-.100216,
.09262,-.099684,
.094486,-.098815,
.096172,-.097635,
.097629,-.09618,
.09881,-.094494,
.099681,-.092629,
.100215,-.090641,
.100395,-.08859,
.10039,-.08858,
.10039,.08858,
.100216,.090631,
.099684,.09262,
.098815,.094486,
.097635,.096172,
.09618,.097629,
.094494,.09881,
.092629,.099681,
.090641,.100215,
.08859,.100395,
.08858,.10039,
-.08858,.10039,
-.090631,.100216,
-.09262,.099684,
-.094486,.098815,
-.096172,.097635,
-.097629,.09618,
-.09881,.094494,
-.099681,.092629,
-.100215,.090641,
-.100395,.08859,
-.10039,.08858,
-.10039,-.08858,
-.100216,-.090631,
-.099684,-.09262,
-.098815,-.094486,
-.097635,-.096172,
-.09618,-.097629,
-.094494,-.09881,
-.092629,-.099681,
-.090641,-.100215,
-.08859,-.100395,
-.08858,-.10039,
0.0*
%
%ADD20MACRO20*%
%ADD17O,.04724X.08661*%
%AMMACRO13*
4,1,40,.00394,.03051,
-.00394,.03051,
-.005307,.03039,
-.006632,.030035,
-.007875,.029456,
-.008999,.028669,
-.009969,.027699,
-.010756,.026575,
-.011335,.025332,
-.01169,.024007,
-.01181,.02264,
-.01181,-.02264,
-.01169,-.024007,
-.011335,-.025332,
-.010756,-.026575,
-.009969,-.027699,
-.008999,-.028669,
-.007875,-.029456,
-.006632,-.030035,
-.005307,-.03039,
-.00394,-.03051,
.00394,-.03051,
.005307,-.03039,
.006632,-.030035,
.007875,-.029456,
.008999,-.028669,
.009969,-.027699,
.010756,-.026575,
.011335,-.025332,
.01169,-.024007,
.01181,-.02264,
.01181,.02264,
.01169,.024007,
.011335,.025332,
.010756,.026575,
.009969,.027699,
.008999,.028669,
.007875,.029456,
.006632,.030035,
.005307,.03039,
.00394,.03051,
0.0*
%
%ADD13MACRO13*%
%ADD14R,.03937X.05118*%
%AMMACRO46*
4,1,44,.01574,.01575,
-.01574,.01575,
-.016424,.015691,
-.017088,.015514,
-.017711,.015225,
-.018274,.014831,
-.01876,.014346,
-.019155,.013784,
-.019446,.013162,
-.019624,.012499,
-.019685,.011815,
-.01968,.01181,
-.01968,-.01181,
-.019625,-.012494,
-.019447,-.013158,
-.019157,-.01378,
-.018763,-.014343,
-.018278,-.014828,
-.017715,-.015222,
-.017093,-.015512,
-.016429,-.01569,
-.015745,-.01575,
-.01574,-.01575,
.01574,-.01575,
.016424,-.015691,
.017088,-.015514,
.017711,-.015225,
.018274,-.014831,
.01876,-.014346,
.019155,-.013784,
.019446,-.013162,
.019624,-.012499,
.019685,-.011815,
.01968,-.01181,
.01968,.01181,
.019625,.012494,
.019447,.013158,
.019157,.01378,
.018763,.014343,
.018278,.014828,
.017715,.015222,
.017093,.015512,
.016429,.01569,
.015745,.01575,
.01574,.01575,
0.0*
%
%ADD46MACRO46*%
%AMMACRO35*
4,1,44,-.01378,.00885,
-.01378,-.00885,
-.013751,-.009192,
-.013663,-.009524,
-.013519,-.009836,
-.013322,-.010117,
-.01308,-.010361,
-.012799,-.010559,
-.012488,-.010704,
-.012157,-.010794,
-.011815,-.010825,
-.01181,-.01082,
.01181,-.01082,
.012152,-.010795,
.012484,-.010706,
.012795,-.010561,
.013076,-.010364,
.013319,-.010121,
.013516,-.00984,
.013661,-.009529,
.01375,-.009197,
.01378,-.008855,
.01378,-.00885,
.01378,.00885,
.013751,.009192,
.013663,.009524,
.013519,.009836,
.013322,.010117,
.01308,.010361,
.012799,.010559,
.012488,.010704,
.012157,.010794,
.011815,.010825,
.01181,.01082,
-.01181,.01082,
-.012152,.010795,
-.012484,.010706,
-.012795,.010561,
-.013076,.010364,
-.013319,.010121,
-.013516,.00984,
-.013661,.009529,
-.01375,.009197,
-.01378,.008855,
-.01378,.00885,
0.0*
%
%ADD35MACRO35*%
%AMMACRO47*
4,1,44,.01377,.03149,
-.01377,.03149,
-.014454,.031436,
-.015118,.031259,
-.015741,.03097,
-.016304,.030576,
-.01679,.030091,
-.017185,.029529,
-.017476,.028907,
-.017654,.028244,
-.017715,.02756,
-.01771,.02755,
-.01771,-.02755,
-.017656,-.028234,
-.017479,-.028898,
-.01719,-.029521,
-.016796,-.030084,
-.016311,-.03057,
-.015749,-.030965,
-.015127,-.031256,
-.014464,-.031434,
-.01378,-.031495,
-.01377,-.03149,
.01377,-.03149,
.014454,-.031436,
.015118,-.031259,
.015741,-.03097,
.016304,-.030576,
.01679,-.030091,
.017185,-.029529,
.017476,-.028907,
.017654,-.028244,
.017715,-.02756,
.01771,-.02755,
.01771,.02755,
.017656,.028234,
.017479,.028898,
.01719,.029521,
.016796,.030084,
.016311,.03057,
.015749,.030965,
.015127,.031256,
.014464,.031434,
.01378,.031495,
.01377,.03149,
0.0*
%
%ADD47MACRO47*%
%ADD49C,.005*%
%ADD50C,.00475*%
G75*
%LPD*%
G75*
G54D10*
X870827Y838998D03*
Y854998D03*
G54D20*
X888878Y880572D03*
G54D11*
X864745Y869200D03*
X868387D03*
X864679Y885000D03*
X868321D03*
X864661Y880963D03*
X868303D03*
X864649Y876963D03*
X868291D03*
X864645Y872963D03*
X868287D03*
X864679Y897000D03*
X868321D03*
X864679Y889000D03*
X868321D03*
X864669Y901463D03*
X868311D03*
X864695Y909373D03*
X868337D03*
X864500Y905500D03*
X868142D03*
X864709Y1032473D03*
X868351D03*
X864701Y1024463D03*
X868343D03*
X864689Y1028463D03*
X868331D03*
X864681Y1040463D03*
X868323D03*
X864693Y1052463D03*
X868335D03*
X886679Y858500D03*
X879453Y858463D03*
X883095D03*
X886061Y901063D03*
X886121Y908731D03*
X881679Y1005000D03*
X885321D03*
X882749Y1063336D03*
X886391D03*
X902769Y833063D03*
X890321Y858500D03*
X889703Y901063D03*
X889763Y908731D03*
X891679Y1005000D03*
X895321D03*
X906411Y833063D03*
X916665Y1063463D03*
X920307D03*
X925685Y838463D03*
X929327D03*
X925681Y842463D03*
X929323D03*
X933713Y870863D03*
X937355D03*
G54D21*
X885925Y866989D03*
X883957D03*
X881988D03*
X880020D03*
X878051D03*
Y894155D03*
X880020D03*
X881988D03*
X883957D03*
X885925D03*
X899705Y866989D03*
X897736D03*
X895768D03*
X893799D03*
X891831D03*
X889862D03*
X887894D03*
Y894155D03*
X889862D03*
X891831D03*
X893799D03*
X895768D03*
X897736D03*
X899705D03*
X902543Y909344D03*
X899984D03*
X897425D03*
X894866D03*
Y920762D03*
X897425D03*
X899984D03*
X902543D03*
X910220Y909344D03*
X907661D03*
X905102D03*
Y920762D03*
X907661D03*
X910220D03*
G54D30*
X878213Y1061816D03*
X875654D03*
X873095D03*
Y1069690D03*
X875654D03*
X878213D03*
G54D12*
X868335Y893037D03*
X864693D03*
X869321Y1005000D03*
X865679D03*
X868331Y1044527D03*
X864689D03*
X868287Y1036537D03*
X864645D03*
X868315Y1048537D03*
X864673D03*
X886679Y854000D03*
X886129Y912569D03*
X886133Y904869D03*
X886251Y1047637D03*
X882609D03*
X878143Y1055637D03*
X874501D03*
X898827Y833127D03*
X895185D03*
X890321Y854000D03*
X889771Y912569D03*
X889775Y904869D03*
X915821Y833000D03*
X912179D03*
X915689Y853027D03*
X912047D03*
X915791Y845537D03*
X912149D03*
X915752Y849269D03*
X912110D03*
X917071Y886469D03*
X913429D03*
X929251Y846664D03*
X925609D03*
X928821Y871100D03*
X925179D03*
X928823Y867037D03*
X925181D03*
X928795Y863037D03*
X925153D03*
X933679Y878600D03*
X928615Y875537D03*
X924973D03*
X933721Y874737D03*
X930487Y912837D03*
X926845D03*
X934121Y957100D03*
X930479D03*
X928314Y1063597D03*
X924672D03*
X936303Y1063537D03*
X932661D03*
X937321Y878600D03*
X937363Y874737D03*
G54D13*
X870820Y918394D03*
X865820D03*
Y939654D03*
X870820D03*
X880820Y918394D03*
X875820D03*
Y939654D03*
X880820D03*
X920320Y927594D03*
Y948854D03*
X935320Y927594D03*
X930320D03*
X925320D03*
Y948854D03*
X930320D03*
X935320D03*
G54D40*
X893877Y1053130D03*
Y1060532D03*
X908051Y1053130D03*
Y1060532D03*
G54D31*
X906956Y806683D03*
X895144D03*
G54D22*
X875295Y869745D03*
Y871714D03*
Y873682D03*
Y875651D03*
Y877619D03*
Y879588D03*
Y881556D03*
Y883525D03*
Y885493D03*
Y887462D03*
Y889430D03*
Y891399D03*
X902461Y869745D03*
Y887462D03*
Y885493D03*
Y883525D03*
Y881556D03*
Y879588D03*
Y877619D03*
Y875651D03*
Y873682D03*
Y871714D03*
Y891399D03*
Y889430D03*
G54D50*
G01X917048Y956539D02*
G03I-16000J0D01*
G54D14*
X869106Y948648D03*
Y967546D03*
X876980Y948648D03*
Y967546D03*
X932037Y1000151D03*
X924163D03*
Y1019049D03*
X932037D03*
G54D23*
X886637Y933901D03*
Y937543D03*
X883537Y979109D03*
Y982751D03*
X874237Y1047793D03*
Y1051435D03*
X907037Y838705D03*
Y842347D03*
X916903Y863213D03*
Y866855D03*
X909403Y878669D03*
Y882311D03*
X913269Y878669D03*
Y882311D03*
X917027Y878669D03*
Y882311D03*
X917269Y897129D03*
Y900771D03*
Y905433D03*
Y909075D03*
X907527Y927205D03*
Y930847D03*
X925000Y956979D03*
Y960621D03*
X923200Y982579D03*
Y986221D03*
X922037Y1044209D03*
Y1047851D03*
X936164Y1055749D03*
Y1059391D03*
G54D32*
X902303Y836964D03*
X898957D03*
X902303Y844248D03*
X898957D03*
G54D41*
X910734Y862823D03*
Y874823D03*
G54D15*
X868563Y981864D03*
Y974864D03*
X866973Y1018980D03*
Y1011980D03*
X866473Y1065358D03*
Y1058358D03*
X874973Y1018906D03*
Y1011906D03*
X882973Y1018968D03*
Y1011968D03*
G54D42*
X922060Y880255D03*
X929560D03*
Y890455D03*
X925810D03*
X922060D03*
G54D33*
X902034Y824597D03*
X900066D03*
X898097D03*
X896129D03*
X894160D03*
X907940D03*
X905971D03*
X904003D03*
G54D24*
X887263Y982799D03*
Y979157D03*
X878363Y1047617D03*
Y1051259D03*
X873463Y1078287D03*
Y1074645D03*
X877963Y1078347D03*
Y1074705D03*
X894263Y838673D03*
X902663Y838757D03*
X898663Y838761D03*
X894263Y842315D03*
X902663Y842399D03*
X898663Y842403D03*
X889973Y928803D03*
Y925161D03*
D03*
Y921519D03*
X891137Y982851D03*
Y979209D03*
X919731Y852748D03*
Y849106D03*
X916903Y870676D03*
Y874318D03*
X917273Y916419D03*
Y912777D03*
X916463Y1055843D03*
Y1052201D03*
X925173Y900719D03*
Y897077D03*
X921163Y900767D03*
Y897125D03*
X929200Y900721D03*
Y897079D03*
X925173Y909023D03*
Y905381D03*
X921163Y909071D03*
Y905429D03*
X929163Y909007D03*
Y905365D03*
X920700Y960621D03*
Y956979D03*
G54D25*
X880304Y997262D03*
Y989762D03*
X890504D03*
Y993512D03*
Y997262D03*
G54D34*
X891601Y824597D03*
X888255D03*
X913648D03*
X910499D03*
G54D43*
X933286Y918231D03*
X923838D03*
G54D16*
X869927Y990194D03*
Y997194D03*
X876637Y974926D03*
Y981926D03*
X901900Y980700D03*
Y987700D03*
X909600Y980800D03*
X917300D03*
X909600Y987800D03*
X917300D03*
X935600Y858600D03*
Y865600D03*
G54D35*
X898011Y854282D03*
X903917D03*
X898011Y857826D03*
X903917D03*
G54D17*
X884121Y805699D03*
Y822235D03*
X917979Y805699D03*
Y822235D03*
G54D26*
X875057Y1027172D03*
Y1030912D03*
Y1034652D03*
X884057D03*
Y1030912D03*
Y1027172D03*
G54D44*
X934614Y968637D03*
X923514D03*
G54D18*
X882500Y848000D03*
X889500D03*
G54D45*
X924000Y1029500D03*
X932000Y1033000D03*
Y1026000D03*
G54D27*
X877005Y1041403D03*
X884005D03*
X927500Y1046000D03*
X934500D03*
G54D36*
X902543Y915053D03*
G54D46*
X925776Y1039500D03*
X935224D03*
G54D28*
X885197Y1059297D03*
X887815Y1052297D03*
X882697D03*
X929743Y851369D03*
X924625D03*
X927125Y858369D03*
G54D37*
X902928Y926545D03*
X895448D03*
Y932451D03*
X902928D03*
G54D19*
X882000Y840000D03*
X888000D03*
G54D47*
X925905Y1055746D03*
G54D38*
X902164Y996637D03*
X911164D03*
G54D29*
X875654Y1065753D03*
G54D48*
X929842Y1058699D03*
Y1056730D03*
Y1054762D03*
Y1052793D03*
X921968D03*
Y1054762D03*
Y1056730D03*
Y1058699D03*
G54D39*
X902932Y1013829D03*
Y1035089D03*
G54D49*
G01X836087Y810870D02*
G03X847898Y799059I11811J0D01*
G01X836087Y826637D02*
Y810870D01*
G01X839631Y833213D02*
G02X837859Y829925I-3937J0D01*
G01D02*
G03X836087Y826637I2165J-3288D01*
G01X832150Y1067507D02*
Y845571D01*
G01D02*
G03X833303Y842787I3937J0D01*
G01D02*
X838478Y837613D01*
G01Y1075465D02*
X833303Y1070290D01*
G01D02*
G03X832150Y1067507I2783J-2783D01*
G01X836087Y1102208D02*
Y1086440D01*
G01D02*
G03X837859Y1083152I3937J0D01*
G01D02*
G02X839631Y1079864I-2165J-3288D01*
G01X847898Y1114019D02*
G03X836087Y1102208I0J-11811D01*
G01X847898Y799059D02*
X954198D01*
G01X857051Y833508D02*
G03I-2263J0D01*
G01X838478Y837613D02*
G02X839631Y834829I-2784J-2784D01*
G01D02*
Y833213D01*
G01Y1079864D02*
Y1078248D01*
G01D02*
G02X838478Y1075465I-3936J0D01*
G01X954198Y1114019D02*
X847898D01*
G01X949571Y1079571D02*
G03I-2264J0D01*
G01X954198Y799059D02*
G03X966009Y810870I0J11811D01*
G01D02*
Y826637D01*
G01D02*
G03X964237Y829925I-3937J0D01*
G01D02*
G02X962465Y833213I2165J3288D01*
G01D02*
Y834829D01*
G01D02*
G02X963618Y837613I3937J0D01*
G01D02*
X968792Y842787D01*
G01X963618Y1075465D02*
G02X962465Y1078248I2783J2783D01*
G01D02*
Y1079864D01*
G01D02*
G02X964237Y1083152I3937J0D01*
G01X968792Y1070290D02*
X963618Y1075465D01*
G01X964237Y1083152D02*
G03X966009Y1086440I-2165J3288D01*
G01D02*
Y1102208D01*
G01D02*
G03X954198Y1114019I-11811J0D01*
G01X968792Y842787D02*
G03X969946Y845571I-2784J2785D01*
G01D02*
Y1067507D01*
G01D02*
G03X968792Y1070290I-3936J-2D01*
M02*
